<?xml version="1.0" encoding="UTF-8"?>
<svg width="700pt" height="700pt" version="1.1" viewBox="0 0 700 700" xmlns="http://www.w3.org/2000/svg" xmlns:xlink="http://www.w3.org/1999/xlink">
 <defs>
  <symbol id="u" overflow="visible">
   <path d="m14.656-0.875c-0.76172 0.39844-1.5547 0.69531-2.375 0.89062-0.8125 0.19531-1.6641 0.29688-2.5469 0.29688-2.6562 0-4.7617-0.73828-6.3125-2.2188-1.5547-1.4883-2.3281-3.5039-2.3281-6.0469 0-2.5508 0.77344-4.5664 2.3281-6.0469 1.5508-1.4883 3.6562-2.2344 6.3125-2.2344 0.88281 0 1.7344 0.10156 2.5469 0.29688 0.82031 0.19922 1.6133 0.49609 2.375 0.89062v3.2969c-0.76172-0.51953-1.5117-0.89844-2.25-1.1406-0.74219-0.23828-1.5234-0.35938-2.3438-0.35938-1.4688 0-2.625 0.46875-3.4688 1.4062-0.83594 0.9375-1.25 2.2344-1.25 3.8906 0 1.6484 0.41406 2.9375 1.25 3.875 0.84375 0.9375 2 1.4062 3.4688 1.4062 0.82031 0 1.6016-0.11719 2.3438-0.35938 0.73828-0.23828 1.4883-0.61719 2.25-1.1406z"/>
  </symbol>
  <symbol id="d" overflow="visible">
   <path d="m10.719-8.7031c-0.33594-0.15625-0.66797-0.26953-1-0.34375-0.32422-0.082031-0.65625-0.125-1-0.125-0.98047 0-1.7344 0.32031-2.2656 0.95312-0.53125 0.625-0.79688 1.5273-0.79688 2.7031v5.5156h-3.8125v-11.969h3.8125v1.9688c0.48828-0.78125 1.0508-1.3477 1.6875-1.7031 0.64453-0.36328 1.4102-0.54688 2.2969-0.54688 0.13281 0 0.27344 0.007812 0.42188 0.015625 0.14453 0.011719 0.36328 0.03125 0.65625 0.0625z"/>
  </symbol>
  <symbol id="a" overflow="visible">
   <path d="m13.781-6.0156v1.0938h-8.9375c0.09375 0.89844 0.41406 1.5703 0.96875 2.0156 0.55078 0.44922 1.3281 0.67188 2.3281 0.67188 0.80078 0 1.625-0.11719 2.4688-0.35938 0.84375-0.23828 1.7109-0.59766 2.6094-1.0781v2.9531c-0.90625 0.33594-1.8125 0.58984-2.7188 0.76562s-1.8125 0.26562-2.7188 0.26562c-2.1562 0-3.8398-0.54688-5.0469-1.6406-1.1992-1.1016-1.7969-2.6484-1.7969-4.6406 0-1.9453 0.58594-3.4766 1.7656-4.5938 1.1758-1.125 2.8008-1.6875 4.875-1.6875 1.875 0 3.375 0.57031 4.5 1.7031 1.1328 1.125 1.7031 2.6367 1.7031 4.5312zm-3.9375-1.2656c0-0.72656-0.21484-1.3125-0.64062-1.75-0.41797-0.44531-0.96875-0.67188-1.6562-0.67188-0.74219 0-1.3438 0.21094-1.8125 0.625-0.46094 0.41797-0.74609 1.0156-0.85938 1.7969z"/>
  </symbol>
  <symbol id="g" overflow="visible">
   <path d="m7.2031-5.3906c-0.80469 0-1.4062 0.13672-1.8125 0.40625-0.39844 0.27344-0.59375 0.67188-0.59375 1.2031 0 0.48047 0.16016 0.85938 0.48438 1.1406 0.32031 0.27344 0.77344 0.40625 1.3594 0.40625 0.71875 0 1.3203-0.25391 1.8125-0.76562 0.48828-0.51953 0.73438-1.1719 0.73438-1.9531v-0.4375zm5.8438-1.4375v6.8281h-3.8594v-1.7656c-0.51172 0.71875-1.0898 1.2461-1.7344 1.5781-0.63672 0.33203-1.418 0.5-2.3438 0.5-1.2422 0-2.2461-0.35938-3.0156-1.0781-0.77344-0.72656-1.1562-1.6719-1.1562-2.8281 0-1.3945 0.47656-2.4219 1.4375-3.0781 0.96875-0.65625 2.4883-0.98438 4.5625-0.98438h2.25v-0.29688c0-0.60156-0.24219-1.0469-0.71875-1.3281-0.48047-0.28125-1.2266-0.42188-2.2344-0.42188-0.8125 0-1.5742 0.085937-2.2812 0.25-0.71094 0.15625-1.3672 0.40234-1.9688 0.73438v-2.9219c0.82031-0.19531 1.6445-0.34766 2.4688-0.45312 0.82031-0.10156 1.6484-0.15625 2.4844-0.15625 2.1562 0 3.7109 0.42969 4.6719 1.2812 0.95703 0.84375 1.4375 2.2266 1.4375 4.1406z"/>
  </symbol>
  <symbol id="b" overflow="visible">
   <path d="m6.0156-15.359v3.3906h3.9375v2.7344h-3.9375v5.0781c0 0.55469 0.10938 0.92969 0.32812 1.125 0.21875 0.19922 0.65625 0.29688 1.3125 0.29688h1.9688v2.7344h-3.2812c-1.5117 0-2.5859-0.3125-3.2188-0.9375-0.625-0.63281-0.9375-1.707-0.9375-3.2188v-5.0781h-1.9062v-2.7344h1.9062v-3.3906z"/>
  </symbol>
  <symbol id="i" overflow="visible">
   <path d="m9.9688-10.219v-6.4062h3.8594v16.625h-3.8594v-1.7344c-0.52344 0.71094-1.1016 1.2305-1.7344 1.5625-0.63672 0.32031-1.3711 0.48438-2.2031 0.48438-1.4688 0-2.6797-0.58203-3.625-1.75-0.94922-1.1758-1.4219-2.6875-1.4219-4.5312s0.47266-3.3477 1.4219-4.5156c0.94531-1.1758 2.1562-1.7656 3.625-1.7656 0.83203 0 1.5664 0.16797 2.2031 0.5 0.63281 0.32422 1.2109 0.83594 1.7344 1.5312zm-2.5156 7.75c0.82031 0 1.4453-0.29688 1.875-0.89062 0.42578-0.60156 0.64062-1.4727 0.64062-2.6094 0-1.1445-0.21484-2.0156-0.64062-2.6094-0.42969-0.59375-1.0547-0.89062-1.875-0.89062-0.8125 0-1.4336 0.29688-1.8594 0.89062-0.42969 0.59375-0.64062 1.4648-0.64062 2.6094 0 1.1367 0.21094 2.0078 0.64062 2.6094 0.42578 0.59375 1.0469 0.89062 1.8594 0.89062z"/>
  </symbol>
  <symbol id="c" overflow="visible">
   <path d="m8.2031-2.4688c0.82031 0 1.4453-0.29688 1.875-0.89062 0.42578-0.60156 0.64062-1.4727 0.64062-2.6094 0-1.1445-0.21484-2.0156-0.64062-2.6094-0.42969-0.59375-1.0547-0.89062-1.875-0.89062-0.82422 0-1.4531 0.30469-1.8906 0.90625-0.4375 0.59375-0.65625 1.4609-0.65625 2.5938 0 1.1367 0.21875 2.0078 0.65625 2.6094 0.4375 0.59375 1.0664 0.89062 1.8906 0.89062zm-2.5469-7.75c0.53125-0.69531 1.1133-1.207 1.75-1.5312 0.64453-0.33203 1.3828-0.5 2.2188-0.5 1.4688 0 2.6758 0.58984 3.625 1.7656 0.94531 1.168 1.4219 2.6719 1.4219 4.5156s-0.47656 3.3555-1.4219 4.5312c-0.94922 1.168-2.1562 1.75-3.625 1.75-0.83594 0-1.5742-0.16797-2.2188-0.5-0.63672-0.33203-1.2188-0.84766-1.75-1.5469v1.7344h-3.8125v-16.625h3.8125z"/>
  </symbol>
  <symbol id="f" overflow="visible">
   <path d="m0.26562-11.969h3.8281l3.2188 8.125 2.7344-8.125h3.8125l-5.0312 13.094c-0.5 1.332-1.0898 2.2656-1.7656 2.7969-0.66797 0.53125-1.5547 0.79688-2.6562 0.79688h-2.2188v-2.5h1.2031c0.64453 0 1.1133-0.10547 1.4062-0.3125 0.30078-0.21094 0.53125-0.57812 0.6875-1.1094l0.10938-0.34375z"/>
  </symbol>
  <symbol id="h" overflow="visible">
   <path d="m2.0156-15.953h4.1094v6.0781h6.0625v-6.0781h4.1094v15.953h-4.1094v-6.7656h-6.0625v6.7656h-4.1094z"/>
  </symbol>
  <symbol id="t" overflow="visible">
   <path d="m7.8438-8.875c0.86328 0 1.4844-0.16016 1.8594-0.48438 0.375-0.32031 0.5625-0.84766 0.5625-1.5781 0-0.72656-0.1875-1.25-0.5625-1.5625s-0.99609-0.46875-1.8594-0.46875h-1.7188v4.0938zm-1.7188 2.8438v6.0312h-4.1094v-15.953h6.2656c2.1016 0 3.6445 0.35547 4.625 1.0625 0.97656 0.71094 1.4688 1.8242 1.4688 3.3438 0 1.0547-0.25781 1.918-0.76562 2.5938-0.51172 0.67969-1.2773 1.1797-2.2969 1.5 0.5625 0.125 1.0625 0.41797 1.5 0.875 0.44531 0.44922 0.89844 1.1328 1.3594 2.0469l2.2344 4.5312h-4.375l-1.9531-3.9688c-0.38672-0.78906-0.78125-1.332-1.1875-1.625-0.40625-0.28906-0.94531-0.4375-1.6094-0.4375z"/>
  </symbol>
  <symbol id="s" overflow="visible">
   <path d="m1.8438-11.969h3.8125v11.969h-3.8125zm0-4.6562h3.8125v3.125h-3.8125z"/>
  </symbol>
  <symbol id="r" overflow="visible">
   <path d="m9.7031-16.625v2.5156h-2.1094c-0.54297 0-0.92188 0.10156-1.1406 0.29688-0.21094 0.19922-0.3125 0.53906-0.3125 1.0156v0.82812h3.2656v2.7344h-3.2656v9.2344h-3.8281v-9.2344h-1.8906v-2.7344h1.8906v-0.82812c0-1.3008 0.36328-2.2656 1.0938-2.8906 0.72656-0.625 1.8516-0.9375 3.375-0.9375z"/>
  </symbol>
  <symbol id="e" overflow="visible">
   <path d="m7.5312-9.5156c-0.84375 0-1.4922 0.30859-1.9375 0.92188-0.44922 0.60547-0.67188 1.4805-0.67188 2.625 0 1.1484 0.22266 2.0273 0.67188 2.6406 0.44531 0.60547 1.0938 0.90625 1.9375 0.90625 0.83203 0 1.4688-0.30078 1.9062-0.90625 0.44531-0.61328 0.67188-1.4922 0.67188-2.6406 0-1.1445-0.22656-2.0195-0.67188-2.625-0.4375-0.61328-1.0742-0.92188-1.9062-0.92188zm0-2.7344c2.0508 0 3.6562 0.55859 4.8125 1.6719 1.1641 1.1055 1.75 2.6406 1.75 4.6094s-0.58594 3.5117-1.75 4.625c-1.1562 1.1055-2.7617 1.6562-4.8125 1.6562-2.0625 0-3.6797-0.55078-4.8438-1.6562-1.168-1.1133-1.75-2.6562-1.75-4.625s0.58203-3.5039 1.75-4.6094c1.1641-1.1133 2.7812-1.6719 4.8438-1.6719z"/>
  </symbol>
  <symbol id="q" overflow="visible">
   <path d="m12.922-9.9688c0.48828-0.75 1.0625-1.3164 1.7188-1.7031 0.66406-0.38281 1.3984-0.57812 2.2031-0.57812 1.375 0 2.4219 0.42969 3.1406 1.2812 0.71875 0.84375 1.0781 2.0742 1.0781 3.6875v7.2812h-3.8438v-6.2344c0.007812-0.09375 0.015625-0.1875 0.015625-0.28125v-0.4375c0-0.84375-0.125-1.457-0.375-1.8438-0.25-0.38281-0.65234-0.57812-1.2031-0.57812-0.73047 0-1.293 0.30469-1.6875 0.90625-0.38672 0.59375-0.58984 1.4609-0.60938 2.5938v5.875h-3.8438v-6.2344c0-1.3203-0.11719-2.1758-0.34375-2.5625-0.23047-0.38281-0.63672-0.57812-1.2188-0.57812-0.73047 0-1.2969 0.30469-1.7031 0.90625-0.39844 0.60547-0.59375 1.4648-0.59375 2.5781v5.8906h-3.8438v-11.969h3.8438v1.75c0.46875-0.66406 1.0039-1.1719 1.6094-1.5156 0.61328-0.34375 1.2891-0.51562 2.0312-0.51562 0.82031 0 1.5508 0.19922 2.1875 0.59375 0.63281 0.39844 1.1133 0.96094 1.4375 1.6875z"/>
  </symbol>
  <symbol id="p" overflow="visible">
   <path d="m13.859-7.2812v7.2812h-3.8438v-5.5469c0-1.0508-0.027344-1.7695-0.078125-2.1562-0.042969-0.39453-0.12109-0.6875-0.23438-0.875-0.14844-0.25-0.35156-0.44141-0.60938-0.57812-0.25-0.14453-0.54297-0.21875-0.875-0.21875-0.79297 0-1.418 0.3125-1.875 0.9375-0.46094 0.61719-0.6875 1.4648-0.6875 2.5469v5.8906h-3.8125v-16.625h3.8125v6.4062c0.58203-0.69531 1.1953-1.207 1.8438-1.5312 0.64453-0.33203 1.3594-0.5 2.1406-0.5 1.3828 0 2.4297 0.42969 3.1406 1.2812 0.71875 0.84375 1.0781 2.0742 1.0781 3.6875z"/>
  </symbol>
  <symbol id="o" overflow="visible">
   <path d="m2.0156-15.953h4.5781l5.8125 10.938v-10.938h3.8906v15.953h-4.5938l-5.7969-10.938v10.938h-3.8906z"/>
  </symbol>
  <symbol id="n" overflow="visible">
   <path d="m1.7031-4.6562v-7.3125h3.8438v1.2031c0 0.64844-0.007813 1.4609-0.015625 2.4375v1.9688c0 0.96094 0.023438 1.6523 0.078125 2.0781 0.050781 0.41797 0.13281 0.72656 0.25 0.92188 0.15625 0.25 0.35938 0.44531 0.60938 0.57812 0.25781 0.13672 0.55078 0.20312 0.875 0.20312 0.80078 0 1.4258-0.30469 1.875-0.92188 0.45703-0.61328 0.6875-1.4688 0.6875-2.5625v-5.9062h3.8281v11.969h-3.8281v-1.7344c-0.57422 0.69922-1.1836 1.2148-1.8281 1.5469-0.64844 0.33203-1.3555 0.5-2.125 0.5-1.3867 0-2.4453-0.42188-3.1719-1.2656-0.71875-0.85156-1.0781-2.0859-1.0781-3.7031z"/>
  </symbol>
  <symbol id="m" overflow="visible">
   <path d="m13.859-7.2812v7.2812h-3.8438v-5.5781c0-1.0312-0.027344-1.7383-0.078125-2.125-0.042969-0.39453-0.12109-0.6875-0.23438-0.875-0.14844-0.25-0.35156-0.44141-0.60938-0.57812-0.25-0.14453-0.54297-0.21875-0.875-0.21875-0.79297 0-1.418 0.3125-1.875 0.9375-0.46094 0.61719-0.6875 1.4648-0.6875 2.5469v5.8906h-3.8125v-11.969h3.8125v1.75c0.58203-0.69531 1.1953-1.207 1.8438-1.5312 0.64453-0.33203 1.3594-0.5 2.1406-0.5 1.3828 0 2.4297 0.42969 3.1406 1.2812 0.71875 0.84375 1.0781 2.0742 1.0781 3.6875z"/>
  </symbol>
  <symbol id="l" overflow="visible">
   <path d="m2.0156-15.953h6.8125c2.0312 0 3.5859 0.45312 4.6719 1.3594 1.0938 0.89844 1.6406 2.1797 1.6406 3.8438 0 1.6797-0.54688 2.9688-1.6406 3.875-1.0859 0.89844-2.6406 1.3438-4.6719 1.3438h-2.7031v5.5312h-4.1094zm4.1094 2.9844v4.4531h2.2656c0.80078 0 1.4141-0.19141 1.8438-0.57812 0.4375-0.38281 0.65625-0.9375 0.65625-1.6562 0-0.70703-0.21875-1.2539-0.65625-1.6406-0.42969-0.38281-1.043-0.57812-1.8438-0.57812z"/>
  </symbol>
  <symbol id="k" overflow="visible">
   <path d="m1.8438-11.969h3.8125v11.75c0 1.6016-0.38672 2.8281-1.1562 3.6719-0.76172 0.84375-1.8711 1.2656-3.3281 1.2656h-1.8906v-2.5h0.65625c0.72656 0 1.2266-0.16797 1.5-0.5 0.26953-0.32422 0.40625-0.96875 0.40625-1.9375zm0-4.6562h3.8125v3.125h-3.8125z"/>
  </symbol>
  <symbol id="j" overflow="visible">
   <path d="m11.5-11.594v3.125c-0.52344-0.35156-1.043-0.61328-1.5625-0.78125-0.52344-0.17578-1.0625-0.26562-1.625-0.26562-1.0742 0-1.9062 0.3125-2.5 0.9375s-0.89062 1.4961-0.89062 2.6094c0 1.1172 0.29688 1.9844 0.89062 2.6094s1.4258 0.9375 2.5 0.9375c0.59375 0 1.1562-0.085937 1.6875-0.26562 0.53906-0.17578 1.0391-0.44141 1.5-0.79688v3.125c-0.59375 0.23047-1.1992 0.39453-1.8125 0.5-0.61719 0.11328-1.2344 0.17188-1.8594 0.17188-2.1562 0-3.8438-0.55078-5.0625-1.6562-1.2188-1.1133-1.8281-2.6562-1.8281-4.625s0.60938-3.5039 1.8281-4.6094c1.2188-1.1133 2.9062-1.6719 5.0625-1.6719 0.625 0 1.2383 0.058594 1.8438 0.17188 0.61328 0.10547 1.2227 0.26562 1.8281 0.48438z"/>
  </symbol>
 </defs>
 <g>
  <path d="m402.82 150.94c2.0234-2.4492 3.2344-5.4688 3.4648-8.6406 0-1.4844 0-2.9648-0.039062-4.4141-1.4062 3.5312-3.0703 6.957-4.9844 10.242 0.42188 0.98828 0.94141 1.9297 1.5586 2.8125z"/>
  <path d="m355.42 78.473c0.13281-0.27344 0.14844-0.58984 0.042969-0.875l-0.14063-0.33203c-0.070312-0.14062-0.125-0.28516-0.16406-0.4375-0.21875-1.0781-1-1.957-2.0469-2.3008-2.5859-0.38281-5.2109 0.34766-7.2305 2.0039-0.085937 0.066406-0.30469 0.20703-0.59375 0.39453-3.8203 2.5-4.5117 3.25-4.5586 4.1133-0.003906 0.38672 0.15625 0.75781 0.4375 1.0234 1.0469 0.89844 2.0117 1.793 2.9453 2.7227l-0.003906-0.003906c0.19922 0.20312 0.47266 0.3125 0.75391 0.3125 0.15234 0 0.30078-0.03125 0.4375-0.09375 0.13281-0.050781 0.25391-0.13281 0.35156-0.23438 0.52344-0.39453 1.0508-0.80078 1.5742-1.207 2.2109-1.9531 4.7578-3.4805 7.5195-4.5117 0.29687-0.085937 0.53906-0.29297 0.67578-0.57422z"/>
  <path d="m357.14 81.945c-0.30469-0.066406-0.62109-0.003906-0.875 0.17969-0.17969 0.13281-0.37109 0.24609-0.57812 0.33594-2.5781 0.95703-4.9453 2.4102-6.9609 4.2812l-0.91797 0.75781c-0.45703 0.36719-0.53906 1.0312-0.19141 1.5 1.0117 1.3398 1.8359 2.8125 2.4414 4.375 0.16016 0.42578 0.57031 0.71094 1.0273 0.71094 0.11719-0.003907 0.23047-0.019532 0.33984-0.054688 3.6797-1.2344 7.4688-2.0977 11.32-2.582 0.41797-0.050781 0.77344-0.33594 0.90625-0.73828 0.13281-0.40234 0.023438-0.84375-0.28125-1.1367-2.1719-2.082-4.0312-4.4727-5.5117-7.0938-0.15234-0.27344-0.41406-0.46875-0.71875-0.53516z"/>
  <path d="m406.78 164.86c-0.27734-0.77344-0.625-1.5195-1.0352-2.2305-0.24609-0.42578-0.74219-0.63281-1.2148-0.50781-2.5469 0.85547-4.7656 2.4727-6.3555 4.6367-0.65234 0.72266-1.3125 1.457-2.0352 2.1289h0.003906c-0.41406 0.38281-0.46875 1.0195-0.12891 1.4688 0.48438 0.63281 0.9375 1.2734 1.3867 1.9062 0.18359 0.25391 0.47266 0.41406 0.78516 0.4375h0.10938c0.27734 0 0.54297-0.10547 0.74609-0.29688 0.90625-0.78906 1.8789-1.4961 2.9062-2.1172 0.41016-0.26562 0.8125-0.52344 1.1797-0.77734v-0.003907c1.1016-0.74219 2.2891-1.3555 3.5352-1.8203 0.54688-0.19531 0.84375-0.78906 0.66797-1.3438-0.12109-0.41016-0.27734-0.79688-0.4375-1.1953z"/>
  <path d="m337.31 77.227c3.1953-3.625 7.4609-6.1445 12.18-7.1953 0.039062-0.074219 0.039062-0.1875 0.11328-0.26172 6.125-8.6055 14.234-28.777 1.7891-36.656v-0.003906c-9.1562-5.7148-20.641-6.2148-30.262-1.3125-11.422 6.207-20.785 24.863-8.832 35.789 6.6523 6.5195 15.703 10.008 25.012 9.6406zm3.2344-4.875c-1.5234 1.8672-7.3125 0.76172-9.4023 0.76172-2.0898 0-3.2383-2.7773-3.5781-4.4141 3.4414-1.0977 7.1016-1.332 10.656-0.67969 2.7773 0.52734 4.4492 1.7852 2.3203 4.3359zm-8.1445-21.125h-0.003906c2 0.17188 3.9609 0.63281 5.8242 1.3711 3.4648 1.2188 1.9805 6.7383-1.5234 5.5195-1.3711-0.59375-2.8164-0.99219-4.3008-1.1797-3.6953-0.15625-3.6953-5.8633-0.003907-5.7109zm-4.4609 8.2734c3.9805 0.33984 7.9844 0.16016 11.918-0.53516 1.5-0.35156 3.0117 0.54297 3.4219 2.0273 0.41016 1.4883-0.42969 3.0312-1.8984 3.4961-4.4297 0.83203-8.9492 1.0742-13.441 0.72266-1.5352-0.0625-2.7461-1.3203-2.7461-2.8555 0-1.5352 1.2109-2.7969 2.7461-2.8555z"/>
  <path d="m398.81 152.86c-0.20703-0.29688-0.54297-0.46875-0.90234-0.46875-0.36328 0-0.69922 0.18359-0.90234 0.48438-2.1055 3.1562-4.4609 6.3281-7 9.4297-0.37109 0.44922-0.32422 1.1133 0.10938 1.5039 0.77344 0.70312 1.5469 1.4727 2.3242 2.3281 0.20703 0.22656 0.50391 0.35547 0.80859 0.35156 0.26562 0.003906 0.51953-0.09375 0.71875-0.26953 0.98047-0.89844 1.8906-1.8633 2.7305-2.8945 0.72656-0.89453 1.5156-1.7383 2.3516-2.5312 0.80859-0.71094 1.7461-1.2539 2.7617-1.6055 0.32031-0.15625 0.54688-0.45312 0.61719-0.80078 0.070312-0.36719-0.019532-0.74609-0.24609-1.043-1.1523-1.457-2.3086-2.9531-3.3711-4.4844z"/>
  <path d="m409.33 159.8c2.6094-1.2891 4.8203-3.2656 6.3945-5.7109 1.5781-2.4453 2.457-5.2734 2.5547-8.1836 0.19141-5.7891-0.83594-12.715-6.8906-14.352 0.80078 4.1367 0.98047 8.3711 0.53125 12.562-0.89844 4.2305-2.7344 8.207-5.3672 11.637-0.039062 0.074219-0.074219 0.074219-0.11328 0.11328 0.4375 0.49609 0.80078 0.98828 1.1797 1.4844 1.0352 0.36719 1.7227 1.3516 1.7109 2.4492z"/>
  <path d="m190.9 341.11c-3.2969 0.54297-6.4922 1.5742-9.4805 3.0625 6.8008-0.14453 13.566-1.0273 20.176-2.625-3.4844-0.96484-7.1445-1.1172-10.695-0.4375z"/>
  <path d="m231.29 300.61c-5.1641 0.40234-10.293 1.1797-15.344 2.3242-3.582 0.21875-7.1445 0.70312-10.656 1.4492-3.5781 1.2148-1.3711 1.4844-2.1289 3.6172h-0.003906c-0.23047 0.60938-0.37891 1.25-0.4375 1.9023 4.4531-1.1406 8.9883-1.9297 13.562-2.3633 4.6016 0 9.0547-0.30078 13.664-0.60938 0.46875-2.0898 0.88281-4.2227 1.3438-6.3203z"/>
  <path d="m245.68 237.07c1.5977-4.6406 3.3867-9.0938 5.2891-13.562-2.2422 0.52344-4.4531 1.1719-6.625 1.9375-3.0625 1.1797-1.5977 5.5195-0.57031 8.0703 0.57422 1.2148 1.2109 2.4023 1.9062 3.5547z"/>
  <path d="m204.07 315.38c1.2305 1.957 2.0312 4.1484 2.3594 6.4336 0.37891 4.4531 0.57422 12.105 0.60937 15.723 0.19141 0.074219 0.34375 0.15234 0.53516 0.22656h-0.003907c0.22266 0.11719 0.42969 0.26562 0.60938 0.4375 9.4102-6.0195 16.559-14.988 20.332-25.5-4.0742 0.26172-8.1094 0.53125-12.219 0.53125v-0.003907c-4.1328 0.34766-8.2227 1.0664-12.223 2.1523z"/>
  <path d="m404.96 184.19c-0.35547 0.46484-0.27734 1.1328 0.17578 1.5039 1.2422 1.1211 2.8164 1.7969 4.4805 1.9258 0.46484 0.027343 0.875 0.042968 1.2461 0.042968 1.8867 0 2.5781-0.4375 3.0977-2.1016v0.003906c0.16797-0.58594 0.39453-1.1523 0.67969-1.6914 0.55469-1.0508 0.28906-2.5664-0.875-4.9102v0.003906c-0.19922-0.40625-0.62891-0.64453-1.0781-0.60938-3.2891 0.75-6.1016 2.875-7.7266 5.832z"/>
  <path d="m153.67 297.57c-0.40234 0.26562-0.82031 0.50781-1.2578 0.72266-7.0703 2.668-12.922 7.8359-16.445 14.523-2.0898 4.9102-2.0156 20.938 1.8672 24.477h0.003907c11.945 11.82 29.184 16.566 45.5 12.527-14.844 0.60938-29.008-3.0117-38.027-17.398-2.4062-4.0977-3.4805-8.8438-3.0703-13.574 0.41016-4.7344 2.2812-9.2227 5.3516-12.848 1.9297-2.7227 4.1758-5.5391 6.0781-8.4297z"/>
  <path d="m240.8 254.85c-6.9492 1.9961-14.125 3.082-21.355 3.2344-3.1055 0.078124-6.1914 0.53906-9.1875 1.375 0.074219 5.2148 0.49609 7.875 6.2773 7.4375 3.2344-0.41797 6.4023-1.2227 9.4414-2.3984 4.5312-1.4844 8.9102-1.6367 13.402-3.125 0.50781-2.1445 0.96484-4.3516 1.4219-6.5234z"/>
  <path d="m235.66 279.63c0.80078-3.9961 1.6016-7.9531 2.4375-11.953-3.5391 0.83984-7 1.1797-10.582 2.3633h-0.003906c-2.875 1.0078-5.8281 1.7812-8.8281 2.3164-0.32031 1.6953-0.41016 3.4258-0.26562 5.1406 0.15234 3.0625 0.60938 3.4258 3.5781 3.4258 4.2227 0.30078 8.4688-0.097656 12.562-1.1797 0.35547-0.10938 0.73047-0.14844 1.1016-0.11328z"/>
  <path d="m421.7 462.88c8.832 0.45703 17.688 0.26562 26.492-0.57422 4.5312-0.11328 9.0625-0.26562 13.629-0.37891 3.1992-0.074219 8.6055 1.2188 11.535-0.26562 1.75-0.875 1.0234-1.3125 0.98828-3.2734h0.003906c-9.375-0.51953-18.773-0.39062-28.133 0.37891-8.1094 0.078125-16.293 0.53516-24.402 0.98828-0.035156 1.0469-0.11328 2.1133-0.11328 3.125z"/>
  <path d="m318.12 298.09v2.5508c19.789 0.50391 39.594-0.15625 59.309-1.9766 8.3359-0.76172 16.445-3.0625 24.746-3.8047 8.375-0.72266 17.242-0.039062 25.469-0.98828 3.8398-4.8359 1.5586-7.3906-6.7422-7.5781-1.1367 0.50391-2.3398 0.82422-3.5742 0.94922-4.6875 0-6.8906 1.1797-10.852 1.2617v-0.003906c-11.77 0.99609-23.473 2.6992-35.039 5.0977-17.641 2.4727-35.449 3.5273-53.258 3.1641-0.019532 0.45312-0.019532 0.91406-0.058594 1.3281z"/>
  <path d="m332.6 291.16c0.054688 0.55859 0.52734 0.98438 1.0898 0.98438 10.648 0.027344 21.289-0.71484 31.832-2.2188 3.7852-0.60938 7.6133-1.3594 11.664-2.1523 3.7617-0.73438 7.5781-1.4844 11.375-2.1133 0.57812-0.09375 0.97656-0.63281 0.90625-1.2148-0.09375-0.57422-0.60156-0.98437-1.1836-0.95312l-5 0.4375c-4.375 0.36719-8.7031 0.73828-13.023 1.207l-2.9414 0.31641c-11.676 1.2422-22.703 2.4141-33.844 4.5312-0.55078 0.10547-0.92969 0.61719-0.875 1.1758z"/>
  <path d="m349.53 283.58h0.0625l1.3633-0.074219c7.4688-0.16406 14.902-1.0664 22.191-2.6992 6.4961-1.3945 13.117-2.1172 19.762-2.1602 1.7031-0.074219 3.375-0.14844 4.9922-0.24219 0.49609-0.03125 0.91016-0.39453 1.0039-0.88672 0.09375-0.49219-0.16016-0.98438-0.60938-1.1953-2.9023-1.3125-10.938-0.90234-24.602 1.3125l-0.72266 0.11719c-3.5156 0.45312-7.0586 0.69141-10.605 0.71875-12.918 0.51953-13.676 2.1367-14 2.8281-0.25391 0.55078-0.18359 1.1992 0.1875 1.6836 0.1875 0.36719 0.5625 0.60156 0.97656 0.59766z"/>
  <path d="m323.79 399.88c2.7383 6.0625 5.8906 11.926 9.4375 17.551 11.812 4.6797 27.867 0 40.25 0.375v0.003907c14.691-0.26172 29.316-1.9961 43.664-5.1758 5.1406-0.91016 11.812-3.8789 17.434-3.5781-0.875-17.207-1.9023-35.176-4.1484-52.035-2.5156-18.695 1.3125-39.094-2.6641-57.598-1.0195 0.070312-2.043 0.070312-3.0625 0-12.051-0.57031-24.121 0.71484-35.781 3.8047-21.66 5.8242-46.332 4.1484-68.789 3.2734 6.5859 12.906 6.2422 31.5 6.2422 45.148 0.60938 15.492 0.15234 31.012-1.375 46.441-0.058594 0.76562-0.51562 1.4453-1.207 1.7891z"/>
  <path d="m364.79 438.34c0.68359 1.1133 1.2109 2.3164 1.5625 3.5781 1.2539 4.1133 11.914 1.4102 15.379 0.875 4.6797-0.68359 14.465-0.57031 17.938-4.4883h-0.003906c-11.613 0.71484-23.262 0.72656-34.875 0.035157z"/>
  <path d="m488.28 238.79c-0.375-5.5195-2.625-7.3867-6.7734-5.6367-1.3711 0.1875-2.7773 0.33984-4.1875 0.4375-1.293 0.5625-2.668 0.91016-4.0703 1.0273-6.2773 0.082031-12.457 1.5625-18.082 4.3398-0.078125 1.7109-0.19141 3.4648-0.38672 5.1758 5.0664-0.72266 10.168-0.875 15.23-1.7891 5.6328-1.0039 13.285-0.70312 18.27-3.5547z"/>
  <path d="m435.03 423.76c4.5273-1.3125 0.79688-9.9375-3.2383-8.6797-17.363 5.5703-35.477 8.4609-53.711 8.5664-12.031-0.33984-27.336 3.1992-39.812 1.0625 1.8281 2.4766 3.7656 4.875 5.75 7.2344 21.281 0.30078 43.629 3.7305 64.562-0.22656 8.9766-1.7148 17.656-5.4453 26.449-7.957z"/>
  <path d="m311.94 294.75c-2.7227-0.03125-5.4414 0.22266-8.1094 0.75781-0.039063 0-0.074219 0.074219-0.11328 0.074219-0.49609 2.1289-0.91406 4.3398-1.3125 6.4297l-0.003906 0.003906c2.082-0.76953 4.293-1.1328 6.5117-1.0625 1.1016 0.039063 2.1875 0.57031 3.3086 0.57031l0.59375-0.003907c-0.11328 0-0.19141-0.41406-0.19141-0.41406-0.10938-0.57422-0.14844-1.5625-0.1875-2.1289-0.023438-0.72656 0.4375-4.0391-0.49609-4.2266z"/>
  <path d="m300.91 317.96c0.34375 17.586 6.4688 37.188 11.992 53.812-0.49219-3.1602-1.0234-6.3555-1.5977-9.5898-0.39062-5.3398-1.1523-10.645-2.2852-15.875-4.0391-11.688-0.23047-35.062 0.64453-39.969-0.074219 0-0.10938-0.039062-0.1875-0.039062v-0.003907c-2.3359-0.03125-4.6445 0.48828-6.7383 1.5234-0.41406 0.17969-0.86328 0.26953-1.3125 0.26953-0.40625 3.2734-0.57813 6.5742-0.51563 9.8711z"/>
  <path d="m389.65 239.93c-2.7031 1.9414-13.668 3.2344-17.703 3.9375-5.0273 0.45312-10.016 1.2812-14.922 2.4766-5.5469 1.4727-11.301 2-17.02 1.5625-7.4492 0.23047-14.852 1.2773-22.078 3.1172-0.35156 0.058593-0.71094 0.058593-1.0664 0-2.2461 4.5273-4.3398 9.1875-6.3555 13.816-0.79687 1.8945-1.457 3.8398-1.9766 5.8281 11-3.0625 22.797-4.418 33.879-6.7773 12.602-2.7031 25.77-0.80078 38.5-4.1133 11.777-2.9062 23.75-4.9531 35.82-6.125 6.3164-0.68359 12.715-1.9766 19.035-2.3594 6.1641-0.33984 12.371 2.7773 12.371-5.5625 0-7.5742 3.2344-15.531-6.5156-12.48-5.1367 1.5977-10.062 1.9766-15.227 3.1602-10.895 2.4922-27.27-3.2578-36.742 3.5195z"/>
  <path d="m453.79 251.91c2.0742-0.074218 4.1836 0.046876 6.2227 0.15234l1.4609 0.070313h0.050782c0.57422 0 1.0508-0.44531 1.0898-1.0195 0.023438-0.37891 0.023438-0.75781 0-1.1328v-0.46875l0.074219-0.23438v-0.003906c0.14453-0.35938 0.085938-0.77344-0.15234-1.0781-0.23828-0.30859-0.62109-0.46484-1.0078-0.41406-2.0312 0.26562-4.0586 0.53906-6.043 0.875-0.36328 0.046875-0.73438-0.011718-1.0703-0.16406-0.30469-0.12109-0.65234-0.097656-0.9375 0.070312-0.28516 0.16406-0.48437 0.44531-0.53906 0.77344l-0.22656 1.2773c-0.066407 0.32812 0.023437 0.66797 0.23828 0.92578 0.21875 0.25391 0.53906 0.39844 0.875 0.38672z"/>
  <path d="m159.84 275.83c2.2969 4.543 3.4844 9.5625 3.4648 14.656 2.625-0.49609 5.3281-0.80078 7.5742-1.2188 6.2031-1.1016 14.086-0.33984 19.91-2.5469 4.1875-1.5625 3.8047-16.785-2.0156-16.625-2.8945 0.078125-5.75 0.039062-8.6406 0.039062v-0.003906c-7.1758-0.12891-14.234 1.8516-20.293 5.6992z"/>
  <path d="m417.86 472.68c2.8945-0.11328 5.6875-0.875 8.6055-1.0273 2.4727-0.11328 5.0234 0.4375 7.5742 0.49609v-0.003906c5.6172-0.19531 11.223-0.67969 16.793-1.4492 8.3125-0.83594 16.672 0.078125 24.895-0.53125-1.4102-0.4375-1.0625-2.3633-1.8633-3.3906l-0.003906 0.003907c-2.1641 0.47266-4.3711 0.71484-6.5898 0.72656-2.7773 0.035156-5.5938 0.074219-8.375 0.15234-5.6875 0.10938-11.344 0.22656-16.977 0.37891-7.5781 0.1875-15.156 0.41406-22.688 0.68359h0.003907c-0.39062 0.41016-0.83203 0.76953-1.3125 1.0664-2.5352 1.4141-5.2695 2.4258-8.1133 3.0078 2.6875 0.039063 5.3477 0.039063 8.0508-0.11328z"/>
  <path d="m409.59 171.79-0.23047-0.4375c-0.23438-0.47656-0.78125-0.71484-1.2891-0.55859-1.3359 0.50781-2.5742 1.2461-3.6484 2.1875l-0.57422 0.4375c-0.28906 0.20703-0.59375 0.39844-0.90625 0.56641-1.0742 0.5-1.957 1.3359-2.5156 2.3828l-0.1875 0.24219v-0.003906c-0.22656 0.30078-0.28516 0.69922-0.14844 1.0508 0.35547 0.9375 0.78125 1.957 1.3125 3.0195 0.16797 0.33984 0.49609 0.57031 0.875 0.61328h0.12109c0.33984 0.003906 0.66406-0.14844 0.875-0.41797 0.91016-1.2227 1.9336-2.3516 3.0625-3.3711 1.1641-0.93359 2.4805-1.6562 3.8945-2.1367 0.31641-0.10938 0.5625-0.35547 0.67188-0.67188 0.10937-0.31641 0.070312-0.66406-0.11328-0.94531-0.54688-0.83594-0.98438-1.5195-1.1992-1.957z"/>
  <path d="m415.42 462.93c-0.30469-4.4883 0.30078-9.1875-0.30469-13.59-0.80078-6.1641-9.7812 0.26562-11.992 0.875-7.5781 2.1875-16.371 0.72656-24.172 0.72656v0.003906c-5.8945 0.28906-11.801-0.042968-17.625-0.98828 5.1016 4.6406 10.43 9.043 15.984 13.207 2.0703 1.3281 3.6914 3.2539 4.6484 5.5195 6.0156-0.078126 33.844-0.38281 33.461-5.7539z"/>
  <path d="m242.59 465.86c-0.72266-6.3906 1.6016-10.578-4.875-15.75-3.5234-1.9727-7.4062-3.2305-11.418-3.6914-9.2891-2.3594-12.371-7.4375-16.746-15.75-2.3359-3.6992-4.2539-7.6445-5.7148-11.766-1.1797 0.48828-2.4219 0.8125-3.6914 0.95312 2.2852 10.125 7.8047 21.734 16.293 26.418 5.6367 3.0625 11.535 2.625 17.438 4.5703 12.75 4.2617-3.4648 19.641 5.8984 25.961 2.8555-1.1406 5.7891-2.3633 8.6016-3.7305-3.0781-1.2031-5.2812-3.9531-5.7852-7.2148z"/>
  <path d="m247.58 452.31c3.8438 0.22656 7.6875 0.53516 11.57 0.53516 4.3984 0.38672 8.8203 0.33594 13.207-0.15234 2.0273-3.4453 3.7109-7.0781 5.0273-10.852-11.531 1.9414-23.188 3.5391-34.867 4.6055 2.1953 1.4531 3.9453 3.4805 5.0625 5.8633z"/>
  <path d="m248.84 458.09c0.039062 5.2148-1.9023 9.3281 6.5117 11.23 4.832-2.793 9.168-6.3672 12.828-10.582-2.5117 0-5.0625-0.1875-7.5-0.1875-3.9609-0.003907-7.8789-0.26953-11.84-0.46094z"/>
  <path d="m151.27 248.94c3.5-0.33984 7.3867-1.1406 11.266-1.8281 0.3125-3.3164 0.16406-6.6562-0.4375-9.9336-0.4375-6.2461-13.055-4.1133-17.473-3.8516-4.4922 0.30469-13.629 0.11719-13.207 6.3594v0.003906c0.125 3.5078 0.78906 6.9766 1.9766 10.277 6.0703-0.32812 12.168-0.48047 17.875-1.0273z"/>
  <path d="m193.07 377.47c1.293 0.37891 2.543 0.88672 3.7305 1.5195 0.52734 0.35547 1.0352 0.73438 1.5234 1.1406 0.074219-1.1406-0.11328-2.5117-0.039063-3.3867v0.003906c0.074219-1.6289 0.44922-3.2305 1.1016-4.7227 0.75-1.2383 1.5859-2.4219 2.5117-3.5391-3.6289 2.0391-6.9922 4.5195-10.012 7.3867 0.36328 0.24609 0.65234 0.58984 0.83984 0.98828 0.11328 0.1875 0.21094 0.41797 0.34375 0.60938z"/>
  <path d="m251.84 366.7c-8.6914-2.8945-17.848-4.125-26.992-3.6172 0.74609 6.7812 0.70703 13.629-0.11328 20.402-0.84375 4.5352-2.1445 8.9727-3.8789 13.25 2.0352 2.8086 2.1094 6.5898 0.1875 9.4805-1.0469 1.5703-2.5859 2.7461-4.375 3.3477l-0.65234 0.23047c0.46094 6.3945 0.57422 17.355 0.57422 17.355 0 0.11328-0.039062 0.19141-0.039062 0.26562 13.367-0.15234 23.035-1.2148 34.562-1.2148 10.051 0.41406 20.105-0.64844 29.844-3.1602 0.78125-11.156-1.5234-22.316-6.6562-32.254-5.1367-9.9375-12.906-18.27-22.461-24.086z"/>
  <path d="m192.23 403.47c0.57422-0.22656 1.0664-0.53516 1.6016-0.80078h-0.003906c0.89062-4.5352 0.52344-9.2266-1.0664-13.562-1.0273-2.3242-2.2852-4.4922-3.5-6.7031-0.76172-0.22656-1.5234-0.49609-2.2852-0.72266h0.003907c-0.13281-0.058594-0.26172-0.12109-0.38672-0.19141-2.5938 3.1016-4.8867 6.4414-6.8516 9.9727v0.039062c1.7422 1.2734 3.1055 2.9961 3.9375 4.9883 0.86328 2.6133 1.0469 5.4023 0.53516 8.1055-0.37891 2.7812-1.6719 5.5938 1.9414 6.168v0.003906c0.64453 0.085937 1.293 0.13672 1.9414 0.15234-0.66406-3.1641 1.0938-6.3398 4.1328-7.4492z"/>
  <path d="m232.01 461.06c-0.49609 0.43359-1.1328 0.66406-1.7891 0.64844-13.742-0.074219-30.949-0.60938-43.777-7.3867 1.7891 2.6641 3.6523 5.3672 5.6875 8.1875 6.3945 8.9453 26.344 16.785 39.781 16.062-2.9688-2.5859-3.8438-5.7109-1.5234-11.418v-0.003906c0.85156-1.9336 1.3984-3.9883 1.6211-6.0898z"/>
  <path d="m595.06 474.73c-10.852 0-21.582 0-32.434 0.26562 0 1.6719-0.039062 3.3867-0.074218 5.0625 5.0977-0.26562 10.062-0.95312 15.152-1.5234v0.003906c2.3359-0.23047 4.6875-0.30469 7.0391-0.23047 3.0078 0.14453 6.0195 0.12109 9.0234-0.078125 2.2227-0.30469 4.4844-0.03125 6.5625 0.80078 1.3672-0.9375 2.8203-1.7383 4.3398-2.3984-1.9922-2.8555-6.4883-1.9023-9.6094-1.9023z"/>
  <path d="m577.71 484.25c-5.1016 0.64844-10.168 1.3125-15.344 1.5234v1.3125c0 0.76172 0.039063 1.6367 0.11328 2.5508 6.8516-0.078124 13.707-0.53516 20.598-0.61328 3.3867-0.035156 6.6992-0.64844 10.062-0.64844 1.9609 0.54297 4.0547-0.074219 5.4062-1.5938-0.64844-1.0273-1.3125-2.0547-1.9766-3.0625-6.2617 0.53125-12.617-0.27734-18.859 0.53125z"/>
  <path d="m603.89 483.56c0.26172 1.0586 0.37891 2.1484 0.34375 3.2383-0.007812 0.41016-0.058593 0.82031-0.15234 1.2227 1.7578-0.95703 2.8125-2.8398 2.6992-4.8359v-1.1055c-0.92969 0.55469-1.8945 1.0508-2.8906 1.4805z"/>
  <path d="m353.87 467.04c-11.727-8.0312-19.984-21.086-28.59-32.09-7.4922-8.625-13.758-18.246-18.617-28.586-8.8281-21.438-12.18-42.371-16.98-64.793-3.8047-17.621-6.1641-31.441-2.1875-49.223 8.0156-35.938 25.32-68.348 53.758-92.199 23.188-19.492 98.078-76.059 41.203-101.45-22.23-9.8867-49.676 6.7383-65.703 22.004-14.195 13.492-26.125 29.188-35.328 46.48-9.7031 18.309-17.281 38.641-25.922 57.559-8.7188 19.223-12.453 42.332-16.219 63.039-2.7422 15.035-3.9375 32.93-15.344 44.465v-0.003906c-5.418 5.4023-11.555 10.039-18.234 13.781-0.34375 0.38672-0.80469 0.65234-1.3125 0.76172-0.039063 0-0.074219 0.039063-0.11328 0.039063-5.4844 2.9375-11.176 5.4688-17.027 7.5742-11.789 4.1484-24.68 3.9219-36.312-0.64453-8.3125-3.7695-21.547-11.609-21.773-22.312-0.23047-9.625-1.3359-23.371 7.7266-29.957 4.6055-3.3008 9.4297-6.2891 14.438-8.9453-0.14844 0.078126-0.14844-14.809-0.074219-17.816-6.2031-2.8164-21 0.4375-26.301 1.1016-7.6914 1.0273-30.949-1.9375-30.762 10.469 0.30859 19.762 7.4766 36.145 15.125 54.082 5.4453 12.754 14.277 25.469 15.312 39.812 0.93359 7.8672 0.074219 15.844-2.5078 23.332-0.875 2.1445-2 4.1758-3.3516 6.0547 0.30469-0.039063 0.57422-0.11328 0.875-0.15234 7.8047-0.72266 17.742-1.9023 24.285 3.6172 12.832 10.891 17.82 34.949 7.5781 49.145-0.039062 0.078125-0.074218 0.078125-0.11328 0.15234-0.11328 0.15234-0.15234 0.30469-0.30078 0.4375h-0.003906c-4.4883 4.293-10.145 7.168-16.258 8.2617 9.2148 1.2148 19.223-0.26562 28.059 3.7266 12.867 5.7891 23.984 21.664 38.258 22.461 16.859 0.98828 33.496-2.5508 50.312-1.7891 17.781 0.83984 35.555 1.9023 53.375 2.2461 15.043 0.30469 29.812-0.41406 44.809-1.4453 8.2188-0.57422 19.453-0.76172 18.812-12.527-0.51953-9.5078-7.957-12.082-14.59-16.668zm-20.785-348.51c3.9336-6.1367 9.2852-11.238 15.605-14.875 8.7031-3.8281 18.484-4.4453 27.602-1.75 16.066 5.4023 18.348 24.324 14.043 38.602-5.4805 17.242-24.473 24.246-40.957 18.496-9.1016-3.1602-12.98-9.7422-15.953-18.496-2.0156-5.9883-4.4219-16.258-0.33984-21.977zm-45.684 307.51c-0.51953 10.723-4.0547 21.082-10.203 29.883-0.13281 0.55078-0.45312 1.0352-0.91016 1.3711-8.8047 11.82-21.219 20.453-35.367 24.594-0.67188 0.59766-1.5977 0.82812-2.4727 0.60547-14.668 3.4102-30.09 0.29688-42.293-8.5273-25.66-18.082-38.375-54.688-22.922-82.531 7-12.602 19.457-29.086 34.605-32.129 13.969-2.8164 32.625-3.3906 46.023 2.0547 0.074219 0.035157 0.11328 0.074219 0.1875 0.11328 0.1875 0.074219 0.33984 0.074219 0.49609 0.15234 20.52 11.645 33.156 36.926 32.891 61.211l0.003906 0.003906c0.51953 1.0039 0.50781 2.207-0.039062 3.1992z"/>
  <path d="m556.88 474.43c-0.1875-0.25391-0.33594-0.53516-0.4375-0.83594-3.8789-13.895-40.082-9.0195-48.457-7.6914-0.20312 0.40234-0.44922 0.78516-0.72656 1.1406 3.4648-0.15234 6.8906-0.22656 10.355-0.22656 9.4805 0 35.102-5.3672 35.707 10.543 0.26563 7.8047 2.4375 16.867 3.1992 25.621 0.37891-4.6797 0.11328-9.625 0.11328-15.152 0.019532-3.4648 0.62891-8.5664 0.24609-13.398z"/>
  <path d="m547.79 481.73c-0.53516-14.047-20.633-9.2148-30.152-9.2148-8.8672 0-17.816 0.64844-26.645 0.64844-8.5664 0-17.062 2.0156-25.547 1.8281v0.003906c-10.918-0.51172-21.863 0.089844-32.66 1.7891-16.141 2.7773-33.117 0.79688-48.344 0.79688v-0.003907c-0.19531-0.011719-0.39062-0.050781-0.57422-0.11328 1.1797 4 3.8047 9.7852 2.3984 12.688-0.63281 1.2734-1.457 2.4414-2.4375 3.4648 0.53516-0.15234 1.0664-0.34375 1.5625-0.53516v0.003906c5.7227-2.4414 12.035-3.1562 18.16-2.0586 13.324 3.7344 25.387 11.012 34.906 21.055 5.6875 5.6875 13.438 15.07 21.773 14.957 8.5664-0.14844 17.094 0.6875 25.695 0.6875 16.562 0.46875 33.121-1.0117 49.336-4.418 2.9375-0.94922 5.957-1.5977 9.0234-1.9375 6.0156-0.26562 6.6641-12.297 6.3164-16.598-0.66016-7.6641-2.5508-15.43-2.8125-23.043zm-9.5586 26.723c-3.7969 2.6914-8.5625 3.6328-13.094 2.5898-4.2852-1.4297-7.8203-4.5156-9.8242-8.5664-2.9648-6.625 1.5234-12.293 7.5039-14.844 7.1172-3.0117 17.621 0.37891 19.906 8.375 1.7461 4.6875-0.15234 9.9531-4.4922 12.445z"/>
  <path d="m365.29 461.12c-11.328-9.1406-21.488-19.637-30.262-31.254-9.9062-12.738-17.66-27.012-22.953-42.254-2.5117-8.1445-6.4688-16.141-8.4531-24.398-1.8281-7.7695-2.4375-15.801-4.7617-23.488-8.375-28-0.94922-58.551 9.8594-84.777l0.003906-0.003906c4.3945-11.137 10.414-21.566 17.852-30.949 0.49609-0.60938 0.94922-1.2188 1.4492-1.8672-9.7734 10.121-17.516 22.023-22.805 35.059-8.4492 21.496-18.5 44.598-13.324 68.086 4.4922 20.25 6.3945 41 13.125 60.68 7.918 23.105 20.52 41.074 35.875 59.84v0.003906c6.0117 8.3438 13.684 15.355 22.535 20.59 3.4531 1.4727 6.4766 3.7891 8.793 6.7383 3.2305 6.3945 3.4922 13.879 0.72266 20.484 2-0.69141 3.8867-1.6797 5.5977-2.9297 2.9297-2.2109-0.30469-10.938-0.6875-13.668-1.0664-8.0742-6.6289-11.078-12.566-15.891z"/>
  <path d="m522.96 493.94c-1.4766 0.70703-2.5156 2.0938-2.7773 3.7109-0.26172 1.6211 0.28516 3.2617 1.4648 4.3984 1.9688 2.1094 4.5352 3.5703 7.3516 4.1875 4.4922-1.0664 11.762-3.5781 7.6875-9.7461-3.1133-4.4531-9.2227-5.5859-13.727-2.5508z"/>
  <path d="m217.24 433.01c1.9336 3.125 4.7188 5.6328 8.0312 7.2305 2.3242 0.57422 5.6875 0.76562 8.6406 1.4141 0.23047-0.14062 0.49219-0.22266 0.76172-0.23047 14.73-1.0625 29.848-3.0625 44.273-5.5938 0.074219-0.035156 0.15234 0 0.22656 0v-0.003906c0.53516-2.2109 0.95312-4.4453 1.2578-6.6992-8.1094 2.0508-16.457 2.9883-24.82 2.7812-10.734 0-30 0.71875-38.371 1.1016z"/>
  <path d="m138.69 439.33c-1.6758-8.4141-9.1016-13.402-17.016-15.75-6.3945-1.9414-13.973 1.8633-19.496 5.3281-5.5938 11.531-2.625 27.637 10.09 33.152 0.72656 0.30469 1.4102 0.57422 2.0938 0.83984l0.003906 0.003906c6.5586-0.45703 13.016-1.8945 19.148-4.2656 8.7773-3.3945 6.5664-12.27 5.1758-19.309zm-11.375 10.887c-2.5039 2.8516-6.5117 3.8555-10.062 2.5156-4.4062-2.1992-6.6289-7.2188-5.293-11.957 0.99219-6.3945 9.9375-8.2188 14.355-4.2227 0.125 0.15625 0.23828 0.32031 0.33984 0.49609 0.039062 0.035156 0.074218 0.035156 0.074218 0.074219 0.078126 0.078125 0.11328 0.1875 0.19141 0.26562s0.074219 0.11328 0.11328 0.19141c3.0312 3.6289 3.1484 8.875 0.28125 12.637z"/>
  <path d="m118.76 440.47c-1.4102 0.76172-1.4102 1.9375-1.3125 3.4648v0.003906c0 0.62109 0.10156 1.2383 0.30859 1.8242 0.15234 0.37891-0.035156 0.039062 0.30469 0.57422 0.035156 0.035156 0.22656 0.33984 0.26562 0.37891h0.003906c0.13281 0.14844 0.27734 0.28906 0.4375 0.41406 0.074219 0.039063 0.26172 0.15234 0.33984 0.19141 0.078125 0.039063 0.035156 0.039063 0.074219 0.074219 0.039062 0.035157 0.11328 0.039063 0.26562 0.078125l0.4375 0.11328v0.003906c0.30469-0.0625 0.61719-0.0625 0.91797 0h0.035157c0.30469-0.074219 0.91406-0.26562 0.98828-0.26562l0.003906-0.003907c0.24219-0.097656 0.47266-0.22656 0.68359-0.37891 0.074219-0.039062 0.074219-0.039062 0.11328-0.039062l0.039062-0.035156c0.1875-0.19141 0.37891-0.37891 0.53516-0.57422 0.074219-0.078125 0.1875-0.26562 0.22656-0.30078 0.33203-0.64453 0.45312-1.3789 0.34375-2.0977-0.29297-1.207-0.82422-2.3477-1.5625-3.3477-1.0625-0.60547-2.3594-0.63281-3.4492-0.078125z"/>
  <path d="m348.04 141.75c2.9766 4.1016 7.8555 6.375 12.906 6.0156 7.1172-0.26562 14.277-3.2344 16.484-10.617 1.2109-4.9688 1.5312-10.109 0.94922-15.191-0.53906-3.3359-2.8164-6.1289-5.9727-7.332-2.4766-0.56641-5.0039-0.84766-7.5391-0.83984-2.9805 0.58984-5.9297 1.3398-8.8281 2.25-5.6875 0.875-6.6289 3.0039-10.016 7.3047-2.1133 3.8047-2.1836 8.418-0.1875 12.285 0.98828 1.9766 1.0273 4.1875 2.2031 6.125zm14.211-20.098c4.7539 0.6875 10.203 6.8906 8.2617 11.879-1.5664 3.6172-5.3398 5.7578-9.25 5.25-0.46484 0.35547-1.0195 0.57812-1.6016 0.64453-5.1758 0.41406-7.6875-4.6445-7.5-9.1875 0.007813-2.5469 1.1289-4.9648 3.0703-6.6172 1.9375-1.6484 4.5039-2.3711 7.0195-1.9688z"/>
  <path d="m139.56 268.86c5.4023 0 10.887-1.1406 15.418 1.4453 0.44141 0.11719 0.84375 0.34375 1.1797 0.65234 0.074219 0.074219 0.11328 0.14844 0.1875 0.22266 3.7617-3.1211 8.1484-5.3906 12.867-6.6602 4.4766-0.46875 8.9883-0.52344 13.477-0.15234-5.1758-0.60938-10.887-0.4375-13.969-0.57422-7.3438-0.33984-14.234 1.4883-21.582 1.2617-9.4414-0.089844-18.828 1.3789-27.789 4.3398-3.1641 0.91016-9.9023 0.91016-15 2.3984 0.80078-0.078125 1.6016-0.15234 2.25-0.22656h-0.003906c10.91-1.6836 21.926-2.5898 32.965-2.707z"/>
  <path d="m359.04 133.07c1.1406 0 5.0234 0.60938 5.7109-0.64844 1.1055-1.9805-1.2539-4.3008-3.0039-5.0625-3.6914-1.6406-4.875 4.0703-3.3125 5.8242h-0.003906c0.19922-0.058594 0.40234-0.097656 0.60938-0.11328z"/>
  <path d="m142.36 419.23c-7.8438-6.6602-20.062-6.2031-29.16-1.4453-0.058594 0.097656-0.10938 0.19922-0.15234 0.30859 4.3828-0.94531 8.9492-0.53516 13.094 1.1758 10.543 4.3047 14.922 7.957 18.047 18.543 2.5859 8.75 2.5508 17.016-3.9375 23.711-3.1914 2.1914-6.8086 3.6836-10.617 4.375 6.418-0.019531 12.578-2.5156 17.203-6.9648 7.0547-10.352 5.2695-31.492-4.4766-39.703z"/>
  <path d="m197.86 386.14c0.49609 1.0273 0.98828 2.0938 1.4102 3.1992 0.91797 2.8086 1.1797 5.793 0.76172 8.7188 2.9883-3.6602 5.0664-7.9805 6.0547-12.602 1.8711-6.0156 2.9453-12.246 3.1953-18.539-1.2188 3.0625-4.3398 5.1016-5.0273 8.3125-0.60937 3.0039 0.4375 6.7773-1.4102 9.3633h0.003906c-1.1875 1.4883-3.1641 2.1055-4.9883 1.5469z"/>
  <path d="m202.56 404.84c-1.0625 0.91016-2.2969 1.6016-3.6328 2.0352-0.039063 7.9141 2.457 8.9688 7.5 3.1602 4.3711-5.0195 7.6484-10.895 9.625-17.246 1.6133-4.5586 2.8828-9.2266 3.8047-13.973 0.21094-5.1367-0.019531-10.281-0.67969-15.379-1.0664 0.11719-2.1875 0.19141-3.1992 0.30469l-1.4492 0.22656c0.73047 6.7891-0.015625 13.652-2.1875 20.125-2.1484 7.875-3.7812 15.074-9.7812 20.746z"/>
  <path d="m172.05 257.97c2.5508 0 5.4414 0.039063 8.3125 0.26562-1.1758-10.852-25.375-3.8047-32.512-2.8164-8.6758 1.2188-28.852-1.9023-32.238 8.1875v-0.003906c7.1328-2.6094 14.613-4.1484 22.195-4.5664 11.555 0.39844 22.672-1.1797 34.242-1.0664z"/>
  <path d="m350.9 153.48c13.441 4.6055 29.348 0 33.918-14.504 3.5-11.57 2.0898-30.148-12.945-32.203-10.617-1.4102-23.906 0.83984-30.375 10.062-7.5391 10.641-4.875 31.773 9.4023 36.645zm-12.148-28.789c-0.035156-2.7383 4.1523-6.5625 5.5195-8.4141 3.8438-5.4805 10.891-6.6992 17.207-7.9531 4.7188-0.95312 13.246-0.60937 16.828 3.2383 5.3633 5.7461 5.4023 8.1445 6.125 15.906 0.83984 6.6797-1.2734 13.395-5.7852 18.391-4.5117 4.9922-10.977 7.7773-17.707 7.6211-11.23-0.64453-19.184-6.2383-21.086-17.734v-0.003907c-0.63672-3.6523-1.0039-7.3438-1.1016-11.051z"/>
  <path d="m191.39 261.52c15.41-1.6758 30.715-4.2422 45.832-7.6797 3.0625-0.70312 1.7812-5.4531-1.3125-4.7461v-0.003906c-14.688 3.3555-29.551 5.8633-44.527 7.5078-3.1094 0.34375-3.1445 5.2695 0.007813 4.9219z"/>
  <path d="m332.65 225.61c-1.9922 2.4336 1.4727 5.9375 3.5 3.5 11.422-14 31.062-12.641 46.496-19.609 15.52-7 31.254-13.66 47.09-20.242 2.8828-1.1992 1.6172-5.9648-1.3125-4.7422-16.309 6.7812-32.375 13.273-48.266 20.738-16.246 7.6016-35.332 5.4453-47.508 20.355z"/>
  <use x="70" y="625.625" xlink:href="#u"/>
  <use x="86.054688" y="625.625" xlink:href="#d"/>
  <use x="96.839844" y="625.625" xlink:href="#a"/>
  <use x="111.679687" y="625.625" xlink:href="#g"/>
  <use x="126.4375" y="625.625" xlink:href="#b"/>
  <use x="136.894531" y="625.625" xlink:href="#a"/>
  <use x="151.730469" y="625.625" xlink:href="#i"/>
  <use x="175.007812" y="625.625" xlink:href="#c"/>
  <use x="190.664062" y="625.625" xlink:href="#f"/>
  <use x="212.539062" y="625.625" xlink:href="#h"/>
  <use x="230.847656" y="625.625" xlink:href="#a"/>
  <use x="245.683594" y="625.625" xlink:href="#f"/>
  <use x="267.558594" y="625.625" xlink:href="#t"/>
  <use x="284.402344" y="625.625" xlink:href="#g"/>
  <use x="299.164062" y="625.625" xlink:href="#c"/>
  <use x="314.824219" y="625.625" xlink:href="#c"/>
  <use x="330.480469" y="625.625" xlink:href="#s"/>
  <use x="337.980469" y="625.625" xlink:href="#b"/>
  <use x="70" y="647.5" xlink:href="#r"/>
  <use x="79.515625" y="647.5" xlink:href="#d"/>
  <use x="90.304688" y="647.5" xlink:href="#e"/>
  <use x="105.332031" y="647.5" xlink:href="#q"/>
  <use x="135.742188" y="647.5" xlink:href="#b"/>
  <use x="146.199219" y="647.5" xlink:href="#p"/>
  <use x="161.773438" y="647.5" xlink:href="#a"/>
  <use x="184.222656" y="647.5" xlink:href="#o"/>
  <use x="202.53125" y="647.5" xlink:href="#e"/>
  <use x="217.558594" y="647.5" xlink:href="#n"/>
  <use x="233.132812" y="647.5" xlink:href="#m"/>
  <use x="256.320312" y="647.5" xlink:href="#l"/>
  <use x="272.355469" y="647.5" xlink:href="#d"/>
  <use x="283.140625" y="647.5" xlink:href="#e"/>
  <use x="298.171875" y="647.5" xlink:href="#k"/>
  <use x="305.667969" y="647.5" xlink:href="#a"/>
  <use x="320.503906" y="647.5" xlink:href="#j"/>
  <use x="333.472656" y="647.5" xlink:href="#b"/>
 </g>
</svg>
