<?xml version="1.0" encoding="UTF-8"?>
<svg width="700pt" height="700pt" version="1.1" viewBox="0 0 700 700" xmlns="http://www.w3.org/2000/svg" xmlns:xlink="http://www.w3.org/1999/xlink">
 <defs>
  <symbol id="u" overflow="visible">
   <path d="m14.656-0.875c-0.76172 0.39844-1.5547 0.69531-2.375 0.89062-0.8125 0.19531-1.6641 0.29688-2.5469 0.29688-2.6562 0-4.7617-0.73828-6.3125-2.2188-1.5547-1.4883-2.3281-3.5039-2.3281-6.0469 0-2.5508 0.77344-4.5664 2.3281-6.0469 1.5508-1.4883 3.6562-2.2344 6.3125-2.2344 0.88281 0 1.7344 0.10156 2.5469 0.29688 0.82031 0.19922 1.6133 0.49609 2.375 0.89062v3.2969c-0.76172-0.51953-1.5117-0.89844-2.25-1.1406-0.74219-0.23828-1.5234-0.35938-2.3438-0.35938-1.4688 0-2.625 0.46875-3.4688 1.4062-0.83594 0.9375-1.25 2.2344-1.25 3.8906 0 1.6484 0.41406 2.9375 1.25 3.875 0.84375 0.9375 2 1.4062 3.4688 1.4062 0.82031 0 1.6016-0.11719 2.3438-0.35938 0.73828-0.23828 1.4883-0.61719 2.25-1.1406z"/>
  </symbol>
  <symbol id="d" overflow="visible">
   <path d="m10.719-8.7031c-0.33594-0.15625-0.66797-0.26953-1-0.34375-0.32422-0.082031-0.65625-0.125-1-0.125-0.98047 0-1.7344 0.32031-2.2656 0.95312-0.53125 0.625-0.79688 1.5273-0.79688 2.7031v5.5156h-3.8125v-11.969h3.8125v1.9688c0.48828-0.78125 1.0508-1.3477 1.6875-1.7031 0.64453-0.36328 1.4102-0.54688 2.2969-0.54688 0.13281 0 0.27344 0.007812 0.42188 0.015625 0.14453 0.011719 0.36328 0.03125 0.65625 0.0625z"/>
  </symbol>
  <symbol id="a" overflow="visible">
   <path d="m13.781-6.0156v1.0938h-8.9375c0.09375 0.89844 0.41406 1.5703 0.96875 2.0156 0.55078 0.44922 1.3281 0.67188 2.3281 0.67188 0.80078 0 1.625-0.11719 2.4688-0.35938 0.84375-0.23828 1.7109-0.59766 2.6094-1.0781v2.9531c-0.90625 0.33594-1.8125 0.58984-2.7188 0.76562s-1.8125 0.26562-2.7188 0.26562c-2.1562 0-3.8398-0.54688-5.0469-1.6406-1.1992-1.1016-1.7969-2.6484-1.7969-4.6406 0-1.9453 0.58594-3.4766 1.7656-4.5938 1.1758-1.125 2.8008-1.6875 4.875-1.6875 1.875 0 3.375 0.57031 4.5 1.7031 1.1328 1.125 1.7031 2.6367 1.7031 4.5312zm-3.9375-1.2656c0-0.72656-0.21484-1.3125-0.64062-1.75-0.41797-0.44531-0.96875-0.67188-1.6562-0.67188-0.74219 0-1.3438 0.21094-1.8125 0.625-0.46094 0.41797-0.74609 1.0156-0.85938 1.7969z"/>
  </symbol>
  <symbol id="g" overflow="visible">
   <path d="m7.2031-5.3906c-0.80469 0-1.4062 0.13672-1.8125 0.40625-0.39844 0.27344-0.59375 0.67188-0.59375 1.2031 0 0.48047 0.16016 0.85938 0.48438 1.1406 0.32031 0.27344 0.77344 0.40625 1.3594 0.40625 0.71875 0 1.3203-0.25391 1.8125-0.76562 0.48828-0.51953 0.73438-1.1719 0.73438-1.9531v-0.4375zm5.8438-1.4375v6.8281h-3.8594v-1.7656c-0.51172 0.71875-1.0898 1.2461-1.7344 1.5781-0.63672 0.33203-1.418 0.5-2.3438 0.5-1.2422 0-2.2461-0.35938-3.0156-1.0781-0.77344-0.72656-1.1562-1.6719-1.1562-2.8281 0-1.3945 0.47656-2.4219 1.4375-3.0781 0.96875-0.65625 2.4883-0.98438 4.5625-0.98438h2.25v-0.29688c0-0.60156-0.24219-1.0469-0.71875-1.3281-0.48047-0.28125-1.2266-0.42188-2.2344-0.42188-0.8125 0-1.5742 0.085937-2.2812 0.25-0.71094 0.15625-1.3672 0.40234-1.9688 0.73438v-2.9219c0.82031-0.19531 1.6445-0.34766 2.4688-0.45312 0.82031-0.10156 1.6484-0.15625 2.4844-0.15625 2.1562 0 3.7109 0.42969 4.6719 1.2812 0.95703 0.84375 1.4375 2.2266 1.4375 4.1406z"/>
  </symbol>
  <symbol id="b" overflow="visible">
   <path d="m6.0156-15.359v3.3906h3.9375v2.7344h-3.9375v5.0781c0 0.55469 0.10938 0.92969 0.32812 1.125 0.21875 0.19922 0.65625 0.29688 1.3125 0.29688h1.9688v2.7344h-3.2812c-1.5117 0-2.5859-0.3125-3.2188-0.9375-0.625-0.63281-0.9375-1.707-0.9375-3.2188v-5.0781h-1.9062v-2.7344h1.9062v-3.3906z"/>
  </symbol>
  <symbol id="i" overflow="visible">
   <path d="m9.9688-10.219v-6.4062h3.8594v16.625h-3.8594v-1.7344c-0.52344 0.71094-1.1016 1.2305-1.7344 1.5625-0.63672 0.32031-1.3711 0.48438-2.2031 0.48438-1.4688 0-2.6797-0.58203-3.625-1.75-0.94922-1.1758-1.4219-2.6875-1.4219-4.5312s0.47266-3.3477 1.4219-4.5156c0.94531-1.1758 2.1562-1.7656 3.625-1.7656 0.83203 0 1.5664 0.16797 2.2031 0.5 0.63281 0.32422 1.2109 0.83594 1.7344 1.5312zm-2.5156 7.75c0.82031 0 1.4453-0.29688 1.875-0.89062 0.42578-0.60156 0.64062-1.4727 0.64062-2.6094 0-1.1445-0.21484-2.0156-0.64062-2.6094-0.42969-0.59375-1.0547-0.89062-1.875-0.89062-0.8125 0-1.4336 0.29688-1.8594 0.89062-0.42969 0.59375-0.64062 1.4648-0.64062 2.6094 0 1.1367 0.21094 2.0078 0.64062 2.6094 0.42578 0.59375 1.0469 0.89062 1.8594 0.89062z"/>
  </symbol>
  <symbol id="c" overflow="visible">
   <path d="m8.2031-2.4688c0.82031 0 1.4453-0.29688 1.875-0.89062 0.42578-0.60156 0.64062-1.4727 0.64062-2.6094 0-1.1445-0.21484-2.0156-0.64062-2.6094-0.42969-0.59375-1.0547-0.89062-1.875-0.89062-0.82422 0-1.4531 0.30469-1.8906 0.90625-0.4375 0.59375-0.65625 1.4609-0.65625 2.5938 0 1.1367 0.21875 2.0078 0.65625 2.6094 0.4375 0.59375 1.0664 0.89062 1.8906 0.89062zm-2.5469-7.75c0.53125-0.69531 1.1133-1.207 1.75-1.5312 0.64453-0.33203 1.3828-0.5 2.2188-0.5 1.4688 0 2.6758 0.58984 3.625 1.7656 0.94531 1.168 1.4219 2.6719 1.4219 4.5156s-0.47656 3.3555-1.4219 4.5312c-0.94922 1.168-2.1562 1.75-3.625 1.75-0.83594 0-1.5742-0.16797-2.2188-0.5-0.63672-0.33203-1.2188-0.84766-1.75-1.5469v1.7344h-3.8125v-16.625h3.8125z"/>
  </symbol>
  <symbol id="f" overflow="visible">
   <path d="m0.26562-11.969h3.8281l3.2188 8.125 2.7344-8.125h3.8125l-5.0312 13.094c-0.5 1.332-1.0898 2.2656-1.7656 2.7969-0.66797 0.53125-1.5547 0.79688-2.6562 0.79688h-2.2188v-2.5h1.2031c0.64453 0 1.1133-0.10547 1.4062-0.3125 0.30078-0.21094 0.53125-0.57812 0.6875-1.1094l0.10938-0.34375z"/>
  </symbol>
  <symbol id="h" overflow="visible">
   <path d="m2.0156-15.953h4.1094v6.0781h6.0625v-6.0781h4.1094v15.953h-4.1094v-6.7656h-6.0625v6.7656h-4.1094z"/>
  </symbol>
  <symbol id="t" overflow="visible">
   <path d="m7.8438-8.875c0.86328 0 1.4844-0.16016 1.8594-0.48438 0.375-0.32031 0.5625-0.84766 0.5625-1.5781 0-0.72656-0.1875-1.25-0.5625-1.5625s-0.99609-0.46875-1.8594-0.46875h-1.7188v4.0938zm-1.7188 2.8438v6.0312h-4.1094v-15.953h6.2656c2.1016 0 3.6445 0.35547 4.625 1.0625 0.97656 0.71094 1.4688 1.8242 1.4688 3.3438 0 1.0547-0.25781 1.918-0.76562 2.5938-0.51172 0.67969-1.2773 1.1797-2.2969 1.5 0.5625 0.125 1.0625 0.41797 1.5 0.875 0.44531 0.44922 0.89844 1.1328 1.3594 2.0469l2.2344 4.5312h-4.375l-1.9531-3.9688c-0.38672-0.78906-0.78125-1.332-1.1875-1.625-0.40625-0.28906-0.94531-0.4375-1.6094-0.4375z"/>
  </symbol>
  <symbol id="s" overflow="visible">
   <path d="m1.8438-11.969h3.8125v11.969h-3.8125zm0-4.6562h3.8125v3.125h-3.8125z"/>
  </symbol>
  <symbol id="r" overflow="visible">
   <path d="m9.7031-16.625v2.5156h-2.1094c-0.54297 0-0.92188 0.10156-1.1406 0.29688-0.21094 0.19922-0.3125 0.53906-0.3125 1.0156v0.82812h3.2656v2.7344h-3.2656v9.2344h-3.8281v-9.2344h-1.8906v-2.7344h1.8906v-0.82812c0-1.3008 0.36328-2.2656 1.0938-2.8906 0.72656-0.625 1.8516-0.9375 3.375-0.9375z"/>
  </symbol>
  <symbol id="e" overflow="visible">
   <path d="m7.5312-9.5156c-0.84375 0-1.4922 0.30859-1.9375 0.92188-0.44922 0.60547-0.67188 1.4805-0.67188 2.625 0 1.1484 0.22266 2.0273 0.67188 2.6406 0.44531 0.60547 1.0938 0.90625 1.9375 0.90625 0.83203 0 1.4688-0.30078 1.9062-0.90625 0.44531-0.61328 0.67188-1.4922 0.67188-2.6406 0-1.1445-0.22656-2.0195-0.67188-2.625-0.4375-0.61328-1.0742-0.92188-1.9062-0.92188zm0-2.7344c2.0508 0 3.6562 0.55859 4.8125 1.6719 1.1641 1.1055 1.75 2.6406 1.75 4.6094s-0.58594 3.5117-1.75 4.625c-1.1562 1.1055-2.7617 1.6562-4.8125 1.6562-2.0625 0-3.6797-0.55078-4.8438-1.6562-1.168-1.1133-1.75-2.6562-1.75-4.625s0.58203-3.5039 1.75-4.6094c1.1641-1.1133 2.7812-1.6719 4.8438-1.6719z"/>
  </symbol>
  <symbol id="q" overflow="visible">
   <path d="m12.922-9.9688c0.48828-0.75 1.0625-1.3164 1.7188-1.7031 0.66406-0.38281 1.3984-0.57812 2.2031-0.57812 1.375 0 2.4219 0.42969 3.1406 1.2812 0.71875 0.84375 1.0781 2.0742 1.0781 3.6875v7.2812h-3.8438v-6.2344c0.007812-0.09375 0.015625-0.1875 0.015625-0.28125v-0.4375c0-0.84375-0.125-1.457-0.375-1.8438-0.25-0.38281-0.65234-0.57812-1.2031-0.57812-0.73047 0-1.293 0.30469-1.6875 0.90625-0.38672 0.59375-0.58984 1.4609-0.60938 2.5938v5.875h-3.8438v-6.2344c0-1.3203-0.11719-2.1758-0.34375-2.5625-0.23047-0.38281-0.63672-0.57812-1.2188-0.57812-0.73047 0-1.2969 0.30469-1.7031 0.90625-0.39844 0.60547-0.59375 1.4648-0.59375 2.5781v5.8906h-3.8438v-11.969h3.8438v1.75c0.46875-0.66406 1.0039-1.1719 1.6094-1.5156 0.61328-0.34375 1.2891-0.51562 2.0312-0.51562 0.82031 0 1.5508 0.19922 2.1875 0.59375 0.63281 0.39844 1.1133 0.96094 1.4375 1.6875z"/>
  </symbol>
  <symbol id="p" overflow="visible">
   <path d="m13.859-7.2812v7.2812h-3.8438v-5.5469c0-1.0508-0.027344-1.7695-0.078125-2.1562-0.042969-0.39453-0.12109-0.6875-0.23438-0.875-0.14844-0.25-0.35156-0.44141-0.60938-0.57812-0.25-0.14453-0.54297-0.21875-0.875-0.21875-0.79297 0-1.418 0.3125-1.875 0.9375-0.46094 0.61719-0.6875 1.4648-0.6875 2.5469v5.8906h-3.8125v-16.625h3.8125v6.4062c0.58203-0.69531 1.1953-1.207 1.8438-1.5312 0.64453-0.33203 1.3594-0.5 2.1406-0.5 1.3828 0 2.4297 0.42969 3.1406 1.2812 0.71875 0.84375 1.0781 2.0742 1.0781 3.6875z"/>
  </symbol>
  <symbol id="o" overflow="visible">
   <path d="m2.0156-15.953h4.5781l5.8125 10.938v-10.938h3.8906v15.953h-4.5938l-5.7969-10.938v10.938h-3.8906z"/>
  </symbol>
  <symbol id="n" overflow="visible">
   <path d="m1.7031-4.6562v-7.3125h3.8438v1.2031c0 0.64844-0.007813 1.4609-0.015625 2.4375v1.9688c0 0.96094 0.023438 1.6523 0.078125 2.0781 0.050781 0.41797 0.13281 0.72656 0.25 0.92188 0.15625 0.25 0.35938 0.44531 0.60938 0.57812 0.25781 0.13672 0.55078 0.20312 0.875 0.20312 0.80078 0 1.4258-0.30469 1.875-0.92188 0.45703-0.61328 0.6875-1.4688 0.6875-2.5625v-5.9062h3.8281v11.969h-3.8281v-1.7344c-0.57422 0.69922-1.1836 1.2148-1.8281 1.5469-0.64844 0.33203-1.3555 0.5-2.125 0.5-1.3867 0-2.4453-0.42188-3.1719-1.2656-0.71875-0.85156-1.0781-2.0859-1.0781-3.7031z"/>
  </symbol>
  <symbol id="m" overflow="visible">
   <path d="m13.859-7.2812v7.2812h-3.8438v-5.5781c0-1.0312-0.027344-1.7383-0.078125-2.125-0.042969-0.39453-0.12109-0.6875-0.23438-0.875-0.14844-0.25-0.35156-0.44141-0.60938-0.57812-0.25-0.14453-0.54297-0.21875-0.875-0.21875-0.79297 0-1.418 0.3125-1.875 0.9375-0.46094 0.61719-0.6875 1.4648-0.6875 2.5469v5.8906h-3.8125v-11.969h3.8125v1.75c0.58203-0.69531 1.1953-1.207 1.8438-1.5312 0.64453-0.33203 1.3594-0.5 2.1406-0.5 1.3828 0 2.4297 0.42969 3.1406 1.2812 0.71875 0.84375 1.0781 2.0742 1.0781 3.6875z"/>
  </symbol>
  <symbol id="l" overflow="visible">
   <path d="m2.0156-15.953h6.8125c2.0312 0 3.5859 0.45312 4.6719 1.3594 1.0938 0.89844 1.6406 2.1797 1.6406 3.8438 0 1.6797-0.54688 2.9688-1.6406 3.875-1.0859 0.89844-2.6406 1.3438-4.6719 1.3438h-2.7031v5.5312h-4.1094zm4.1094 2.9844v4.4531h2.2656c0.80078 0 1.4141-0.19141 1.8438-0.57812 0.4375-0.38281 0.65625-0.9375 0.65625-1.6562 0-0.70703-0.21875-1.2539-0.65625-1.6406-0.42969-0.38281-1.043-0.57812-1.8438-0.57812z"/>
  </symbol>
  <symbol id="k" overflow="visible">
   <path d="m1.8438-11.969h3.8125v11.75c0 1.6016-0.38672 2.8281-1.1562 3.6719-0.76172 0.84375-1.8711 1.2656-3.3281 1.2656h-1.8906v-2.5h0.65625c0.72656 0 1.2266-0.16797 1.5-0.5 0.26953-0.32422 0.40625-0.96875 0.40625-1.9375zm0-4.6562h3.8125v3.125h-3.8125z"/>
  </symbol>
  <symbol id="j" overflow="visible">
   <path d="m11.5-11.594v3.125c-0.52344-0.35156-1.043-0.61328-1.5625-0.78125-0.52344-0.17578-1.0625-0.26562-1.625-0.26562-1.0742 0-1.9062 0.3125-2.5 0.9375s-0.89062 1.4961-0.89062 2.6094c0 1.1172 0.29688 1.9844 0.89062 2.6094s1.4258 0.9375 2.5 0.9375c0.59375 0 1.1562-0.085937 1.6875-0.26562 0.53906-0.17578 1.0391-0.44141 1.5-0.79688v3.125c-0.59375 0.23047-1.1992 0.39453-1.8125 0.5-0.61719 0.11328-1.2344 0.17188-1.8594 0.17188-2.1562 0-3.8438-0.55078-5.0625-1.6562-1.2188-1.1133-1.8281-2.6562-1.8281-4.625s0.60938-3.5039 1.8281-4.6094c1.2188-1.1133 2.9062-1.6719 5.0625-1.6719 0.625 0 1.2383 0.058594 1.8438 0.17188 0.61328 0.10547 1.2227 0.26562 1.8281 0.48438z"/>
  </symbol>
 </defs>
 <g>
  <path d="m194.81 410.27c-0.20703 0.14844-0.37891 0.32422-0.58594 0.47266 2.0117 0.15234 3.9844 0.64062 5.832 1.4453 2.0117 1.2891 4.0938 2.457 6.2461 3.5 0.22656 0.10156 0.4375 0.23828 0.62109 0.41016 0.15625-1.4297 0.60156-2.8125 1.3125-4.0664h-0.03125c-2-2.2109-4.8555-3.457-7.8359-3.4141-1.9805-0.050781-3.9258 0.53125-5.5586 1.6523z"/>
  <path d="m222.71 331.73c0.027344 0.37891 0.085937 1.0586 0.14453 1.8242 0.35547-0.64844 0.67969-1.3125 1-1.9414 0.53125-1 1.0312-2.0664 1.5625-3.0625-0.98438-0.42188-1.9297-0.92578-2.8281-1.5078-0.027344 1.5625 0 3.125 0.12109 4.6875z"/>
  <path d="m294.32 268.75c2.1992-0.63281 4.3633-1.3906 6.4805-2.2656 2.2383-0.14844 3.125-1.3125 2.6523-3.418l-0.003906 0.003906c-5.1016-1.6562-10.621-1.4805-15.609 0.49609-2.5312 1.3125-4.7734-2.5039-2.2383-3.7969 4.1797-1.9297 8.7773-2.7812 13.375-2.4766-1.918-1.0898-3.832-2.1875-5.6562-3.3594-7.3359-0.058594-11.844 2.9805-18.086 6.2461h-0.003906c-3.8438 1.7773-7.4961 3.9375-10.902 6.4492 9.5508 3.7422 20.012 4.4844 29.992 2.1211z"/>
  <path d="m271.35 246.28c5.7461-6.7773-2.4766-3.0938-6.8633-1.6172-3.1797 1.0586-6.3594 2-9.5742 2.9453v-0.003907c-1.1602 0.27344-2.3281-0.42578-2.6406-1.5742-0.3125-1.1484 0.34375-2.3398 1.4805-2.6953 5.1836-2.0938 10.535-3.7305 16.004-4.8945-0.46875-0.29688-0.97266-0.58984-1.4453-0.875-0.41406 0.17578-0.875 0.20703-1.3125 0.085938-8.5156-2.2969-23.188 2.8008-30.625 7.2461-0.70703 0.4375-8.6016 4.6562-6.6602 5.4531h0.003906c5.168 2.1836 10.617 3.6406 16.188 4.3281 10.332 1.2031 17.758 0.64453 25.445-8.3984z"/>
  <path d="m270.79 301.16c-0.097656-0.13281-0.1875-0.26953-0.26562-0.41406-5.0664 3.125-5.125 14.141 1.5938 15.262 4.7109 0.79688 14.344-0.53125 13.609-7.3945-5.7344-0.53125-11.066-3.1875-14.938-7.4531z"/>
  <path d="m221.18 211.96c3.375 0.011718 6.7422 0.33594 10.062 0.96875-0.82422-0.79688-1.6484-1.5625-2.4453-2.3594v0.003907c-3.8047-2.0664-8.0742-3.1133-12.402-3.0312-6.2656 0.125-12.371 2.0117-17.617 5.4453-1.3125 0.875-5.8633 2.8008-4.8594 3.3281 7.5742 3.8594 14.906 8.0703 23.742 7.875 3.6836-0.085937 15.703-0.67969 18.734-4.8125-1.4688-0.80469-3.0312-1.4258-4.6523-1.8555-3.4805-0.71484-7.0234-1.1016-10.578-1.1445-0.58594 0-1.1445-0.23828-1.5586-0.65234-0.41406-0.41406-0.64453-0.97656-0.64453-1.5625 0.003906-1.2227 0.99609-2.207 2.2188-2.2031z"/>
  <path d="m259.48 289.73c-4.0664-1.6094-8.6445-1.2734-12.434 0.91406-2.625 1.3125-7.7734 4.0625-7.8359 7.125s-0.5 6.9258 2.6523 8.7188c1.1211 0.82422 2.3281 1.5234 3.5938 2.0938 1.1758 0.35547 2.3828 0.62109 3.5625 1.0312 0.81641 0.25781 1.3984 0.97656 1.4766 1.8281 5.0664-0.4375 9.7773-0.47266 12.492-0.47266h-0.003906c-1.8125-5.875 1.0586-12.18 6.6875-14.668 0.11328-0.25 0.25-0.48828 0.41016-0.70703-3.7266-1.1758-7.1602-3.1328-10.062-5.7461-0.18359-0.011719-0.36719-0.050781-0.53906-0.11719z"/>
  <path d="m229.02 306.11c-1.8828 0.91406-6.8906 4.1836-5.4766 6.5625h-0.003906c0.28516 0.40625 0.51562 0.84766 0.67969 1.3125 0.41016 1.1797 0.32812 2.4766-0.23828 3.5938-1.5938 2.4141-1.5312 3.7695 0.875 5.5703v-0.003906c0.94141 0.71484 1.9609 1.3164 3.0391 1.8008 0.96875-0.66797 2.2734-0.55859 3.1172 0.26172-0.58594-2.4961-0.37109-5.1172 0.62109-7.4805-2.7461-3.1992-3.7266-7.5508-2.6133-11.617z"/>
  <path d="m274.56 223.36c-0.027344 3.1289 0.49219 6.2383 1.5312 9.1875 4.7422 1.9727 6.6289 1.3125 5.6562-2.0039-0.13672-5.5312-1.7422-10.93-4.6562-15.641-3.125-4.7422-6.6836-8.6641-9.4297-13.344-3.7422 9.957-3.2695 24.422 4.125 31.988l0.003906 0.003906c-1.0391-3.3008-1.5938-6.7344-1.6484-10.195-0.089844-2.8203 4.3281-2.8203 4.418 0.003907z"/>
  <path d="m302.63 278.25c0.16797 0.23438 0.26953 0.50781 0.29297 0.79688 1.5625 0.4375 3.0938 0.91406 4.5938 1.4453v-0.003907c3.2148-4.5664 8.4961-7.2305 14.082-7.0977 3.1484 0.0625 6.3047 0.0625 9.4531 0.0625-6.0664-5.25-14.051-7-21.266-10.398 0.47266 1.3555 0.03125 2.8008-1.625 4.625l0.003907-0.003907c-2.0312 1.918-4.4844 3.332-7.1602 4.125 0.30078 0.37109 0.45703 0.83594 0.4375 1.3125-0.03125 1.7852 0.375 3.5469 1.1875 5.1367z"/>
  <path d="m305.4 251.49c-0.12891-0.23828-0.23438-0.48438-0.32422-0.73828-0.62109-1.8242-0.98047-3.7266-1.0625-5.6523-0.085937-2.8594 4.332-2.832 4.418 0-0.042969 2.0469 0.51172 4.0625 1.5938 5.8008 0.26172 0.32422 0.46875 0.67969 0.73438 1.0312 0.72266-4.2812 0.96094-8.6289 0.70703-12.961-2.1797 1.5391-4.7695 2.3906-7.4375 2.4453-2.0078 0.14062-4.0273 0.15234-6.0352 0.03125 1.2695 4.0859 3.8789 7.6211 7.4062 10.043z"/>
  <path d="m296.36 235.11c1.5742-0.58984 3.0039-1.5156 4.1836-2.7148 1.4023-1.8086 2.9297-3.5195 4.5664-5.1211-0.35156-1.9531-0.10156-3.9648 0.70703-5.7773-0.14062-0.089844-0.26953-0.19922-0.38672-0.32031-1.8242-2.4727-5.2109-10.66-7.7734-5.5391-2.0938 4.4805-2.8008 9.4883-2.0352 14.375 0.20703 1.7109 0.44531 3.418 0.73828 5.0977z"/>
  <path d="m329.2 266.48c-0.9375-3.5078-1.4141-7.1211-1.4141-10.754-0.26562 0.14844-0.47266 0.35547-0.73828 0.50391h-0.003906c-2.625 2.0273-5.8711 3.0859-9.1875 3-1.332-0.41016-2.1914-1.7031-2.0625-3.0898 0.0625-1.6484 1.4727-2.6758 2.1523-4.0625v-0.003906c1.0195-2.1875 1.8086-4.4805 2.3594-6.832 0.23047-0.875 0.37891-1.7969 0.64844-2.6836h-0.003906c-1.8242-1.4219-3.3789-3.1562-4.5977-5.1211-0.19141 0.03125-0.39062 0.050782-0.58594 0.054688 0 0.09375 0.027344 0.14844 0.027344 0.23438 0 5.6016 0.91406 14.438-2.707 21v0.003906c5.582 2.1172 10.973 4.7109 16.113 7.75z"/>
  <path d="m285.18 161.4c7.3086 10.973 15.508 21.32 24.523 30.941 1.4609 1.5273 3.7812-0.79688 2.3203-2.3203h-0.003907c-14.785-16.23-27.785-34-38.773-53.004-8.668-14.172-12.457-31.062-22.75-44.113-1.3125-1.6562-3.6133 0.67969-2.3203 2.3203 6.3516 8.0586 9.1875 17.285 13.199 26.539 4.3008 9.1562 9.3203 17.961 15.016 26.324 1.082 1.6836 2.1875 3.3281 3.2812 5-4.082-4.2852-9.4102-7.1641-15.23-8.2344-5.0664-0.55859-10.18-0.61719-15.258-0.17578-1.4453 0.085938-10.016 1.918-11.281 0.41016 10.656 12.531 31.008 21.246 47.277 16.312zm-15.043-6.8828h0.003906c1.8281 0.34766 3.6797 0.59375 5.5352 0.73438 1.4688 0 2.9453-0.058594 4.418 0l1.0078 0.046875c1.0508 1.5938 2.0859 3.207 3.1484 4.7812l0.003906 0.003906c-1.7422-0.30469-3.5117-0.44141-5.2773-0.41016-2.957-0.085937-5.9062-0.32812-8.8359-0.73828-2.8008-0.29297-2.8281-4.7109 0-4.418z"/>
  <path d="m301.98 237.23c1.2148-0.027344 2.4297-0.15625 3.6211-0.38672 1.4844-0.38672 2.8789-1.0469 4.1211-1.9414-1.0703-0.91406-2.0312-1.9531-2.8555-3.0938-1.3125 1.4453-2.5039 2.9766-3.7109 4.5352v0.003906c-0.32812 0.37109-0.72656 0.67188-1.1758 0.88281z"/>
  <path d="m241.06 185.83c0.53125 5.7734 1.5625 11.434 1.5938 17.293 0.10938 3.6289 0.79297 7.2188 2.0312 10.633 9.4219-6.8047 3.8281-23.77-0.32812-31.938-1.9375-4.3438-4.4375-8.418-7.4375-12.109-0.82812-1-1.75-3.2969-2.9453-4.8594-2.918 11.551-8.7812 31.199-1.7109 41.684 0.91406 0.875 1.8555 1.75 2.8008 2.625 1.3516 0.70703 2.7383 1.5 4.1523 2.3281-0.61328-2.0078-0.9375-4.0898-0.96875-6.1875-0.03125-6.5625-1-12.965-1.5938-19.473-0.27344-2.8516 4.1445-2.8242 4.4062 0.003906z"/>
  <path d="m295.18 201.65c6.1562 0 17.234 1.7109 19.688-5.5391-5.6875 0-11.488-0.35547-20.031-0.35547-1.2227 0-2.2109-0.98828-2.2109-2.207 0-1.2227 0.98828-2.2109 2.2109-2.2109 3.418 0 7.25 0.0625 10.695 0.11719-1.1797-0.53125-2.3281-1.0586-3.5-1.5-8.7148-4.1641-18.777-4.4961-27.75-0.91406-1.707 0.67969 7.7773 8.6641 8.4844 9.1875 3.4844 2.8125 7.9805 4.0508 12.414 3.4219z"/>
  <path d="m351.12 159.55c6.3555-0.66406 12.758 0.78516 18.207 4.125 7.5273 3.7227 12.895 10.734 14.52 18.973 0.32812 1.1719-0.35938 2.3867-1.5312 2.7109-1.1719 0.32812-2.3867-0.35938-2.7109-1.5312-2.1758-8.7617-8.7461-15.77-17.352-18.5-11.141-4.0352-17.113 0.70703-22.801 9.8086-7.332 11.754 0.875 25.305 2.8008 36.969 0.46875 2.8008-3.8008 3.9766-4.2734 1.1797-1.707-10.223-7.6562-19.973-5.418-30.812 1.5312-7.4375 4.7109-16.672 11.957-20.648 0.71094-0.38281 1.4492-0.71875 2.207-1.0039-0.82422-1.3125-1.6172-2.6836-2.4141-4.0625-13.078 1.5312-17.234 7.6562-19.383 19.688-1.3125 7.4375 0.26172 16.555-2.832 23.539l0.003906-0.003906c-2.8945 6.9805-6.4062 13.684-10.5 20.035-1.9727 2.9453-5.25 9.8945 0.03125 11.488 4.2695 1.3125 12.844-1.9453 12.844-7.1016-0.95703-1.043-2.0156-1.9922-3.1562-2.832-2.2969-1.6172-0.11719-5.4766 2.2109-3.7969 1.125 0.81641 2.1797 1.7227 3.1523 2.7109 0.92578 0.007813 1.7188 0.65625 1.9141 1.5586 0.0625 0.23438 0.11719 0.50391 0.17969 0.76562 2.4297 3.2812 4.5234 6.8008 6.2422 10.5 2.2617 4.4531 5.0078 8.6406 8.1914 12.492 1.7969 2.2109 11.195 8.2188 16.469 6.125h-0.003906c0.30078-0.35547 0.71875-0.58594 1.1797-0.65234 0.6875-0.51172 1.2344-1.1914 1.5898-1.9727 2.0039-4.207 1.5312-6.6836 4.4453-10.188 2.7695-3.3281 5.9531-4.8906 5.6562-10.223v-0.003906c-0.80078-8.2852-0.66406-16.637 0.41406-24.891 0.47266-2.8008 4.7461-1.625 4.2422 1.1758-1.9727 11.281 2.9766 24.863-3.8906 34.758v0.003906c-0.625 0.73438-1.3945 1.332-2.2656 1.75-4.418 2.7422-2.3594 4.7461-4.0078 8.2188v0.003906c-0.59375 1.4023-1.3633 2.7266-2.2969 3.9375 2.5547 2.4766 4.9414 5.125 7.1367 7.9258 1.5312 1.8203 2.6016 3.9844 3.125 6.3047 0.24609 1.5234 0.22656 3.0781-0.058594 4.5977 2.7422 0.14062 5.4023 1 7.707 2.4961 2.3047 1.4922 4.1719 3.5703 5.418 6.0195 1.2656 2.5312-2.5312 4.7695-3.8281 2.1875-4.8359-9.5156-14.848-6.832-20.648-0.875-2.043 2.1797-4.6016 3.8086-7.4375 4.7422-6.0117 2.0039-11.637 3.2383-17.293 5.5938 17.707 6.5625 36.09 10.605 54.25 2.2656 8.0117-3.6797 18.617-8.4844 23.477-16.375h-0.003907c3.7266-6.5703 6.4414-13.66 8.0586-21.039 4.9727-17.156 2.582-35.609-6.5977-50.934-8.6172-15.309-18.934-29.598-30.75-42.594-9.1602-9.7812-20.238-17.938-26.922-29.723-6.043-10.625-15.184-21.223-16.855-33.77-1.4688-11.047-5.2109-25.273 0.11719-35.824 10.133-20.125 32.227-28.367 49.078-10.219h0.003906c3.9492 4.7109 7.6016 9.6562 10.938 14.82 2.1523 2.9453 13.125 15.578 17.559 5.3008h-0.003907c1.4219-3.5469 1.7266-7.4414 0.875-11.164-3.4375-13.895-11.949-26-23.855-33.938-15.559-9.0742-42.508-12.965-56.41 0.4375h-0.003906c-11.117 10.117-18.004 24.062-19.27 39.043 0.039062 16.227 3.1914 32.297 9.2773 47.336 4.957 14.98 11.422 29.418 19.297 43.09z"/>
  <path d="m234.85 301.57c-0.78906 1.1172-1.2461 2.4336-1.3125 3.8008 0 2.1875-0.61719 7.5391 1.5039 9.25 2.6641-1.0742 5.4414-1.8438 8.2773-2.2969-2.2539-0.71094-4.2969-1.9688-5.9492-3.6562-1.6328-2.0039-2.5234-4.5117-2.5195-7.0977z"/>
  <path d="m433.8 416.6c-0.16016 0.37109-0.44141 0.67969-0.79297 0.875 0.4375 3.2969 0.85156 6.6602 1.1758 10.062 1.7969-0.73437 3.5938-1.5 5.332-2.4141 0.23438-0.10547 0.48438-0.17578 0.73828-0.20703 0.17578-0.47266 0.32422-0.94141 0.53125-1.4727l-0.003906-0.003906c0.85938-2.4141 2.1602-4.6523 3.832-6.5977-3.6055 0.18359-7.2188 0.10156-10.812-0.24219z"/>
  <path d="m312.2 316c-0.10156-0.27734-0.15234-0.57422-0.14844-0.875-1.875-1.375-3.8984-2.5312-6.0352-3.4453-5.2344-1.3828-10.594-2.2188-15.996-2.5039-0.25 3.9219-2.4531 7.4531-5.8633 9.3984-2.3945 1.2461-5 2.0273-7.6875 2.2969 0 0.35547-0.03125 0.73828-0.03125 1.0898 9.4102 2.1562 17.844 7.3672 23.98 14.816 1.707 2.2969-2.1523 4.5078-3.832 2.2383v0.003906c-5.3242-6.3984-12.598-10.883-20.707-12.758-0.41016 1.6367-1.0312 3.2109-1.8555 4.6836 7.293 4.2773 13.848 9.6953 19.414 16.059 1.8555 2.1484-1.2695 5.3008-3.125 3.1484-5.2461-6.0156-11.406-11.168-18.262-15.258 4.2305 3.7656 6.8984 8.9766 7.4805 14.609 0.53125 4.6562 1.4141 10.66-3.5 13.492v0.003906c-4.793 1.9844-9.2383 4.7305-13.164 8.125-1.7773 1.5195-4.0273 2.375-6.3633 2.418-7.332-0.16406-14.57-1.6719-21.355-4.4492-1.1797 3.418 3.6211 10.367 5.2734 12.758 4.8125 7 27.809 11.605 30.902-0.70703l-0.003906-0.003906c1.0781-5.9219 4.5078-11.16 9.5078-14.516-0.035156-0.59766 0.1875-1.1836 0.60547-1.6094 0.42188-0.42578 1.0039-0.65625 1.6016-0.62891 8.8359 0 23.801-2.9453 31.871-9.1289 2.8008-2.1875 6.8945-4.4805 7.6055-8.3945 0.85156-4.6562 1.5586-11.227-2.3008-15.023-4.1836-4.125-8.6562-4.4805-13.816-6.1875v-0.003906c-0.92969-0.36719-1.5156-1.2969-1.4492-2.2969 0.066406-1 0.77344-1.8398 1.7461-2.0781 1.3125-0.26563 2.4453 1.0898 3.7695 0.875 2.8555-0.41016 1.207-3.0625 1.707-4.8125 0.22266-0.41406 0.23438-0.91016 0.03125-1.3359z"/>
  <path d="m447.03 432.75c-0.0625 0.085937-0.11719 0.20703-0.20703 0.35547l0.003906-0.003906c4.8125-1.4961 8.8555-4.8047 11.277-9.2227-2.1055 1.1211-4.0977 2.4375-5.9492 3.9375-1.9727 1.3477-3.7031 3.0156-5.125 4.9336z"/>
  <path d="m340.1 248.94c-1.1445-1.4141-2.4141-5.0977-4.5352-4.1562-1.1758 0.55859-1.75 2.4766-2.0898 3.5977-0.88672 2.7969-1.293 5.7227-1.207 8.6562 0.16406 5.1172 1.3359 10.152 3.4453 14.82 0.26562 0.26562 0.55859 0.50391 0.82812 0.76562 0.097657 0.16016 0.18359 0.32812 0.26172 0.5 0.16797-0.054688 0.33984-0.09375 0.51172-0.12109-0.33984-0.38281-0.52734-0.875-0.53125-1.3867 0-5.0938-1.3828-9.9844-1.4727-15.082 0-1.2188 0.98828-2.207 2.2109-2.207 1.2188 0 2.207 0.98828 2.207 2.207 0.09375 5.0977 1.4727 9.957 1.4727 15.082h0.003906c0.003906 0.25391-0.046875 0.50781-0.14844 0.73828 0.53516-0.070312 1.0781-0.10937 1.6211-0.11719 2.8281 0 3.2383 2.707 3.0625 5.3008 1.9141-2.3906 2.9609-5.3594 2.9766-8.4258-0.14844-4.625-1.0586-9.1289-1.6172-13.699l-0.003906 0.003906c-0.027344-0.27734-0.007812-0.55469 0.058594-0.82422-2.7578-1.3086-5.1719-3.2461-7.0547-5.6523z"/>
  <path d="m475.4 413c-0.50781 0.43359-0.99219 0.89453-1.4453 1.3828 8.2383-0.60156 16.457 1.3633 23.539 5.6172 3.6992 2.4766 7.1094 5.3594 10.16 8.6016-0.71094-5.3594-3.3789-10.27-7.4844-13.785-6.9531-4.3711-17.086-7.4062-24.77-1.8164z"/>
  <path d="m471.92 418.9c0.38672 0.20703 0.75781 0.43359 1.1211 0.67578 3.4922 2.8633 7.1328 5.5469 10.898 8.043 4.8594 2.3906 9.9023 4.332 14.789 6.6875 0.11719 0.058593 10.988 4.8594 7-0.29688h-0.003907c-1.5586-2.0234-3.2422-3.9492-5.0391-5.7695-7.875-6.9727-18.297-10.355-28.766-9.3398z"/>
  <path d="m461.44 417.87c0.14844-0.26562 0.26562-0.55859 0.38672-0.82812-0.11719 0.23438-8.1602-0.03125-8.8359 0.11719h-0.003906c-2.7266 0.42188-5.125 2.0234-6.5625 4.375-1.5195 2.4609-2.4688 5.2266-2.7695 8.1016 0.875-1.0742 1.8516-2.0586 2.918-2.9414 4.1875-4.043 9.2617-7.0586 14.812-8.8086z"/>
  <path d="m459.11 351c1.9727 0.82812 4.1836 1.5938 6.7773 2.4453 4.0078 1.0156 7.5781 3.3125 10.16 6.543 7.9219 10.543 5.332 19.5 0.085937 31.281h0.003907c-2.9844 7.707-7.9688 14.48-14.438 19.621 0.94141 0.76562 1.8555 1.5898 2.7383 2.4141 0.15234 0.097657 0.29688 0.20703 0.4375 0.32422 13.344-7.5703 19.5-25.375 20.297-39.652 0.76562-13.258-8.3359-28-15.465-38.91h-0.003906c-0.42188 0.91016-0.89453 1.793-1.4102 2.6523-2.793 4.625-6.2109 8.8359-9.1836 13.281z"/>
  <path d="m466.65 475.39c4.2695-8.0664-0.97266-18.812-8.3398-23.301-4.7695-2.8828-13.371-4.9727-18.055-2.9141 4.0742 1.4727 7.8555 3.6562 11.164 6.4492 6.2695 5.5781 11.438 12.281 15.23 19.766z"/>
  <path d="m268.31 361.02c0.20312 0.10547 0.38281 0.24219 0.53516 0.41016 0.35547-0.11719 0.67969-0.20703 0.97266-0.32422 6.7773-2.5938 6.0078-5.3633 5.5078-9.957-0.28906-3.0586-1.2773-6.0117-2.8867-8.6289 0.074219 5.9297-2.9688 11.465-8.0117 14.582 0.875 1.6641 2.2266 3.0273 3.8828 3.918z"/>
  <path d="m267.66 337.83c-1.2891 0.88672-2.6719 1.6289-4.1211 2.2109-1.2266 0.44141-2.4883 0.77344-3.7734 0.99609 0.21484 0.67578 0.29297 1.3867 0.23828 2.0938-0.085937 1.2109-0.32422 2.3906-0.47266 3.5977-0.085937 0.53125-0.085937 1.0898-0.17578 1.6172-0.03125 0.17969-0.03125 0.26562-0.0625 0.26562 0.042969 0.23438 0.074219 0.46875 0.089844 0.70312l0.26562 0.17969c1.1094 1.0586 2.0156 2.3047 2.6797 3.6836 5.0391-2.7109 6.4805-10.137 5.332-15.348z"/>
  <path d="m255.03 347.2c0.058594-0.55859 0.14844-1.1211 0.23438-1.6484 0.23438-1.3125 0.875-2.9492-0.29688-3.8906-0.027344-0.03125-0.027344-0.0625-0.058594-0.0625l0.003906 0.003906c-2.2539 0.09375-4.5117-0.003906-6.7461-0.29297-1.4023 2.0664-2.5742 4.2773-3.5 6.5977 1.5195-0.42188 3.0625-0.74609 4.625-0.97266 1.9102-0.29297 3.8633-0.19922 5.7383 0.26562z"/>
  <path d="m264.31 314.32h-12.199c-2.7695 0-5.4219 1.6523-8.0977 1.6523v0.003906c-1.7148 0.26172-3.375 0.80078-4.9219 1.5859-5.4766 1.6172-3.7969 7.3047-2.4141 11.52 2.4453 7.4375 17.176 9.9844 23.832 7.3633h-0.003906c2.4766-0.93359 4.7344-2.3672 6.6289-4.2109-4.9414-2.4531-10.27-4.0273-15.75-4.6562-2.8008-0.26172-2.8281-4.7109 0-4.418 6.4492 0.73438 12.715 2.6211 18.496 5.5703 0.68359-1.1328 1.207-2.3516 1.5625-3.625-5.3008-1.2383-10.66-2.0352-15.492-2.7695-2.8008-0.41016-1.625-4.6875 1.1758-4.2422 4.7734 0.70703 9.8398 1.5039 14.875 2.6836 0-0.03125 0.03125-0.058594 0-0.11719l0.003906-0.003906c-1.0469-0.17969-2.0469-0.55859-2.9453-1.1211-2.0078-1.2969-3.6445-3.0938-4.75-5.2148z"/>
  <path d="m243.48 340.42c-1.3828-0.38672-2.7227-0.91016-4.0039-1.5625-0.10547 1.6797-0.015625 3.3594 0.27734 5.0156 0.17969 0.79688 0.50391 1.75 0.79688 2.625 0.84766-2.0859 1.8242-4.1172 2.9297-6.0781z"/>
  <path d="m249.96 362.16c-0.18359 0.63672-0.32031 1.2852-0.41406 1.9414-0.085937 0.62109-0.11328 2.9492 0.35547 3.1836h-0.003906c0.59766 0.22266 1.0273 0.75391 1.1211 1.3828 0.4375 0.03125 0.91406 0.03125 1.3125 0.03125-0.60938-1.2031-1.1523-2.4414-1.6172-3.7109-0.375-0.90625-0.62891-1.8555-0.75391-2.8281z"/>
  <path d="m253.96 358.83c0.41406 1.4453 0.23438 3.0039 0.79688 4.418 0.51953 1.6172 1.2539 3.1523 2.1875 4.5703 2.5-1.1133 4.8398-2.5586 6.9492-4.3008-1.0312-0.80859-1.8828-1.8203-2.5-2.9766-1.4727-2.6523-2.8867-7.1875-5.8633-8.457-4.5664-1.9414-14.699-1.2344-14.875 5.6875v0.10156c0.019532 0.058594 0.0625 0.11328 0.11719 0.14453 0.875 1.0664 1.5586 2.2695 2.0312 3.5664 0.54297 1.5859 1.2031 3.1328 1.9727 4.625 0.1875 0.42578 0.22656 0.90234 0.11719 1.3555l0.29687 0.085938c-0.76172-3.6875 0.16797-7.5234 2.5352-10.457 0.94141-0.92969 2.3047-1.293 3.582-0.95703 1.2812 0.33594 2.2891 1.3203 2.6523 2.5938z"/>
  <path d="m236.18 364.76c1.207 0.44141 2.4727 0.87891 3.7969 1.3125-0.99219-2.3086-2.1641-4.5352-3.5-6.6602-0.10156 0.32422-0.16016 0.66406-0.17578 1.0039-0.03125 1.0898 0.058594 2.1875-0.03125 3.2422-0.015625 0.34375-0.089844 0.74609-0.089844 1.1016z"/>
  <path d="m271.2 100.02c1.5625-2.3594 5.3945-0.14844 3.8008 2.2109-3.5273 5.5273-5.4609 11.914-5.5977 18.469 0.0625 0.33203 0.050781 0.67188-0.027344 1-0.007812 0.17578 0.003906 0.35547 0.027344 0.53125 6.4531-7.3203 9.7656-16.887 9.2188-26.629 0.085937-6.9336-0.90625-13.844-2.9453-20.473-4.1953 4.6367-7.4648 10.035-9.625 15.906-1.6484 4.8125-3.9375 18.473-0.73438 25.156 0.71875-5.7656 2.7266-11.293 5.8828-16.172z"/>
  <path d="m382.31 507.18c0.11719 0.027344 0.20703 0.058594 0.32422 0.085937 2.0312 0 4.0625 0 6.0977 0.058594 4.1016 0.40625 8.2383 0.21484 12.281-0.55859 5.7773-1.2734 11.156-3.9336 15.672-7.75-12.223-0.44141-25.062-0.55469-34.375 8.1641z"/>
  <path d="m373.53 468.42c-1.1484-0.38672-2.2227-0.96484-3.1797-1.7109-2.5352 1.457-3.9062 4.332-3.4453 7.2188 0.35938 1.7734 1.0703 3.457 2.0898 4.9492 0.60938 0.5625 1.2734 1.0625 1.9766 1.5-0.29297-2.3906-0.15234-4.8164 0.41406-7.1562 0.70312-1.6523 1.3633-3.2383 2.1445-4.8008z"/>
  <path d="m428.75 418.69c-7.918 2.5-14.902 7.3125-20.059 13.816 7.2109-0.13281 14.363-1.3125 21.234-3.5-0.30078-3.4766-0.71484-6.9258-1.1758-10.316z"/>
  <path d="m389.62 526.86c3.1445-1.3164 6.1758-2.8828 9.0742-4.6797-5.3672 0.23047-10.633 1.5195-15.496 3.7969-3.0234 1.1875-5.7539 3.0039-8.0156 5.332-0.53125 0.67969-4.2383 5.7461-1.4688 5.7734 6.5117 0.085938 12.43 1.9727 18.375-2.1523h-0.003906c3.6484-2.2422 6.6797-5.3594 8.8125-9.0703-3.2305 2.0312-6.6211 3.7969-10.137 5.2734-2.6172 1.0898-3.7344-3.1836-1.1406-4.2734z"/>
  <path d="m429.24 448.56c-0.38672-0.32812-0.76562-0.67969-1.207-1.0312-8.7188-7.3945-21.652 5.125-25.629 12.074-2.0547 4.0664-3.7305 8.3164-5.0078 12.688 8.4492-10.461 19.402-18.621 31.844-23.73z"/>
  <path d="m390.91 496.9c7.875-3.7422 17.559-2.8555 26.309-2.3594v0.003906c-2.7266-2.3203-6.1484-3.668-9.7227-3.8281-7.4805 0.53906-14.621 3.3398-20.473 8.0312 1.4414-0.73047 2.7852-1.3477 3.8867-1.8477z"/>
  <path d="m372.5 443.88c2.5039-1.3867 4.7422 2.4141 2.2344 3.8008-7.4375 4.1211-4.9492 16.996 3.7461 16.344 8.0664-0.55859 14.789-10.25 16.938-16.996 2.1172-6.0977 5.25-11.793 9.2656-16.848 4.8516-6.5312 11.461-11.547 19.059-14.461-5.2383-0.55078-10.527-0.25391-15.672 0.875-1.1719 0.32422-2.3867-0.36328-2.7109-1.5352s0.36328-2.3867 1.5352-2.7109c11.133-2.7969 23.215-0.35156 34.465 0 16.82 0.50391 26.895-11.578 32.109-26.156 1.9414-5.4766 6.0664-14.227 2.0625-19.586l-0.003906-0.003907c-4.3477-5.668-10.746-9.4023-17.82-10.398-9.1055-2.2656-13.082-9.8086-17.145-17.203-1.3828-2.5039 2.4453-4.7422 3.8008-2.2383 2.3203 5.0234 6.043 9.2695 10.727 12.223 6.3594-9.6602 13.562-16.848 13.52-29.812h-0.003906c0.45703-10.25-2.0234-20.422-7.1562-29.312-3.3164 9.7227-8.3359 18.781-14.816 26.75-1.75 2.2344-4.8125-0.91406-3.0938-3.125 9.1016-11.969 14.859-26.145 16.688-41.07 1.8281-14.93-0.34375-30.074-6.2891-43.887-5.918-13.52-22.031-20.297-27.84-34.316-3.6836-8.8633-4.1523-16.879-12.461-23.152h0.003906c-6.1562-3.6523-13.051-5.875-20.18-6.5117 16.523 19.324 35.375 43.035 38.027 68.637 2.8008 26.898-7 50.02-30.625 63.512-21.715 12.43-43.156 6.125-65.336 0.058594-12.492-3.418-23.395-11.602-36.145-14.551v-0.003906c-6.8867-1.7344-14.02-2.293-21.094-1.6484 0.03125 0.085938-21.684 3.832-13.125 8.5156 2.4062 1.4609 5.0859 2.4141 7.875 2.7969 0.38281 0.023438 0.75391 0.15625 1.0625 0.38281 3.1172-1.5703 6.5312-2.4648 10.016-2.625 2.8281 0.17578 2.8281 4.5938 0 4.418-3.9375-0.79687-6.8945 1.0586-8.8945 5.5938v0.003907c1.8398 1.5273 3.9609 2.6797 6.2422 3.3906 3.7109 0.875 7.2188 1.5625 11.016 2.0898 4.1953 0.125 8.3633 0.64062 12.461 1.5312 2.207 0.55078 4.3125 1.4336 6.25 2.625 0.58594 0.41016 1.1445 0.82812 1.75 1.2695 1.0312-1.7969 2.0898-3.625 3.1484-5.4219-4.1211-7.0703-10.25-6.8633-17.086-8.5742-1.168-0.32031-1.8594-1.5234-1.543-2.6953 0.31641-1.1719 1.5234-1.8633 2.6953-1.543 9.7773 2.4141 21.355 3.9141 21.031 16.699 1.6367 0.11719 3.2461-0.47266 4.418-1.6211 0.054687-0.21875 0.125-0.43359 0.20703-0.64844 0.76562-2.2383 4.5117-2.0352 4.332 0.55859l-0.003907 0.003906c-0.039062 0.74609-0.15625 1.4883-0.35156 2.207 0.21094 6.3906 16.348 7.875 23.301 4.3008-6.6836-1.5625-13.961-4.5938-15.875-11.426h-0.003906c-0.25391-1.1523 0.4375-2.3047 1.5742-2.6172 1.1406-0.31641 2.3242 0.31641 2.6953 1.4375 1.7969 6.4531 11.227 8.1914 16.852 9.1289h0.003906c0.38281 0.078125 0.73047 0.27344 1 0.55859 0.625 0.22656 1.1094 0.72656 1.3125 1.3594 3.3594 9.8945-7.4375 19.117-16.879 19-6.9336 0.60938-13.793-1.7812-18.852-6.5625-2.0898-2.2656-6.0977-2.9453-8.8125-4.6797v-0.003906c-0.066406 0.56641-0.16406 1.125-0.29297 1.6758-0.13672 0.64844-0.38281 1.2656-0.73438 1.8281 4.25 0.89453 7.9141 3.5664 10.062 7.3398 3.2812 6.4844 3.4648 14.102 0.5 20.734-2.9766 6.3047-12.988 10.34-19.531 12.664 8.0938 12.941 18.465 18.773 32.074 25.129 0.875 0.41016 1.8555 0.875 2.8555 1.3516 0.92969-0.16016 1.8516 0.29297 2.2969 1.1211 5.668 3.2422 11.93 5.3164 18.41 6.0977 5.832 0.03125 16.941-0.03125 18.352-0.03125 1.9727-1.4141 3.8906-2.8867 5.8008-4.332h0.003906c-9.3203-1.2227-17.461-6.9062-21.828-15.227-3.7695-8.1289-8.9258-19.113-3.7695-27.953 5.8594-8.6445 14.32-15.195 24.152-18.707 2.6836-0.91406 3.832 3.3594 1.1523 4.2695-11.578 3.9766-27.484 17.113-21.504 30.625 5.1523 11.664 9.3047 19.883 22.977 22.535 9.4102 1.332 18.992 0.67969 28.133-1.9141 4.6094-1.4336 9.5078-1.6562 14.227-0.64844 2.6523 0.94141 1.5 5.2148-1.1758 4.2383-6.4531-2.2969-14.375 1.8867-20.594 3.2422-5.043 0.75-10.168 0.82031-15.23 0.20703-0.12109 0.14062-0.26172 0.26953-0.41016 0.38281-5.7148 3.6797-11.254 9.7227-17.91 11.695-3.5664 1.0312-7.125 0.55859-10.637 1.4727-6.7148 1.707-10.75 7.1836-2.9141 8.9531 2.7969 0.62109 1.6172 4.8594-1.1523 4.2422-2.0156-0.31641-3.9883-0.89453-5.8594-1.7109-3.8789 1.0234-6.918 4.0312-7.9805 7.8984-0.94531 3.6211-0.94531 8.8086 3.5938 9.3359h-0.003906c2.7188-3.4688 6.7969-5.6055 11.195-5.8633 2.8555-0.20703 2.8281 4.2148 0 4.418v0.003906c-2.8906-0.015625-5.6406 1.25-7.5117 3.4531-1.8672 2.207-2.668 5.125-2.1836 7.9766 0.40625 0.58594 0.53516 1.3164 0.35547 2.0039 1.4727 6.1875 7 11.375 13.758 7.4805h0.003906c0.24609-0.125 0.51563-0.21484 0.78906-0.26563 0.019531-4.9062 2.6602-9.4258 6.9258-11.848z"/>
  <path d="m329.7 323.22c6.0977 4.918 27.695 4.6797 27.309-6.5977-7.9844 5.9492-27.309 5.0664-31.105-3.3906v0.003906c-1.9766 0.22266-3.9727 0.22266-5.9492 0-0.51953 0.89062-1.2461 1.6406-2.1211 2.1875 0.53125 0.0625 5.8945 2.1875 6.4531 2.5078 2.1758 1.0469 3.5898 3.7852 5.4141 5.2891z"/>
  <path d="m429.56 453.19c-12.934 5.543-24.023 14.66-31.961 26.277 6.6875-0.0625 15.117-6.0117 19.828-8.6016h-0.003907c3.5078-1.4727 6.5156-3.918 8.668-7.0547 2.1523-3.1328 3.3555-6.8203 3.4688-10.621z"/>
  <path d="m487.21 482.53c-0.054688 0.03125-0.11719 0.050781-0.17969 0.058594-5.7656 1.7031-10.73 5.4141-14 10.461-2.1016 3.6836-3.9766 7.4883-5.6289 11.395 0.55859-1.1445 5.8008-3.7969 6.7148-4.625h0.003906c1.5469-1.2383 2.9961-2.5977 4.3281-4.0625 3.1875-3.6758 5.9141-7.7188 8.1289-12.051 0.25-0.36719 0.46094-0.76172 0.63281-1.1758z"/>
  <path d="m513.58 465c-7.2852-7.3281-16.84-11.969-27.105-13.168 0.09375 0.20703 0.17969 0.37891 0.26562 0.55859h0.003907c0.69141 1.5078 1.3008 3.0508 1.8242 4.625 3.0898 3.4297 6.8086 6.2266 10.957 8.25 4.7773 2.6641 10.145 4.082 15.617 4.125 4.4414 0.17188 0.58594-2.418-1.5625-4.3906z"/>
  <path d="m493.2 496.16c0.027344 0.62109 0.058594 1.3125 0.11328 1.918 0.14844 2.1875-2.4727 2.6523-3.7422 1.4453v-0.003906c-2.5703 3.0156-3.8711 6.9141-3.6211 10.867-0.25 3.1133 0.26563 6.2383 1.5039 9.1055 0.17578 0.32422 4.418 6.8945 5.918 3.0312 1.1758-3.0625 4.0625-4.1523 4.2422-7.9805 0.085937-2.0039 0.14453-4.0391 0.085937-6.0391l0.003907 0.003907c0.35938-4.5742-1.2852-9.0781-4.5039-12.348z"/>
  <path d="m498.96 448.33c-1.2383 0-3.2969 0-5.3906 0.17578 5.9922 1.7695 11.633 4.5586 16.672 8.2461 3.8086 2.3672 7.25 5.2734 10.223 8.6328-0.20703-9.8984-12.312-17.086-21.504-17.055z"/>
  <path d="m341.02 461.12c0.070313 2.1914 0.39453 4.3633 0.96875 6.4805 0.21094-0.60156 0.50391-1.168 0.875-1.6797 1.5352-1.9414 2.7109-4.1836 4.2148-6.1875 0.85547-1.1797 2.0312-2.0938 3.3906-2.625-1.6719-1.6758-2.9297-3.7109-3.6836-5.9492-3.0859 2.4961-5.1406 6.043-5.7656 9.9609z"/>
  <path d="m440.7 514.87c-0.51562-1.4883-0.86328-3.0273-1.0352-4.5938-1.7461-3.9336-4.6133-7.2656-8.2461-9.5742-0.5 0.085937-0.875 0.20703-1.3555 0.32422v-0.003906c5.3906 5.7344 9.0586 12.871 10.578 20.594 0.089844-3.3594-0.078125-7.25 0.058594-6.7461z"/>
  <path d="m425.86 502.73c-2.8008 1.9414-3.0977 4.9492-0.76953 9.1016h-0.003907c1.1953 3.1367 2.8555 6.0781 4.9219 8.7188 1.1758 3.832 3.1484 4.7734 5.918 2.7695h0.003906c-1.7305-5.2617-3.8672-10.383-6.3945-15.312-1.043-1.8789-2.2773-3.6445-3.6758-5.2773z"/>
  <path d="m482.59 479.46c-1.6641 0.14844-3.3125 0.44141-4.9219 0.875-3.8359 1.4336-7.1914 3.9141-9.6914 7.1562-1.8555 1.7969-8.3125 13.051-4.9492 15.906 0.32422-0.76562 0.73438-1.5312 1.1211-2.3828 1.6406-4.1445 3.7344-8.0977 6.2422-11.785 3.1914-4.2188 7.3828-7.5742 12.199-9.7695z"/>
  <path d="m461.82 475.56c-0.47266-0.76562-0.91406-1.5312-1.3867-2.3281-1.3164-2.4648-2.9336-4.7617-4.8125-6.832-4.375-6.2852-10.609-11.043-17.824-13.613-0.20703-0.058593-0.37891-0.11719-0.58594-0.17578v0.003907c-0.38281 2.168-0.078126 4.4023 0.875 6.3906 1.5625 4.8828 4.5938 9.168 8.6797 12.266 4.082 3.1016 9.0234 4.8633 14.148 5.0547 0.11719 0.11719 0.23438 0.20703 0.35547 0.32422 0.41016-0.058594 0.82422-0.089844 1.2383-0.089844-0.1875-0.25-0.42578-0.5625-0.6875-1z"/>
  <path d="m312.2 169.39c0.375-1.1211 1.5586-1.75 2.6953-1.4375 1.1406 0.31641 1.832 1.4648 1.5742 2.6211-1.8242 6.332 0.38672 11.695 1.75 17.406 0.027344 0.066406 0.039063 0.13672 0.03125 0.20703 0.23438 0.97266 0.4375 1.9727 0.58984 3.0039l0.26172 0.26172h0.003906c-0.43359-6.918 0.21094-13.867 1.9141-20.586 1.0469-3.0234 2.4336-5.9219 4.125-8.6328-0.03125-0.058594-0.0625-0.085937-0.0625-0.14844h0.003906c-0.82422-5.4414-2.1016-10.801-3.8281-16.023-0.55078-0.99609-0.625-2.1836-0.20703-3.2422-2.332 2.4922-4.3672 5.25-6.0547 8.2188-4.1562 7.4375-7.4375 12.875-7.2812 21.875 0.089844 3.7422 1.8594 7.2461 4.8125 9.5469-1.3086-4.2461-1.4219-8.7656-0.32812-13.07z"/>
  <path d="m243.95 80.5c-0.90234-4.8672-1.375-9.8047-1.4141-14.758 0-1.2188 0.99219-2.207 2.2109-2.207s2.2109 0.98828 2.2109 2.207c0.12109 8.7852 1.6328 17.5 4.4727 25.812 12.285-16.82 4.7734-39.035-9.3672-53.348-0.86328-0.6875-1.4766-1.6367-1.75-2.707-0.019531 0.089844-0.050781 0.17578-0.085938 0.26172l-2.5508 6.6758c-1.3008 6.8906-1.2305 13.969 0.20703 20.828 1.082 6.0352 3.1328 11.852 6.0664 17.234z"/>
  <path d="m344.96 285.02c0.46484-0.078125 0.9375-0.12891 1.4141-0.15234 8.25-0.20703 11.785-5.0039 17.855-9.2188l-0.003907 0.003907c1.9023-1.332 4.0586-2.2539 6.332-2.7148 0.35938-1.1914 0.42969-2.4531 0.20703-3.6797-0.66406-2.2578-1.8672-4.3203-3.5-6.0117-2.1758-2.6758-4.5273-5.2031-7.043-7.5664-2.8516 0.49219-5.7617 0.55078-8.6289 0.17578 0.875 6.5117 2.5312 12.812 0.32422 19.25-1.457 3.832-3.8477 7.2383-6.957 9.9141z"/>
  <path d="m289.62 137.93c1.6484-2.2656 5.5078-0.058594 3.7969 2.2383v0.003906c-2.6211 4.5938-3.5859 9.9492-2.7383 15.172 11.812-3.5664 12.25-20.004 10.102-30.312v-0.003906c-0.76953-3.8281-1.8438-7.5898-3.207-11.25-0.63672-1.3633-0.84375-2.8906-0.58984-4.375-0.51953 0.73828-1.0781 1.4453-1.6797 2.1172-6.8594 7.1328-11.016 16.438-11.75 26.305-0.007813 3.8828 0.91016 7.7109 2.6758 11.168-0.015625-3.9453 1.1641-7.8047 3.3906-11.062z"/>
  <path d="m262.21 124.69-0.53125-0.875h0.003906c-4.7812-4.3008-10.879-6.8438-17.297-7.2188-2.8281-0.29297-2.8555-4.7109 0-4.418 3.5273 0.37109 6.9961 1.1523 10.34 2.3281-2.6094-4.3164-6.1523-7.9883-10.371-10.75-4.0508-2.4766-8.7109-3.7695-13.461-3.7422-0.058594 0.058593-6.5625 0.4375-5.9766 1.4688 6.6875 11.145 22.703 27.676 37.293 23.207z"/>
  <path d="m326.49 232.64c-2.4766 1.4727-4.1562 1.0938-6.3047 2.5938 1.3047 1.6836 2.8398 3.1719 4.5625 4.418 2.5938 2.3555 6.7461 3.5 8.6641-0.085938 0.125-0.20703 0.28516-0.38672 0.47266-0.53516-1.7109-3.1484-3.3906-6.3594-5.2773-9.2734-0.32422 1.1914-1.0781 2.2188-2.1172 2.8828z"/>
  <path d="m183.18 164.24c4.0625 10.398 15.609 22.008 27.809 23.215-4.7188-5.1641-8.4727-11.129-11.078-17.621-0.97266-2.6758 3.2969-3.8281 4.2422-1.1758h0.003906c2.1641 6.7852 5.957 12.934 11.047 17.91 0.09375 0.070313 0.18359 0.14844 0.26172 0.23828 5.5391-7.75-7.7734-26.66-12.609-32.199-6.2031-6.9375-13.613-12.684-21.875-16.969-5.25-2.6836-0.23047 16.793-0.46875 16.793 1.4609 3.2109 1.4297 6.6836 2.668 9.8086z"/>
  <path d="m333.09 290.64c1-0.55859 2.0625-1.207 3.1484-1.8555h0.003907c3.2734-2.9961 5.1328-7.2305 5.125-11.668-0.14844 0-0.29688 0.03125-0.53125 0.03125-1.8281 0-3.6523 0.70703-5.5117 0.70703-7.3945 0-18.086-2.0664-23.445 4.1836 0.53125 0.20703 1.0586 0.41016 1.5625 0.58984 6.4219 2.5039 12.992 5.3594 19.648 8.0117z"/>
  <path d="m323.63 249.63c-0.44141 1.4688-0.98437 2.9062-1.6211 4.3008 0.96484-0.44141 1.9023-0.94141 2.8008-1.5 2.2891-1.25 3.9219-3.4336 4.4766-5.9805-1.3594 0.015625-2.7031-0.29688-3.9141-0.91406-0.20703-0.11328-0.47266-0.26172-0.70703-0.41016-0.38281 1.5039-0.59375 3.2383-1.0352 4.5039z"/>
  <path d="m213.4 456.93c-0.19531 0.089843-0.40625 0.14844-0.62109 0.17578-1.9922 0.65625-4.0273 1.1758-6.0938 1.5625-1.3398 0.65625-2.4453 1.7148-3.1523 3.0312-1.3945 2.8594-1.6562 6.1406-0.73828 9.1875 1.668-2.8984 3.7305-5.5469 6.125-7.875 2.0625-1.7969 4.5664-3.0039 7.25-3.5-0.49609-0.94531-0.91016-1.9297-1.2383-2.9453-0.49609 0.125-1.0312 0.21484-1.5312 0.36328z"/>
  <path d="m340.48 431.71c-0.12109 0.019531-0.23828 0.046874-0.35547 0.089843-2.9883-0.1875-5.7891 1.4727-7.0703 4.1797-0.33203 0.66797-0.58984 1.3711-0.76562 2.0977 2.4492-2.168 5.7148-3.1719 8.957-2.7422-0.45703-1.1562-0.71875-2.3828-0.76562-3.625z"/>
  <path d="m341.75 414.19c-1.3594 0.76953-2.5898 1.7422-3.6562 2.8867 1.2422-0.035157 2.4844 0.03125 3.7148 0.20312 1.4023 0.19531 2.7422 0.6875 3.9375 1.4453 1.5039-1.543 3.3672-2.6875 5.4219-3.3281 0.027343-0.29297 0.035156-0.58594 0.03125-0.875-0.16797-0.11719-0.31641-0.25391-0.4375-0.41797-1.707-2.2734-7.1289-1.0664-9.0117 0.085938z"/>
  <path d="m183.56 424.81c-1.7148 1.3672-3.2773 2.918-4.6562 4.625 0.26562-0.11719 0.53516-0.26562 0.82812-0.38672 1.6953-0.46094 3.457-0.64844 5.2148-0.55469 3.1484 0 6.1875 0.82422 9.25 1.0898-0.054688-2.1289 0.32812-4.2422 1.1172-6.2188-3.832-2.043-8.5312-1.4648-11.754 1.4453z"/>
  <path d="m191.37 442.38c-2.8555-0.62109-9.3047 0.29297-10.66 3.1797h-0.003906c-0.84766 2.1016-1.1484 4.3789-0.875 6.6289 0.03125 0.35547 0 1.4453 0 2.4453 0.53125-0.38672 1.0312-0.79687 1.4141-1.0312 1.625-1 3.2969-1.8281 4.9492-2.7383v-0.003906c2.1016-1.0703 4.4531-1.5586 6.8086-1.4102-0.41016-1.2695-0.76562-2.5625-1.1797-3.832h-0.003906c-0.35156-1.043-0.50391-2.1406-0.44922-3.2383z"/>
  <path d="m342.02 424.41c0.29297-0.73047 0.64062-1.4375 1.0312-2.1172-2.0742-0.93359-4.4102-1.1133-6.6016-0.50391-1.3477 0.44922-2.8359 0.042969-3.7695-1.0312-1.6484-2.2344 0.82812-5.1523 2.2695-6.7461 3.9375-4.3281 12.25-7.6562 17.5-4.1211 0.73828-1.4727 1.8711-2.707 3.2734-3.5664 5.0664-3.125 10.34-2.1211 15.523-3.6523-5.7773 0.625-11.617 0.03125-17.148-1.75-4.0352-1.5703-8.0273-3.2148-11.969-4.9375-3.9922 8.9844-10.246 16.777-18.148 22.625 1.6953 1.2422 3.5352 2.2695 5.4844 3.0625 1.5 0.53125 3.0312 0.70703 4.5312 1.1211 2.6328 0.71094 5.3398 1.0312 8.0234 1.6172z"/>
  <path d="m296.62 425.76c18.234-4.5664 33.582-14.402 41.535-31.547-1.6797-0.73438-3.3867-1.4453-5.0664-2.2383v-0.003906c-12.992-5.1797-23.965-14.414-31.285-26.332-1.5 0.35156-3.1484 0.73438-4.8125 1.0586 0.050781 0.21094 0.070312 0.42969 0.058594 0.64844-1.8867 18.59-20.59 36.203-36.852 43.598-4.0312 1.2891-8.2812 1.7344-12.492 1.3125-6.332 0.11719-8.043 3.5352-12.934 6.2461h0.003906c-1.6211 1.332-3.8086 1.7422-5.8008 1.0898-0.76562-0.11719-1.9727-1.4141-2.3594-1.7109-2.6758-3.7383-6.9062-4.1523-12.688-1.2344 2.5117 0.54687 4.6602 2.1719 5.8633 4.4453 0.60156 1.0469 0.24219 2.3867-0.80469 2.9922-1.0508 0.60547-2.3906 0.24219-2.9922-0.80469-2.6836-4.7734-10.195-2.0039-14.082-0.4375-2.5898 1.0312-2.707 2.5938-2.8555 5.2148-0.03125 0.26562-0.14844 1.207-0.17578 2.0898h-0.003907c0.19922 0.20703 0.33984 0.46094 0.41016 0.73828 4.3711-1.2383 8.9727-1.4375 13.434-0.58984 2.8008 0.32422 2.832 4.7422 0 4.418-3.7422-0.4375-9.543-1.3555-12.871 0.79297-3.4688 2.2656-4.8203 6.6836-3.2109 10.5 1.0312 2.5078 1.1211 4.9492 3.6836 6.5117 1.5742 1.3828 3.6602 2.0352 5.7422 1.7969 2.625-0.64844 5.1523-1.5625 7.7734-2.0625-0.14844-0.875-0.26172-1.6797-0.35547-2.4766-1.2344-10.984 8.1016-14.316 16.555-14 2.832 0.11719 2.8594 4.5352 0 4.418l0.003906 0.003907c-4.0156-0.53125-7.9961 1.2227-10.316 4.5391-2.3242 3.3203-2.6055 7.6602-0.73047 11.25 3.0625 7.75 8.6914 3.2695 13.672 0.35547 6.5352-3.832 13.402 4.2695 21.297-0.97656 10.84-7.2148 19.973-16.73 30.781-24.094-8.8359-0.11719-20.328-0.94531-24.062 6.7148-1.2695 2.5625-5.0664 0.32422-3.8281-2.1875 6.2969-12.863 29.156-7.3555 39.766-10.039z"/>
  <path d="m219.54 307.29c-6.9219-6.2695-15.609-6.6562-24.473-7.7656-1.0469-0.13281-1.0352 1.5078 0 1.6406 8.3906 1.0508 16.742 1.3359 23.312 7.2852 0.78125 0.70312 1.9453-0.45312 1.1602-1.1602z"/>
  <path d="m224.96 303.53c-5.6211-6.8828-12.609-12.523-20.523-16.566-0.38672-0.19141-0.85547-0.050782-1.0742 0.32422-0.21484 0.37109-0.10938 0.85156 0.25 1.0938 7.6758 3.8984 14.469 9.3359 19.953 15.977 0.59375 0.83984 2.0195 0.023437 1.3945-0.82812z"/>
  <path d="m215.73 194.08c9.9844 11.293 18.98 22.02 31.727 30.129 15.395 9.8008 31.035 19.25 46.57 28.812 1.7969 1.1094 3.4531-1.7227 1.6523-2.832-13.812-8.5234-27.633-17.02-41.406-25.602l0.003907 0.003906c-13.672-9.0312-25.891-20.098-36.227-32.812-1.4023-1.6055-3.7148 0.71875-2.3203 2.3008z"/>
  <path d="m437.86 461.6c0.48438-2.0508-2.6758-2.9258-3.1641-0.875-2.625 11.172-4.6094 23.188-11.375 32.641-5.5195 7.6953-9.0156 17.938-16.992 23.449-1.7266 1.1953-0.085937 4.0391 1.6562 2.8359 8.6289-5.9531 11.992-16.012 17.938-24.293 7.1016-9.957 9.1484-21.941 11.938-33.758z"/>
  <path d="m492.45 492.91c-0.20312-2.668-0.30859-5.3398-0.3125-8.0156h0.003907c0-0.90625-0.73438-1.6406-1.6406-1.6406s-1.6406 0.73438-1.6406 1.6406c0 2.6758 0.10547 5.3477 0.3125 8.0156 0.15234 2.0898 3.457 2.1094 3.2773 0z"/>
  <use x="70" y="625.625" xlink:href="#u"/>
  <use x="86.054688" y="625.625" xlink:href="#d"/>
  <use x="96.839844" y="625.625" xlink:href="#a"/>
  <use x="111.679687" y="625.625" xlink:href="#g"/>
  <use x="126.4375" y="625.625" xlink:href="#b"/>
  <use x="136.894531" y="625.625" xlink:href="#a"/>
  <use x="151.730469" y="625.625" xlink:href="#i"/>
  <use x="175.007812" y="625.625" xlink:href="#c"/>
  <use x="190.664062" y="625.625" xlink:href="#f"/>
  <use x="212.539062" y="625.625" xlink:href="#h"/>
  <use x="230.847656" y="625.625" xlink:href="#a"/>
  <use x="245.683594" y="625.625" xlink:href="#f"/>
  <use x="267.558594" y="625.625" xlink:href="#t"/>
  <use x="284.402344" y="625.625" xlink:href="#g"/>
  <use x="299.164062" y="625.625" xlink:href="#c"/>
  <use x="314.824219" y="625.625" xlink:href="#c"/>
  <use x="330.480469" y="625.625" xlink:href="#s"/>
  <use x="337.980469" y="625.625" xlink:href="#b"/>
  <use x="70" y="647.5" xlink:href="#r"/>
  <use x="79.515625" y="647.5" xlink:href="#d"/>
  <use x="90.304688" y="647.5" xlink:href="#e"/>
  <use x="105.332031" y="647.5" xlink:href="#q"/>
  <use x="135.742188" y="647.5" xlink:href="#b"/>
  <use x="146.199219" y="647.5" xlink:href="#p"/>
  <use x="161.773438" y="647.5" xlink:href="#a"/>
  <use x="184.222656" y="647.5" xlink:href="#o"/>
  <use x="202.53125" y="647.5" xlink:href="#e"/>
  <use x="217.558594" y="647.5" xlink:href="#n"/>
  <use x="233.132812" y="647.5" xlink:href="#m"/>
  <use x="256.320312" y="647.5" xlink:href="#l"/>
  <use x="272.355469" y="647.5" xlink:href="#d"/>
  <use x="283.140625" y="647.5" xlink:href="#e"/>
  <use x="298.171875" y="647.5" xlink:href="#k"/>
  <use x="305.667969" y="647.5" xlink:href="#a"/>
  <use x="320.503906" y="647.5" xlink:href="#j"/>
  <use x="333.472656" y="647.5" xlink:href="#b"/>
 </g>
</svg>
