<?xml version="1.0" encoding="UTF-8"?>
<svg width="700pt" height="700pt" version="1.1" viewBox="0 0 700 700" xmlns="http://www.w3.org/2000/svg" xmlns:xlink="http://www.w3.org/1999/xlink">
 <defs>
  <symbol id="u" overflow="visible">
   <path d="m14.656-0.875c-0.76172 0.39844-1.5547 0.69531-2.375 0.89062-0.8125 0.19531-1.6641 0.29688-2.5469 0.29688-2.6562 0-4.7617-0.73828-6.3125-2.2188-1.5547-1.4883-2.3281-3.5039-2.3281-6.0469 0-2.5508 0.77344-4.5664 2.3281-6.0469 1.5508-1.4883 3.6562-2.2344 6.3125-2.2344 0.88281 0 1.7344 0.10156 2.5469 0.29688 0.82031 0.19922 1.6133 0.49609 2.375 0.89062v3.2969c-0.76172-0.51953-1.5117-0.89844-2.25-1.1406-0.74219-0.23828-1.5234-0.35938-2.3438-0.35938-1.4688 0-2.625 0.46875-3.4688 1.4062-0.83594 0.9375-1.25 2.2344-1.25 3.8906 0 1.6484 0.41406 2.9375 1.25 3.875 0.84375 0.9375 2 1.4062 3.4688 1.4062 0.82031 0 1.6016-0.11719 2.3438-0.35938 0.73828-0.23828 1.4883-0.61719 2.25-1.1406z"/>
  </symbol>
  <symbol id="d" overflow="visible">
   <path d="m10.719-8.7031c-0.33594-0.15625-0.66797-0.26953-1-0.34375-0.32422-0.082031-0.65625-0.125-1-0.125-0.98047 0-1.7344 0.32031-2.2656 0.95312-0.53125 0.625-0.79688 1.5273-0.79688 2.7031v5.5156h-3.8125v-11.969h3.8125v1.9688c0.48828-0.78125 1.0508-1.3477 1.6875-1.7031 0.64453-0.36328 1.4102-0.54688 2.2969-0.54688 0.13281 0 0.27344 0.007812 0.42188 0.015625 0.14453 0.011719 0.36328 0.03125 0.65625 0.0625z"/>
  </symbol>
  <symbol id="a" overflow="visible">
   <path d="m13.781-6.0156v1.0938h-8.9375c0.09375 0.89844 0.41406 1.5703 0.96875 2.0156 0.55078 0.44922 1.3281 0.67188 2.3281 0.67188 0.80078 0 1.625-0.11719 2.4688-0.35938 0.84375-0.23828 1.7109-0.59766 2.6094-1.0781v2.9531c-0.90625 0.33594-1.8125 0.58984-2.7188 0.76562s-1.8125 0.26562-2.7188 0.26562c-2.1562 0-3.8398-0.54688-5.0469-1.6406-1.1992-1.1016-1.7969-2.6484-1.7969-4.6406 0-1.9453 0.58594-3.4766 1.7656-4.5938 1.1758-1.125 2.8008-1.6875 4.875-1.6875 1.875 0 3.375 0.57031 4.5 1.7031 1.1328 1.125 1.7031 2.6367 1.7031 4.5312zm-3.9375-1.2656c0-0.72656-0.21484-1.3125-0.64062-1.75-0.41797-0.44531-0.96875-0.67188-1.6562-0.67188-0.74219 0-1.3438 0.21094-1.8125 0.625-0.46094 0.41797-0.74609 1.0156-0.85938 1.7969z"/>
  </symbol>
  <symbol id="g" overflow="visible">
   <path d="m7.2031-5.3906c-0.80469 0-1.4062 0.13672-1.8125 0.40625-0.39844 0.27344-0.59375 0.67188-0.59375 1.2031 0 0.48047 0.16016 0.85938 0.48438 1.1406 0.32031 0.27344 0.77344 0.40625 1.3594 0.40625 0.71875 0 1.3203-0.25391 1.8125-0.76562 0.48828-0.51953 0.73438-1.1719 0.73438-1.9531v-0.4375zm5.8438-1.4375v6.8281h-3.8594v-1.7656c-0.51172 0.71875-1.0898 1.2461-1.7344 1.5781-0.63672 0.33203-1.418 0.5-2.3438 0.5-1.2422 0-2.2461-0.35938-3.0156-1.0781-0.77344-0.72656-1.1562-1.6719-1.1562-2.8281 0-1.3945 0.47656-2.4219 1.4375-3.0781 0.96875-0.65625 2.4883-0.98438 4.5625-0.98438h2.25v-0.29688c0-0.60156-0.24219-1.0469-0.71875-1.3281-0.48047-0.28125-1.2266-0.42188-2.2344-0.42188-0.8125 0-1.5742 0.085937-2.2812 0.25-0.71094 0.15625-1.3672 0.40234-1.9688 0.73438v-2.9219c0.82031-0.19531 1.6445-0.34766 2.4688-0.45312 0.82031-0.10156 1.6484-0.15625 2.4844-0.15625 2.1562 0 3.7109 0.42969 4.6719 1.2812 0.95703 0.84375 1.4375 2.2266 1.4375 4.1406z"/>
  </symbol>
  <symbol id="b" overflow="visible">
   <path d="m6.0156-15.359v3.3906h3.9375v2.7344h-3.9375v5.0781c0 0.55469 0.10938 0.92969 0.32812 1.125 0.21875 0.19922 0.65625 0.29688 1.3125 0.29688h1.9688v2.7344h-3.2812c-1.5117 0-2.5859-0.3125-3.2188-0.9375-0.625-0.63281-0.9375-1.707-0.9375-3.2188v-5.0781h-1.9062v-2.7344h1.9062v-3.3906z"/>
  </symbol>
  <symbol id="i" overflow="visible">
   <path d="m9.9688-10.219v-6.4062h3.8594v16.625h-3.8594v-1.7344c-0.52344 0.71094-1.1016 1.2305-1.7344 1.5625-0.63672 0.32031-1.3711 0.48438-2.2031 0.48438-1.4688 0-2.6797-0.58203-3.625-1.75-0.94922-1.1758-1.4219-2.6875-1.4219-4.5312s0.47266-3.3477 1.4219-4.5156c0.94531-1.1758 2.1562-1.7656 3.625-1.7656 0.83203 0 1.5664 0.16797 2.2031 0.5 0.63281 0.32422 1.2109 0.83594 1.7344 1.5312zm-2.5156 7.75c0.82031 0 1.4453-0.29688 1.875-0.89062 0.42578-0.60156 0.64062-1.4727 0.64062-2.6094 0-1.1445-0.21484-2.0156-0.64062-2.6094-0.42969-0.59375-1.0547-0.89062-1.875-0.89062-0.8125 0-1.4336 0.29688-1.8594 0.89062-0.42969 0.59375-0.64062 1.4648-0.64062 2.6094 0 1.1367 0.21094 2.0078 0.64062 2.6094 0.42578 0.59375 1.0469 0.89062 1.8594 0.89062z"/>
  </symbol>
  <symbol id="c" overflow="visible">
   <path d="m8.2031-2.4688c0.82031 0 1.4453-0.29688 1.875-0.89062 0.42578-0.60156 0.64062-1.4727 0.64062-2.6094 0-1.1445-0.21484-2.0156-0.64062-2.6094-0.42969-0.59375-1.0547-0.89062-1.875-0.89062-0.82422 0-1.4531 0.30469-1.8906 0.90625-0.4375 0.59375-0.65625 1.4609-0.65625 2.5938 0 1.1367 0.21875 2.0078 0.65625 2.6094 0.4375 0.59375 1.0664 0.89062 1.8906 0.89062zm-2.5469-7.75c0.53125-0.69531 1.1133-1.207 1.75-1.5312 0.64453-0.33203 1.3828-0.5 2.2188-0.5 1.4688 0 2.6758 0.58984 3.625 1.7656 0.94531 1.168 1.4219 2.6719 1.4219 4.5156s-0.47656 3.3555-1.4219 4.5312c-0.94922 1.168-2.1562 1.75-3.625 1.75-0.83594 0-1.5742-0.16797-2.2188-0.5-0.63672-0.33203-1.2188-0.84766-1.75-1.5469v1.7344h-3.8125v-16.625h3.8125z"/>
  </symbol>
  <symbol id="f" overflow="visible">
   <path d="m0.26562-11.969h3.8281l3.2188 8.125 2.7344-8.125h3.8125l-5.0312 13.094c-0.5 1.332-1.0898 2.2656-1.7656 2.7969-0.66797 0.53125-1.5547 0.79688-2.6562 0.79688h-2.2188v-2.5h1.2031c0.64453 0 1.1133-0.10547 1.4062-0.3125 0.30078-0.21094 0.53125-0.57812 0.6875-1.1094l0.10938-0.34375z"/>
  </symbol>
  <symbol id="h" overflow="visible">
   <path d="m2.0156-15.953h4.1094v6.0781h6.0625v-6.0781h4.1094v15.953h-4.1094v-6.7656h-6.0625v6.7656h-4.1094z"/>
  </symbol>
  <symbol id="t" overflow="visible">
   <path d="m7.8438-8.875c0.86328 0 1.4844-0.16016 1.8594-0.48438 0.375-0.32031 0.5625-0.84766 0.5625-1.5781 0-0.72656-0.1875-1.25-0.5625-1.5625s-0.99609-0.46875-1.8594-0.46875h-1.7188v4.0938zm-1.7188 2.8438v6.0312h-4.1094v-15.953h6.2656c2.1016 0 3.6445 0.35547 4.625 1.0625 0.97656 0.71094 1.4688 1.8242 1.4688 3.3438 0 1.0547-0.25781 1.918-0.76562 2.5938-0.51172 0.67969-1.2773 1.1797-2.2969 1.5 0.5625 0.125 1.0625 0.41797 1.5 0.875 0.44531 0.44922 0.89844 1.1328 1.3594 2.0469l2.2344 4.5312h-4.375l-1.9531-3.9688c-0.38672-0.78906-0.78125-1.332-1.1875-1.625-0.40625-0.28906-0.94531-0.4375-1.6094-0.4375z"/>
  </symbol>
  <symbol id="s" overflow="visible">
   <path d="m1.8438-11.969h3.8125v11.969h-3.8125zm0-4.6562h3.8125v3.125h-3.8125z"/>
  </symbol>
  <symbol id="r" overflow="visible">
   <path d="m9.7031-16.625v2.5156h-2.1094c-0.54297 0-0.92188 0.10156-1.1406 0.29688-0.21094 0.19922-0.3125 0.53906-0.3125 1.0156v0.82812h3.2656v2.7344h-3.2656v9.2344h-3.8281v-9.2344h-1.8906v-2.7344h1.8906v-0.82812c0-1.3008 0.36328-2.2656 1.0938-2.8906 0.72656-0.625 1.8516-0.9375 3.375-0.9375z"/>
  </symbol>
  <symbol id="e" overflow="visible">
   <path d="m7.5312-9.5156c-0.84375 0-1.4922 0.30859-1.9375 0.92188-0.44922 0.60547-0.67188 1.4805-0.67188 2.625 0 1.1484 0.22266 2.0273 0.67188 2.6406 0.44531 0.60547 1.0938 0.90625 1.9375 0.90625 0.83203 0 1.4688-0.30078 1.9062-0.90625 0.44531-0.61328 0.67188-1.4922 0.67188-2.6406 0-1.1445-0.22656-2.0195-0.67188-2.625-0.4375-0.61328-1.0742-0.92188-1.9062-0.92188zm0-2.7344c2.0508 0 3.6562 0.55859 4.8125 1.6719 1.1641 1.1055 1.75 2.6406 1.75 4.6094s-0.58594 3.5117-1.75 4.625c-1.1562 1.1055-2.7617 1.6562-4.8125 1.6562-2.0625 0-3.6797-0.55078-4.8438-1.6562-1.168-1.1133-1.75-2.6562-1.75-4.625s0.58203-3.5039 1.75-4.6094c1.1641-1.1133 2.7812-1.6719 4.8438-1.6719z"/>
  </symbol>
  <symbol id="q" overflow="visible">
   <path d="m12.922-9.9688c0.48828-0.75 1.0625-1.3164 1.7188-1.7031 0.66406-0.38281 1.3984-0.57812 2.2031-0.57812 1.375 0 2.4219 0.42969 3.1406 1.2812 0.71875 0.84375 1.0781 2.0742 1.0781 3.6875v7.2812h-3.8438v-6.2344c0.007812-0.09375 0.015625-0.1875 0.015625-0.28125v-0.4375c0-0.84375-0.125-1.457-0.375-1.8438-0.25-0.38281-0.65234-0.57812-1.2031-0.57812-0.73047 0-1.293 0.30469-1.6875 0.90625-0.38672 0.59375-0.58984 1.4609-0.60938 2.5938v5.875h-3.8438v-6.2344c0-1.3203-0.11719-2.1758-0.34375-2.5625-0.23047-0.38281-0.63672-0.57812-1.2188-0.57812-0.73047 0-1.2969 0.30469-1.7031 0.90625-0.39844 0.60547-0.59375 1.4648-0.59375 2.5781v5.8906h-3.8438v-11.969h3.8438v1.75c0.46875-0.66406 1.0039-1.1719 1.6094-1.5156 0.61328-0.34375 1.2891-0.51562 2.0312-0.51562 0.82031 0 1.5508 0.19922 2.1875 0.59375 0.63281 0.39844 1.1133 0.96094 1.4375 1.6875z"/>
  </symbol>
  <symbol id="p" overflow="visible">
   <path d="m13.859-7.2812v7.2812h-3.8438v-5.5469c0-1.0508-0.027344-1.7695-0.078125-2.1562-0.042969-0.39453-0.12109-0.6875-0.23438-0.875-0.14844-0.25-0.35156-0.44141-0.60938-0.57812-0.25-0.14453-0.54297-0.21875-0.875-0.21875-0.79297 0-1.418 0.3125-1.875 0.9375-0.46094 0.61719-0.6875 1.4648-0.6875 2.5469v5.8906h-3.8125v-16.625h3.8125v6.4062c0.58203-0.69531 1.1953-1.207 1.8438-1.5312 0.64453-0.33203 1.3594-0.5 2.1406-0.5 1.3828 0 2.4297 0.42969 3.1406 1.2812 0.71875 0.84375 1.0781 2.0742 1.0781 3.6875z"/>
  </symbol>
  <symbol id="o" overflow="visible">
   <path d="m2.0156-15.953h4.5781l5.8125 10.938v-10.938h3.8906v15.953h-4.5938l-5.7969-10.938v10.938h-3.8906z"/>
  </symbol>
  <symbol id="n" overflow="visible">
   <path d="m1.7031-4.6562v-7.3125h3.8438v1.2031c0 0.64844-0.007813 1.4609-0.015625 2.4375v1.9688c0 0.96094 0.023438 1.6523 0.078125 2.0781 0.050781 0.41797 0.13281 0.72656 0.25 0.92188 0.15625 0.25 0.35938 0.44531 0.60938 0.57812 0.25781 0.13672 0.55078 0.20312 0.875 0.20312 0.80078 0 1.4258-0.30469 1.875-0.92188 0.45703-0.61328 0.6875-1.4688 0.6875-2.5625v-5.9062h3.8281v11.969h-3.8281v-1.7344c-0.57422 0.69922-1.1836 1.2148-1.8281 1.5469-0.64844 0.33203-1.3555 0.5-2.125 0.5-1.3867 0-2.4453-0.42188-3.1719-1.2656-0.71875-0.85156-1.0781-2.0859-1.0781-3.7031z"/>
  </symbol>
  <symbol id="m" overflow="visible">
   <path d="m13.859-7.2812v7.2812h-3.8438v-5.5781c0-1.0312-0.027344-1.7383-0.078125-2.125-0.042969-0.39453-0.12109-0.6875-0.23438-0.875-0.14844-0.25-0.35156-0.44141-0.60938-0.57812-0.25-0.14453-0.54297-0.21875-0.875-0.21875-0.79297 0-1.418 0.3125-1.875 0.9375-0.46094 0.61719-0.6875 1.4648-0.6875 2.5469v5.8906h-3.8125v-11.969h3.8125v1.75c0.58203-0.69531 1.1953-1.207 1.8438-1.5312 0.64453-0.33203 1.3594-0.5 2.1406-0.5 1.3828 0 2.4297 0.42969 3.1406 1.2812 0.71875 0.84375 1.0781 2.0742 1.0781 3.6875z"/>
  </symbol>
  <symbol id="l" overflow="visible">
   <path d="m2.0156-15.953h6.8125c2.0312 0 3.5859 0.45312 4.6719 1.3594 1.0938 0.89844 1.6406 2.1797 1.6406 3.8438 0 1.6797-0.54688 2.9688-1.6406 3.875-1.0859 0.89844-2.6406 1.3438-4.6719 1.3438h-2.7031v5.5312h-4.1094zm4.1094 2.9844v4.4531h2.2656c0.80078 0 1.4141-0.19141 1.8438-0.57812 0.4375-0.38281 0.65625-0.9375 0.65625-1.6562 0-0.70703-0.21875-1.2539-0.65625-1.6406-0.42969-0.38281-1.043-0.57812-1.8438-0.57812z"/>
  </symbol>
  <symbol id="k" overflow="visible">
   <path d="m1.8438-11.969h3.8125v11.75c0 1.6016-0.38672 2.8281-1.1562 3.6719-0.76172 0.84375-1.8711 1.2656-3.3281 1.2656h-1.8906v-2.5h0.65625c0.72656 0 1.2266-0.16797 1.5-0.5 0.26953-0.32422 0.40625-0.96875 0.40625-1.9375zm0-4.6562h3.8125v3.125h-3.8125z"/>
  </symbol>
  <symbol id="j" overflow="visible">
   <path d="m11.5-11.594v3.125c-0.52344-0.35156-1.043-0.61328-1.5625-0.78125-0.52344-0.17578-1.0625-0.26562-1.625-0.26562-1.0742 0-1.9062 0.3125-2.5 0.9375s-0.89062 1.4961-0.89062 2.6094c0 1.1172 0.29688 1.9844 0.89062 2.6094s1.4258 0.9375 2.5 0.9375c0.59375 0 1.1562-0.085937 1.6875-0.26562 0.53906-0.17578 1.0391-0.44141 1.5-0.79688v3.125c-0.59375 0.23047-1.1992 0.39453-1.8125 0.5-0.61719 0.11328-1.2344 0.17188-1.8594 0.17188-2.1562 0-3.8438-0.55078-5.0625-1.6562-1.2188-1.1133-1.8281-2.6562-1.8281-4.625s0.60938-3.5039 1.8281-4.6094c1.2188-1.1133 2.9062-1.6719 5.0625-1.6719 0.625 0 1.2383 0.058594 1.8438 0.17188 0.61328 0.10547 1.2227 0.26562 1.8281 0.48438z"/>
  </symbol>
 </defs>
 <g>
  <path d="m323.9 148.35 1.4727-0.050781h0.003906c4.3203-0.42578 8.6797-0.078125 12.879 1.0273 0.11719 0.042969 0.24219 0.0625 0.36719 0.066406 0.17969-0.003906 0.35547-0.046875 0.51562-0.12891 0.27344-0.14844 0.46875-0.40234 0.54688-0.69922l0.22266-0.92188c0.14453-0.58594 0.28125-1.168 0.47656-1.8906l0.035157-0.32031c0.12109-0.28125 0.12109-0.59766 0-0.875-0.125-0.28125-0.35938-0.49609-0.65234-0.58984-0.16406-0.0625-0.33984-0.085938-0.51562-0.0625-4.7109-1.6484-9.8477-1.5977-14.527 0.13672h-0.78125c-0.59766 0.003907-1.082 0.49219-1.0781 1.0938 0 0.22266 0 0.4375 0.03125 0.67188h-0.003906c0.054687 0.35937 0.035156 0.72656-0.050781 1.0781-0.125 0.33984-0.070313 0.71875 0.14453 1.0078 0.22266 0.28125 0.55859 0.44531 0.91406 0.45703z"/>
  <path d="m320.8 160.5c0.82422 0.070312 1.5781 0.10547 2.3047 0.10547 3.5352-0.15234 7.0234-0.84766 10.344-2.0586l-0.0625-0.33203v-0.52344l0.46875 0.76562v-0.003906c0.39844-0.074219 0.72266-0.36328 0.84375-0.75 0.11719-0.39062 0.011719-0.8125-0.27734-1.0938l-0.25391-0.22656v-0.003906c-0.20312-0.19922-0.48047-0.31641-0.76562-0.31641h-1.0156c-3.5625-0.10938-7.1289 0.027344-10.676 0.40234-0.042969 0-0.28906-0.027344-0.33594-0.027344-0.49609 0-0.92578 0.33203-1.0547 0.80859l-0.23047 0.91016c-0.082031 0.32812-0.15625 0.65234-0.25 0.97266-0.082031 0.3125-0.023438 0.64453 0.16016 0.91016 0.18359 0.26563 0.47656 0.4375 0.79688 0.47266z"/>
  <path d="m331.79 133.92c-3.5742 0.085937-4.5508 0.27734-5.6875 4.2148-0.20312 0.66406-0.375 1.3555-0.55078 2.0508h-0.003907c-0.089843 0.37109 0.015625 0.76172 0.28125 1.0352 0.27344 0.27344 0.66406 0.38281 1.0391 0.30078 4.4102-1.3164 9.1367-1.1328 13.434 0.52344 0.13672 0.0625 0.28516 0.09375 0.4375 0.097656 0.17578-0.003906 0.34766-0.042969 0.50391-0.125 0.28906-0.15234 0.5-0.42969 0.56641-0.75 0.69922-1.9023 0.042969-4.0391-1.6055-5.2188-2.4648-1.5977-5.3828-2.3438-8.3125-2.1328l0.03125 1.0938z"/>
  <path d="m322.68 154.4c2.5977-0.25781 5.3203-0.38672 8.3125-0.38672h0.84766c1.9453 0 2.6914 0 3.5781 0.94141 0.089843 0.09375 0.19531 0.17188 0.3125 0.23047l0.30469 0.13672 0.20312 0.078125-0.003906-0.003906c0.089844 0.066406 0.18359 0.125 0.27734 0.17578 0.15234 0.074219 0.31641 0.11328 0.48438 0.11328 0.15234 0 0.30078-0.03125 0.4375-0.09375 0.30078-0.13281 0.52344-0.39453 0.60938-0.71094l0.59375-2.1875c0.16016-0.53125-0.10938-1.0977-0.62109-1.3125-3.8008-1.2305-7.8242-1.6133-11.789-1.1094-1.0859 0.050781-2.1367 0.10547-3.1289 0.11719-0.46094 0.007813-0.87109 0.30469-1.0195 0.74219-0.11719 0.35156-0.23047 0.70313-0.33594 1.0625l-0.24219 0.75781c-0.10938 0.35156-0.035156 0.73828 0.19531 1.0234 0.22656 0.30859 0.60156 0.47266 0.98438 0.42578z"/>
  <path d="m334.25 123.13c1.0781 0.19141 2.125 0.4375 3.1719 0.69531 1.2656 0.27344 2.5078 0.66016 3.707 1.1562 0.13672 0.058594 0.28516 0.085937 0.4375 0.082031 0.16016 0.003906 0.32031-0.03125 0.46484-0.097656 0.28125-0.13281 0.49219-0.375 0.58203-0.67188 1.5742-5.5508 3.6406-10.953 6.1719-16.141 1.3516-2.75 9.3398-22.133 4.8906-27.191-0.26562-0.30469-0.67969-0.4375-1.0742-0.34766-0.39062 0.089843-0.70312 0.39453-0.80859 0.78516-0.35156 1.3906-0.72266 2.7812-1.0898 4.168-1.0117 3.8281-2.0625 7.7812-2.7109 11.77-0.035157 0.20312-0.066407 0.73047-0.85156 0.59766-0.32422-0.035156-0.62109-0.19922-0.82422-0.45703-0.20312-0.25781-0.29297-0.58203-0.25391-0.90625 0.61719-3.75 1.6133-7.5156 2.5781-11.156 0.51562-1.9531 1.0273-3.9023 1.4922-5.8672 0.03125-0.60156-0.32031-1.1562-0.875-1.3867-0.25-0.16016-0.55078-0.20703-0.83594-0.13281s-0.52734 0.26562-0.66016 0.52734c-1.457 2.1406-2.3438 4.6133-2.5742 7.1914-0.13672 0.83984-0.26953 1.6914-0.46875 2.5547-0.54688 2.3477-0.94531 4.7383-1.3125 7.0508l-0.37109 2.1875c-0.03125 0.18359-0.074218 0.75391-0.89844 0.61328-0.32031-0.035156-0.60938-0.20312-0.80469-0.46094-0.19531-0.25391-0.27734-0.57812-0.23047-0.89844 0.20313-1.1406 0.39063-2.2891 0.57422-3.4297 0.4375-2.625 0.875-5.3672 1.5039-7.9961 0.13672-0.61719 0.25391-1.1953 0.36719-1.75 0.23828-1.6719 0.75781-3.2891 1.5391-4.7852 0.23437-0.40234 0.1875-0.90625-0.11719-1.2617-0.30078-0.35156-0.79688-0.47266-1.2305-0.30469-2.1875 0.875-2.9375 3.5-4.082 7.4375l-0.34375 1.1953c-0.26953 0.90625-0.55859 1.8125-0.875 2.7266-1.3906 3.7031-2.1992 7.5977-2.4062 11.547 0.13672 7.2695-0.76172 14.52-2.668 21.535-0.085937 0.29687-0.039062 0.61719 0.125 0.875 0.16016 0.28906 0.4375 0.48828 0.76172 0.54687z"/>
  <path d="m347.09 161.78c1.3398 1.5859 2.2188 3.5078 2.5391 5.5586 0.59766-11.316 4.5117-22.207 11.254-31.316-0.027344 0-0.058594-0.03125-0.082031-0.058594-0.027344-0.027344-0.11328 0.027344-0.17188 0.027344-1.0039 0.082031-2.0039-0.17578-2.8477-0.73047-0.15625-0.13281-0.30469-0.27734-0.4375-0.4375-3.8047 8.5195-9.2227 16.332-12.582 25.191 0.74609 0.54688 1.5117 1.1172 2.3281 1.7656z"/>
  <path d="m326.34 131.39c0.35156 0.019531 0.69922 0.0625 1.043 0.125 0.11328 0.011719 0.22266 0.050781 0.31641 0.11328 0.23438 0.17578 0.52734 0.24609 0.8125 0.19922 2.4375-0.28906 4.9062-0.24219 7.332 0.14062 2.5156 0.30078 4.8594 1.4219 6.6797 3.1836 0.20703 0.22656 0.5 0.35547 0.80859 0.35547h0.042968c0.32812-0.015624 0.63281-0.17578 0.82812-0.4375 0.83594-1.2031 1.2227-2.6562 1.0977-4.1133-0.054688-0.61328-0.35938-1.1758-0.84375-1.5547-0.86328-0.625-1.7539-1.2109-2.6758-1.75-1.9883-1.0938-4.1562-1.8359-6.3984-2.1875-1.918-0.4375-6.6406-1.207-8.9609 0.96875-1.0625 1.0547-1.5039 2.5898-1.1562 4.0508 0.11719 0.50391 0.55469 0.875 1.0742 0.90625z"/>
  <path d="m296.89 169.43c0.42578-0.44141 0.89062-0.84766 1.3828-1.2109-2.1172-2.0039-4.6016-4.4844-6.7969-4.0898-5.8125 1.0703-8.75 5.1875-12.25 9.3672-2.9375 3.5508-7.7305 14.613-1.7227 18.055 2.8516 1.6055 5.8984 3.1016 8.75 4.8125-1.457-2.4688-2.1328-5.3203-1.9453-8.1836 2.9102-7.0234 7.1875-13.395 12.582-18.75z"/>
  <path d="m253.36 185.79c0.97656-2.9883 1.582-6.0859 1.8047-9.2227-0.16797-0.046875-0.32812-0.11328-0.47656-0.19531-5.6875-3.7539-13.125-6.207-18.535-10.609-0.058594 0.14062-0.058594 0.33594-0.11328 0.4375h-0.003907c-1.3477 2.5508-2.8281 5.0352-4.4297 7.4375 0.085937 0.027343 0.17188 0.027343 0.28516 0.058593l-0.003906-0.003906c7.4961 3.4023 14.684 7.4492 21.473 12.098z"/>
  <path d="m250.96 196.73c-0.73047-2.3789-0.62891-4.9336 0.28125-7.25-6.4688-4.5-13.32-8.418-20.48-11.707-0.17188-0.085938-0.25391-0.17188-0.39453-0.25391 0 0.22266-0.058594 0.4375-0.058594 0.67969 0.22266 9.3633 11.188 14.98 20.652 18.531z"/>
  <path d="m103.5 514.36c-1.3828 1.6914-2.1875 3.5586-3.4141 5.2188-0.95703 1.0977-1.8242 2.2656-2.5938 3.5 1.0625 0.86719 2.2656 1.5547 3.5508 2.0312 0.62109-0.59375 1.293-1.1289 2.0039-1.6055 1.6406-1.4727 3.1523-3.082 4.5117-4.8125 2.8945-3.0234 5.4844-6.3203 7.7344-9.8477-2.1758-0.70312-4.2812-1.5977-6.293-2.6797-1.6562 2.8477-3.4922 5.5859-5.5 8.1953z"/>
  <path d="m386.47 122c-0.34766-2.3086-0.86328-4.5938-1.5469-6.8281-0.44141-2.0859-1.6992-3.9141-3.4922-5.0703-1.7891-1.1602-3.9688-1.5586-6.0547-1.1055-4.8633 0.58594-9.375 2.8516-12.75 6.4023-3.1367 3.2656-3.4609 8.3242-0.76562 11.961 6.5156 5.8711 19.641 0.59766 24.609-5.3594zm-18.652-7.9531h0.003906c1.6406-1.6211 3.9062-2.4453 6.207-2.2617 2.2266 0.21094 4.2148 1.4688 5.3633 3.3867 2.1094 3.4648 1.2539 7.9609-1.9766 10.414-2.9883 2.6797-7.5078 2.7305-10.555 0.11328-1.2539-1.6211-1.8828-3.6406-1.7734-5.6875-0.054688-2.3047 0.95312-4.5039 2.7344-5.9648z"/>
  <path d="m268.09 154.25c0.082031 0.082031 0.10938 0.19531 0.19141 0.28125 4.125-1.5781 5.7891-5.4727 7.5898-9.4219-3.7227-1.8594-6.8828-4.5977-10.414-6.7695l0.003907-0.003906c-3.1953-1.4453-6.1289-3.4102-8.6836-5.8125-0.22656 0.25391-0.4375 0.48047-0.67969 0.73437-1.9766 2.1875-2.9922 6.3164-5.1094 8.7188 2.2617 1.3125 4.457 3.5 6.207 4.6562h0.003907c3.8203 2.2578 7.4609 4.8008 10.891 7.6172z"/>
  <path d="m263.55 132.21c1.6914 1.4141 3.8672 2.1875 5.6172 3.582v0.003906c2.707 2.1797 5.6406 4.0625 8.75 5.6172 2.5547-2.2891 5.8555-3.5625 9.2812-3.5859-3.668-2.2578-8.0117-3.9375-11.375-6.1523-5.7266-3.7812-10.895-4.8828-15.777-1.832 0.79297 1.1562 2.4297 1.5 3.5039 2.3672z"/>
  <path d="m277.57 152.3c-0.8125 2.0625-2.332 3.7695-4.2852 4.8125-4.7578 2.0391-8.7656 5.5117-11.453 9.9336-2.2969 5.0234-3.5547 10.457-3.7031 15.977 0.097656 1.9961-0.35547 3.9766-1.3125 5.7305-5.6875 6.7969-0.027344 8.3789 4.0078 9.3945 0.71484 0.19141 1.2734 0.75 1.4648 1.4648 0.93359 3.6953 8.8008-1.918 12.301-4.2305h0.003906c-1.5273-0.94531-2.5977-2.4766-2.9648-4.2344-0.73438-6.3164-2.0898-12.297 2.1875-17.633 4.7109-5.8672 8.5781-12.02 16.559-13.457h0.003906c1.1953-0.25781 2.4258-0.3125 3.6367-0.16406 2.5664-4.4023 5.8125-13.629 0.50781-15.098-1.0703-0.3125-3.8047-2.9297-4.4023-2.9297-7.5273 0.61719-10.348 2.6758-12.551 10.434z"/>
  <path d="m255.59 171.97c0.0625-0.625 0.11328-1.1602 0.14453-1.6094 0.73047-2.8828 2.0469-5.582 3.8672-7.9297 1.125-2.2539 2.5898-4.3203 4.3477-6.125-2.8594-2.1602-5.8281-4.1758-8.8906-6.0352-1.4648-0.96094-2.9609-1.8906-4.375-2.9922-0.81641-0.64844-2.0039-2.1875-3.1328-2.1172v-0.003906c-0.45312 0.027344-0.90234-0.10156-1.2734-0.36719-2.7695 0.83203-5.1094 2.707-6.5234 5.2305-2.0977 2.9531-3.3125 6.4453-3.5 10.062 0.03125 0.03125 0.0625 0.03125 0.085938 0.058594 4.8086 5.5039 12.992 8.0469 19.25 11.828z"/>
  <path d="m521.89 84.844c1.8398-2.207 3.4727-4.5781 4.8789-7.082 2.0508-5.5156 4.5117-10.871 7.3633-16.023 2.9375-4.2031 13.43-12.582 9.4531-18.48v0.003907c-4.0938-6.0742-10.219-10.488-17.277-12.445-2.7695-1.0234-5.5938-1.8789-8.4648-2.5664-6.207-1.2422-5.5547 1.4375-8.0664 5.1367-1.8594 2.7812-3.8945 5.4375-6.0977 7.9531-2.8242 3.5898-6.2734 6.6367-10.184 9-2.7109 1.375-4.8906 3.6055-6.207 6.3477 9.1875-0.027344 15.574 3.9766 22.488 10.582 5.1797 4.9805 9.3008 10.961 12.113 17.574zm-22.543-30.441c-2.707-0.19531-2.7344-4.4336 0-4.2305 6.0391 0.47656 11.512 5.7266 16.625 8.5742h-0.003906c5.3398 2.9883 9.3555 7.875 11.258 13.688 0.29688 1.125-0.36719 2.2773-1.4844 2.5859-1.1211 0.30859-2.2852-0.33984-2.6055-1.457-1.9688-5.1992-5.8125-9.4688-10.777-11.969-2.3281-1.6836-4.793-3.1758-7.3672-4.457-1.6641-0.69922-3.8086-2.5938-5.6484-2.7344z"/>
  <path d="m458.19 146.74c0.48828 0.17578 0.93359 0.44531 1.3125 0.79297 1.2031-0.98047 2.3359-2.0352 3.4023-3.1602-0.16797-0.13672-0.31641-0.30078-0.4375-0.48047-0.25391-0.50781-1.2695-0.78906-1.6406-1.4102-0.46094-0.92188-0.75391-1.9141-0.875-2.9336-0.03125-0.17188-0.03125-0.3125-0.0625-0.48047v-0.003906c-0.69531 0.69141-1.3398 1.4375-1.918 2.2344-0.73047 1.043-2.0859 2.1875-2.875 3.4141l0.003906-0.003906c0.66016 0.40625 1.3008 0.84375 1.9141 1.3125 0.050781 0.027343 0.90625 0.5625 0.64844 0.5625z"/>
  <path d="m465.21 137.18c-0.37891 0.027343-0.75 0.11328-1.1016 0.25391-0.042969 0.023437-0.078125 0.050781-0.11328 0.085937-0.066406 0.64844 0.011719 1.3008 0.22266 1.918 0.10547 0.20312 0.18359 0.42188 0.22656 0.64844 0.44531 0.28516 0.84766 0.63672 1.1875 1.043 0.72266-0.98438 1.3906-2.0078 2.0039-3.0625l-0.11328-0.082031c-0.71484-0.92188-1.2148-0.89062-2.3125-0.80469z"/>
  <path d="m458.87 121.75c-0.19922-0.10547-0.38672-0.23047-0.5625-0.36719-0.76563-0.58984-1.5547-1.1562-2.3125-1.75 0.36328 0.33984-9.1875 12.105-12.133 16.73 0 2.1875-0.14062 3.5273-1.75 4.7422h-0.003906c-3.25 3.4062-6.1875 7.0977-8.7734 11.031-4.4258 4.9102-8.6836 10.438-13.562 14.875-2.8203 2.5664-14.438 9.5625-14.438 14.559 0.65234-0.57031 1.2539-1.1953 1.8047-1.8633 7.3359-8.8281 16.844-13.598 27.055-18.875 0.058594-0.03125 0.085938-0.03125 0.14453-0.058594 3.3828-4.0625 7.1602-7.4766 10.605-11.484 0.96094-1.0977 2.0625-2.9883 3.2734-4.457-0.42188-0.96094-0.58594-2.0156-0.47656-3.0625-0.22656-3.4414 0.78516-6.8555 2.8477-9.625 2.4883-3.6719 5.2539-7.1484 8.2812-10.395z"/>
  <path d="m470.54 125.39c-0.98438 1.4102-1.8906 2.9062-2.7617 4.4023h0.003906c-0.73047 1.125-1.582 2.168-2.543 3.1016 1.5195-0.10938 3.0312 0.30078 4.2891 1.1602 1.0625-2.7578 1.4102-5.7383 1.0117-8.6641z"/>
  <path d="m167.09 417.02c-2.5977 4.9648-8.0469 8.8281-11.059 13.68 1.3789-2.1875 4.0352 9.2578 4.0586 9.7617 0.4375 10.414-10.609 21.898-17.719 28-3.668 3.1875-6.1523 5.7578-11.059 4.1211-1.8477-0.60547-3.1602-2.2422-3.3555-4.1758-3.6094 3.5-6.7422 12.723-8.6016 15.656-3.8672 5.7266-6.6406 12.117-8.1875 18.848 0.058593-0.11719 0.10547-0.23828 0.14062-0.36719 1.7422 1.1875 3.6289 2.1445 5.6172 2.8477 0.17578 0.039063 0.35547 0.050781 0.53516 0.03125 0.54297-0.35938 1.2305-0.42578 1.832-0.17188 3.4805-1.4609 6.75-3.375 9.7344-5.6875 5.3906-3.1641 14.191-6.9414 18.031-11.738 7.1914-8.9414 12.918-18.621 20.707-27.281 7.4375-8.2656 13.375-19.297 22.09-26.32l-0.33594-0.50781h-0.003906c-5.9453-7.3672-13.66-13.109-22.426-16.695z"/>
  <path d="m375.72 117.32c-1.7773-2.3984-4.7383-1.1562-6.0898 1.0195-0.65234 1.0703-0.51172 4.1992 0.90234 4.8125 1.6172 0.58203 3.4258 0.12109 4.5664-1.1602 1.1445-1.2852 1.3906-3.1367 0.62109-4.6719z"/>
  <path d="m516.48 83.492c-1.8633 2.1875-4.2344 4.0039-6.043 6.293h0.003906c-1.7773 2.9844-4.0586 5.6367-6.7422 7.8398-2 0.90625-4.2891 0.90625-6.2891 0 7.4375 10.891 11.676 24.969 7.9805 37.297-2.2852 7.5352-6.0078 14.438-8.4648 21.875-1.4219 3.1914-3.2305 6.1914-5.3867 8.9414-0.64844 0.96094-0.98828 1.582-1.1875 1.9219h0.003906c1.2422 0.34375 2.5195 0.53125 3.8086 0.5625 0.14062 0 7.875 1.8906 7.875 3.0625 1.1875-2.9375 2.1875-5.7578 3.4688-8.6328 4.5391-9.0117 7.0234-18.918 7.2812-29.004 0.027344-6.1172-1.5078-12.141-4.457-17.5-1.3008-1.8867-2.2305-4.0039-2.7383-6.2383 0-6.8555 9.0039-14.922 13.348-20.512-0.53906-2.0742-1.3672-4.0625-2.4609-5.9062z"/>
  <path d="m447.41 121.44c-1.1562 2.0859-2.875 3.6953-4.0586 5.7539h-0.003906c-1.1406 1.8398-1.9648 3.8633-2.4258 5.9844 1.2422-1.8906 2.707-3.7227 3.9375-5.5312 2.6523-4.2812 5.9219-8.1523 9.7031-11.484 2.8789-2.4531 7.8164 2.0859 9.2266 4.4336 0.44922 0.83594 0.3125 1.8672-0.33594 2.5625-3.6406 4.4883-11.402 10.668-10.5 17.062 2.1445-2.6836 5.1055-5.0547 6.8555-7.5625 1.6836-1.7539 3.2031-3.6602 4.5391-5.6875 1.1328-2.1094 2.5039-4.0781 4.0938-5.8672 0.1875-0.24219 0.42969-0.43359 0.70312-0.56641-0.44141-1.0352-0.96094-2.0352-1.5547-2.9922-4.375-7-11.113-4.9102-17.5-3.1016 0.33594 0.82031 0.42188 1.7227 0.25391 2.5938-0.53125 1.918-2.0039 2.707-2.9336 4.4023z"/>
  <path d="m376.39 141.28c3.793-0.11719 7.2812-2.1211 9.293-5.3398 0.26953-0.39844 0.25-0.92969-0.050782-1.3047-0.30469-0.375-0.81641-0.51172-1.2617-0.32812-0.79688 0.32422-1.6172 0.62109-2.4336 0.91406-1.3789 0.46094-2.7266 1.0039-4.0391 1.625-1.6719 0.72656-3.4258 1.2461-5.2227 1.5469-0.47266 0.089844-0.83203 0.48047-0.88281 0.96094-0.050781 0.47656 0.21875 0.93359 0.66406 1.1211 1.2422 0.52734 2.582 0.80078 3.9336 0.80469z"/>
  <path d="m381.06 186.95c-0.054688-0.4375 0.046875-0.875 0.28516-1.2422 2.5391-3.9766-6.0625-7.6172-8.3125-9.6758-1.4961-1.3828-9.5938-7.1914-12.133-4.6875-2.6641 2.6445-4.4102 6.0703-4.9883 9.7812 0 0.11328-0.058593 0.19531-0.058593 0.28516h0.003906c3.5703 2.6758 7.8477 4.25 12.301 4.5273 3.8086 0.16016 8.2969 0.69922 12.902 1.0117z"/>
  <path d="m373.93 132.35c-2.8906 0.46484-5.8242 0.60938-8.75 0.4375-0.5-0.058594-0.96875 0.26562-1.0938 0.75391-0.15234 0.46875 0.027344 0.98438 0.4375 1.2539 0.64844 0.38672 1.2422 0.85156 1.7734 1.3828l0.8125 0.78906c0.20703 0.20312 0.48828 0.32031 0.78125 0.31641h0.042969c3.6406 0.03125 7.207-1.0156 10.254-3.0039 1.0859-0.55469 2.2344-0.96484 3.4258-1.2188 1.8281-0.35547 3.5547-1.1016 5.0625-2.1875 0.14062-0.12891 0.3125-0.21484 0.5-0.24609 0.47266-0.082031 0.83984-0.46484 0.89844-0.94531 0.097657-0.77344 0.11719-1.5586 0.0625-2.3359-0.035156-0.41406-0.29687-0.77344-0.68359-0.92578-0.38281-0.15625-0.82031-0.082031-1.1328 0.19531-3.5195 3.0195-7.8086 5.0078-12.391 5.7344z"/>
  <path d="m430.36 93.457c0.12109 0.046875 0.25 0.070313 0.37891 0.070313 0.33203 0.003906 0.64453-0.14844 0.85156-0.40625l0.36719-0.4375c5.7461-7.1172 6.0391-7.8477 5.1172-8.75-0.91797-0.90234-2.0703 0.074218-3.207 1.0117-2.3789 1.793-3.9141 4.4922-4.2383 7.4531-0.011719 0.47656 0.28516 0.90234 0.73047 1.0586z"/>
  <path d="m364.18 138.65c-5.5781 7.3867-9.0156 16.164-9.9297 25.375 0.47656-1.5273 1.0508-3.0273 1.7188-4.4844 3.4102-6.2656 7.3164-12.246 11.68-17.891-0.39844-0.39453-0.84375-0.78906-1.2695-1.1875h-0.11328v-0.082032c-0.67578-0.60547-1.3555-1.1953-2.0859-1.7305z"/>
  <path d="m375.62 172.41c-0.21484 0.22266-0.33203 0.51953-0.32031 0.83203 0.015624 0.30859 0.16406 0.59766 0.40625 0.78906 0.74609 0.62891 1.5273 1.2148 2.3359 1.75l0.65625 0.4375c0.17188 0.10938 0.37109 0.16797 0.57422 0.16797 0.09375 0 0.1875-0.011718 0.27734-0.035156 0.28906-0.074218 0.53516-0.26562 0.67969-0.53125 5.1289-8.5312 11.016-16.582 17.59-24.062 3.1875-3.8711 6.207-7.5312 9.0117-11.254 2.5-3.3125 4.957-6.7578 7.4375-10.234v0.003906c5.9023-8.8359 12.57-17.137 19.93-24.805 0.14062-0.15625 0.33594-0.24219 0.54688-0.24609 0.51172-0.039062 0.92969-0.42578 1.0039-0.9375 0.14062-1.0977 0.49219-2.1562 1.0312-3.1211 0.82812-1.2578 1.5781-2.5586 2.2539-3.9023 0.68359-1.3789 1.4609-2.7031 2.3281-3.9688 1.9219-2.9805 4.3516-5.6055 7.1758-7.75 0.39062-0.27344 0.56641-0.76172 0.4375-1.2188 0-0.09375 0-0.22656 0.035156-0.38672 0.097656-0.91016 0.24609-2.2891-0.71484-2.8906-0.84766-0.46875-1.8359-0.625-2.7891-0.4375l-0.33203 0.027343c-1.8711 0.45313-3.4531 1.6914-4.3477 3.3984-0.10547 0.14453-0.24219 0.26562-0.40234 0.34766-0.25 0.125-0.44141 0.33984-0.53516 0.60547-1.6094 3.4805-3.7422 6.6875-6.332 9.5156-0.62891 0.75781-1.2188 1.4805-1.75 2.1484-1.1719 1.6172-1.9922 3.4648-2.4062 5.4219-0.40625 1.9961-1.2852 3.8633-2.5664 5.4453-3.6211 4.1094-7.0234 8.5234-10.312 12.789-1.3398 1.75-2.6836 3.5-4.0391 5.2031-3.2109 4.0859-6.4766 8.2188-9.75 12.367-9.0547 11.461-18.41 23.309-26.883 34.391-0.042969-0.003906-0.19531 0.10938-0.23047 0.14062z"/>
  <path d="m446.09 90.715c-1.6836 1.8438-3.1094 3.9023-4.2422 6.125-0.4375 0.85156-0.94922 1.6641-1.5234 2.4297-0.69531 0.91406-1.293 1.8945-1.793 2.9297-0.85156 1.5234-0.83594 3.3867 0.046875 4.8906 1.2266 1.5703 3.1484 2.4258 5.1367 2.2852 0.53906 0 1-0.39844 1.0781-0.9375 0.75-5.1484 8.2422-13.16 12.719-17.938 0.26562-0.28516 0.35938-0.6875 0.25-1.0625-0.019531-0.054688-0.039063-0.10938-0.066406-0.16016-0.042969-0.19141-0.13672-0.36328-0.26953-0.50391-3.582-3.75-6.4688-2.832-8.3125-1.3594-1.1094 1.0039-2.1211 2.1094-3.0234 3.3008z"/>
  <path d="m581.7 215.98c0.76172-0.73047 1.6367-1.4102 2.4531-2.1133h0.003906c-0.14453-0.62891 0.019532-1.2852 0.4375-1.7773 4.1484-5.1914-10.5-8.4375-12.949-9.3984-1.0977-0.4375-2.5117 1.3555-4.3438 2.7383 1.5234 0.78906 3.0195 1.6055 4.457 2.3398 3.3555 1.7188 5.4727 5.418 8.5469 7.6992v0.003906c0.14453 0.03125 0.28906 0.050781 0.4375 0.058594 0.35156 0.0625 0.68359 0.21875 0.95703 0.44922z"/>
  <path d="m359.27 234.62c-12.156-19.496-35.234-29.625-54.082-41.359-5.7227-3.5508-5.8359-8.4922-2.3398-13.906 3.6953-5.6875 9-6.293 15.547-5.1914v-0.003907c9.4453 2.3477 18.066 7.25 24.91 14.168 8.1484 6.875 16.891 13.012 26.125 18.336 4.1641-3.2227 8.75-5.8594 13.629-7.8398 6.3438-3.0312 13.348-4.4297 20.367-4.0664 16.758 0.082031 29.75 7.1914 44.324 14.613 5.4219 2.0508 10.676 4.5234 15.715 7.3945 2.9062 2.0859 5.5 4.3164 8.207 6.6016 6.7109 4.8555 13.707 9.3047 20.953 13.316 7.332 4.8125 14.809 9.2227 22.344 13.625 1.3125 0.76562 8.3789 5.8398 12.25 7.9023 0.0625-0.36719 0.11328-0.70312 0.17188-0.98828v-0.003906c2.293-8.2578 6.4219-15.895 12.074-22.344 5.9297-6.8867 10.805-16.281 20.199-18.652v0.003907c4.1875-1.2617 8.5234-1.9805 12.898-2.1406-0.67969-0.70703-1.3867-1.3867-2.0625-2.0625v0.003906c-1.4531-0.95703-3.0156-1.7344-4.6562-2.3164-1.4219-0.86719-2.9023-1.6289-4.4297-2.2891-4.3086-0.54297-8.3633-2.3477-11.652-5.1875-15.152-10.414-34.336-15.348-48.922-26.578-0.10938-0.10547-0.21484-0.21875-0.30859-0.33594-4.7656-0.80469-9.3906-2.2773-13.742-4.375-0.91016-0.25781-1.543-1.0859-1.5508-2.0312 0.4375-4.1484 4.457-8.4336 6.6289-11.906v0.003906c3.4062-6.0156 6.0664-12.422 7.9297-19.078 2.457-7.8398 4.1484-14.414 1.0195-22.312-2.5781-8.0586-6.6953-15.543-12.129-22.035h-0.027344c-0.83203-0.33594-1.3828-1.1406-1.3945-2.0391-0.011719-0.90234 0.51562-1.7188 1.3438-2.0781 0.77344-0.46094 1.7656-0.30469 2.3672 0.36719 0.14063 0.14062 0.25391 0.28125 0.39453 0.4375 3.5 1.7773 9.1445 5.0781 11.426 2.3984 2.0039-2.3984 3.7812-4.9922 5.8672-7.3047 1.9414-1.7188 3.7266-3.6094 5.332-5.6445-2.0859-2.8203-4.4258-5.5-6.4883-8.3789-4.8906-6.9805-13.074-10.906-21.582-10.352-7.4648 8.1953-14.43 16.828-20.863 25.852-3.6367 4.5703-7.2227 9.1875-11.004 13.684-1.8672 1.8398-3.5742 3.8281-5.1055 5.9531-2.9062 6.4609 3.1016 1.0703 4.8828 1.1016 6.9375 0.19531 13.824 1.4336 17.402 7.8398 3.5586 6.293 6.1523 11.598 3.1328 18.676-8.4102 19.781-29.961 27.004-47.844 36.168-5.6211 2.2227-10.633 5.7539-14.617 10.301-2.6875 3.2422-6.1797 5.7266-10.129 7.1953-8.5625 3.5391-17.957 4.5664-27.086 2.9609-8.8867-1.1562-16.418-1.2109-23.332-7.6172-4.7695-4.4023-8.2656-22.684-13.793-22.203-7.2539 0.64844-12.555 4.8516-20.312 2.2852-7.957-2.6523-8.0703 5.3906-14.617 7.9844-3.9375 1.5781-9.5312 10.242-11.906 13.598-0.82031 1.1797-1.3281 2.5508-1.4688 3.9805 0.15234 0.082032 0.30078 0.17578 0.4375 0.28125 7.1914 7.082 19.293 9.7617 27.785 14.953 6.7266 4.1641 13.008 9.0156 18.734 14.473 4.3164 4.1719 20.227 14.668 18.906 23.625 3.5273-0.875 5.9805-2.9883 4.625-6.9375h-0.003906c-0.1875-0.14453-0.35156-0.32031-0.48047-0.52344zm187.03-12.895v0.003906c-0.042969 0.14062-0.10938 0.27344-0.19531 0.39453 0 0.03125-0.027343 0.03125-0.027343 0.058594v-0.003906c-0.015625 0.015625-0.039063 0.027344-0.0625 0.03125-0.066407 0.14844-0.16016 0.28125-0.27734 0.39453-3.9648 3.2617-8.5 5.7578-13.375 7.3633-5.3281 1.9453-11.398 5.0781-17.266 4.2891-10.062-1.3125-20.965-2.625-15.688-15.348 3.8945-9.3359 20.172-9.957 28.184-10.719 7.7031-0.71094 26.043 1.2656 18.707 13.539zm-64.129-34.02c6.8828-0.62109 22.203-2.8516 24.035 6.7148 0.16406 0.32031 0.23047 0.68359 0.19922 1.0391-0.4375 3.8672-0.33594 6.7461-4.625 8.4102-4.9727 2.4219-10.328 3.9609-15.828 4.543-6.4297 0-20.625 1.9453-22.031-7.1914-1.1875-7.6758 12.438-13.008 18.25-13.516zm-39.496-10.414c5.9531-6.0977 13.863-9.9023 22.344-10.75 0.39062-0.027344 0.78516 0.0625 1.1289 0.25391 0.14453 0.03125 0.25391 0.03125 0.36719 0.058594 2.2227 0.76562 3.8047 2.7461 4.0625 5.0859 0.26172 2.3359-0.85156 4.6133-2.8516 5.8516-4.0742 3.082-8.418 5.793-12.977 8.0977-3.5898 1.5156-7.4922 2.1367-11.375 1.8047-7.2461-0.24219-3.8594-7.0742-0.69922-10.402zm-105.6-11.312c1.8594-0.41406 3.7422 0.59375 4.4297 2.3711 0.89062 1.707 0.23438 3.8086-1.4648 4.7109-1.5234 0.62109-2.8203-0.5625-3.7539-1.1562-0.60938-0.37109-0.97656-1.0352-0.96094-1.75-0.51172-1.6367-0.33594-3.7773 1.75-4.1758z"/>
  <path d="m567.88 222.25c-0.79297 0.50781-1.5469 0.98828-2.3125 1.4648-0.98047 1.0156-1.8945 2.0898-2.7344 3.2227 1.0391 0.085938 2.0742-0.21484 2.9023-0.85156 1.9531-0.98438 3.5195-2.5938 4.457-4.5703 0.25781-0.53906 0.57031-1.0508 0.93359-1.5234-0.84375 0.30469-1.6602 0.69531-2.4297 1.1602-0.13672 0.44922-0.42578 0.83594-0.81641 1.0977z"/>
  <path d="m465.38 170.95c-0.11328-0.050781-0.16797-0.10938-0.28125-0.16797h-0.085937c-4.6953 0.57812-9.2227 2.125-13.289 4.543-2.293 1.293-4.3438 2.9727-6.0664 4.9648-0.85547 0.99219-1.6211 2.0586-2.2852 3.1914 4.6914 0.082031 9.3242-1.0352 13.457-3.2461 0.98828-0.48438 12.191-7.9297 8.5508-9.2852z"/>
  <path d="m199.45 424.19c-6.2148-4.7617-12.012-10.051-17.324-15.801-3.2188-3.5273-23.188-17.266-23.445-3.4375-0.085938 3.2148 4.6797 5.8359 7.7305 7.3047 0.11719 0.003907 0.23047 0.023438 0.33984 0.054688 7.1406 3.043 13.762 7.1758 19.633 12.25 3.2188 3.043 5.9844 6.5312 8.2109 10.355 2.5938 3.5586 17.574 6.4609 12.328-3.0195h0.003906c-1.7695-3.1836-4.3477-5.8438-7.4766-7.707z"/>
  <path d="m354.14 202.24c-12.609-6.207-20.594-21.27-35.465-23.758-4.1211-0.70312-20.199 3.4141-12.5 10.102v0.003907c3.5938 2.8516 7.5703 5.1875 11.812 6.9375 7.25 3.3047 13.312 9.1406 20.199 13.176 9.0547 5.2969 16.863 12.473 22.906 21.047 2.1875-2.4805 5.1914-5.9805 8.1797-6.375 0.67969-0.4375 1.3555-0.875 2.0625-1.2695 8.9258-4.9414-14.008-18.285-17.195-19.863z"/>
  <path d="m601.48 226.47c-4.9609-2.9297-9.625-6.3164-14.582-9.2266-0.33984 0.37891-0.73047 0.71484-1.1602 0.98828-1.8008 1.1602-1.918 2.3984-2.8789 4.1211-1.0781 2.4219-1.918 4.9453-2.5117 7.5273 3.5 2.1875 7 3.7852 10.805 5.7578 5.1641 2.6836 10.895 7.3359 14.277-0.3125 0.96094-2.1875 1.8945-4.4023 2.8203-6.6016-0.81641 1.8945-6.0078-1.8008-6.7695-2.2539z"/>
  <path d="m527.19 268.23c-0.50391-1.8633-0.65234-3.8086-0.4375-5.7266-1.5625-0.84375-3.0547-1.8164-4.457-2.9062-6.1523-4.457-13.316-7.1406-19.551-11.512-11.086-7.7305-23.727-12.867-34.055-21.727l-0.003906 0.003906c-4.6172-4.6211-10.152-8.2266-16.246-10.578-3.3945-1.0625-6.6328-2.5703-9.625-4.4844-8.0742-4.9727-16.867-8.6641-26.07-10.938-8.9375-2.1016-18.266-1.8594-27.082 0.70312-6.1367 1.5547-11.891 4.3477-16.91 8.2031 3.0898 3.0586 4.5273 7.4102 3.8633 11.707-0.25391 1.625-1.0234 3.125-2.1875 4.2891 4.6289 2.8086 10.492 2.5859 14.898-0.56641 2.5781-2.0586 5.5703-3.5391 8.7695-4.3438 9.7266-1.8086 19.773-0.015624 28.273 5.0469 3.4414 1.8906 7.082 3.5586 10.781 5.1914l-0.003907 0.003906c0.20703-0.14453 0.43359-0.25 0.67578-0.3125 0.23047-0.70312 0.79297-1.25 1.5039-1.457 0.71094-0.21094 1.4766-0.054688 2.0508 0.41406 1.1719 0.72266 2.1992 1.6602 3.0195 2.7617 0.33203 0.61328 0.45312 1.3203 0.33594 2.0039 3.7539 1.6836 7.3594 3.6758 10.781 5.957 4.543 3.1602 8.1758 8.4102 13.262 10.637v-0.003906c4.1836 1.9531 8.207 4.2266 12.039 6.8008 0.42578-0.92578 1.2969-1.5625 2.3047-1.6953 1.0117-0.13281 2.0156 0.26562 2.6641 1.0469 1.2969 1.1953 2.0078 2.8945 1.9453 4.6562 5.5781 2.3398 10.75 5.5586 15.312 9.5312 1.1133 1.1953 1.9336 2.6367 2.3945 4.207 1.082-1.8828 3.3047-2.7852 5.3906-2.1875 4.7969 1.3281 9.2617 3.6367 13.125 6.7695 1.668-3.1445 4.1523-8.9844 3.2383-11.496z"/>
  <path d="m563.98 238.27c-0.64844 0-1.3008-0.039063-1.9453-0.11328-0.039062 0.17578-0.11719 0.33984-0.22656 0.48047-2.2266 2.9609-4.375 9.625-8.6836 10.352-3.6719 0.62109-5.8711-0.36719-5.3633-4.375h-0.003906c0.51953-2.5859 1.5859-5.0273 3.1328-7.1641 1.2539-2.5273 2.375-5.1172 3.3555-7.7617 2.0977-4 5.2812-7.3242 9.1875-9.5898 0.39453-0.33594 0.76562-0.70312 1.1602-1.0156-5.0742 1.2109-9.6719 3.9141-13.203 7.7578-5.6445 6.9141-10.273 14.219-15.406 21.438-2.3281 3.3281-3.832 7.1719-4.375 11.199 0.74219 0.97266 0.63281 2.3477-0.25391 3.1875 0 0.17188-0.027344 0.33594-0.027344 0.50781h0.003907c0.39844 2.2852 0.60156 4.5977 0.61719 6.9141-0.65234 3.5-1.8008 6.8867-3.4141 10.062 2.2617-1.1484 4.293-2.707 5.9805-4.5977 0.53906-0.67969 2.4531-3.0625 2.4531-4.1484-0.30078-0.43359-0.53516-0.90625-0.70312-1.4102-0.36719-4.1484 6.3203-5.8125 9.3984-5.6445 4.5664 0.22656 4.375 7.0273 1.9414 9.6758-2.2578 2.4531-2.9609 6.125-5.25 8.6055v0.003906c7.75-6.6758 14.379-14.555 19.637-23.332 5.9258-8.2031 11.398-16.727 16.387-25.531-0.39062-0.28516-0.81641-0.59375-1.2383-0.875-3.5898 3.3242-8.2656 5.2344-13.16 5.375z"/>
  <path d="m552.22 314.52c1.6992-2.3633 3.2656-4.8203 4.6836-7.3633-2.3242 1.8789-3.9688 4.4648-4.6836 7.3633z"/>
  <path d="m552.5 243.62c-0.36719 0.77344-0.60547 1.6055-0.70312 2.457 0.79297-1.1289 1.5547-2.2578 2.3125-3.4141 0.9375-1.9297 2.1016-3.7383 3.4727-5.3906-0.47266-0.14844-0.93359-0.32422-1.3789-0.53125-0.20703 0.48828-0.45312 0.95703-0.73828 1.4062-1.1914 1.7109-2.1836 3.5469-2.9648 5.4727z"/>
  <path d="m530.21 284.05c1.0156 0.4375 2.0312 0.90234 3.0195 1.3828 2.7539-1.8945 5.1094-4.3086 6.9375-7.1094 1.0039-2.4219 2.2617-4.7305 3.7539-6.8867 0.79297-0.95703 1.1289-0.73047 1.0156-3.5508h-0.4375c-0.73047 0-0.98438 0.4375-1.6914 0.73047-1.8086 0.73438-1.2109 1.3867-2.4805 0.28516h-0.003906c0.39453 0.41797 0.66797 0.93359 0.78906 1.4961 0.875 3.1875-2.5664 7.0781-4.543 9.082h0.003906c-1.8477 1.875-4 3.418-6.3633 4.5703z"/>
  <path d="m472.52 203.73c5.6016 0.98438 11.34 0.93359 16.926-0.14453 4.457-1.125 11.906-2.793 12.688-7.9258-1.5-6.2617-17.805-4.4258-21.727-3.2969v-0.003907c-2.3867 0.58984-4.6719 1.543-6.7734 2.8242-2.75 1.8047-5.7148 7.8711-1.1133 8.5469z"/>
  <path d="m551.69 302.54c-6.9922-6.3047-15.027-11.336-23.75-14.875-1.2109 4.1484-6.6875 7.9844-0.25391 12.133 6.8516 4.4023 13.852 8.4922 20.512 13.152h-0.003906c1.0664-3.4102 3.0703-6.4531 5.7852-8.7773-1.0195-0.73047-2.0078-1.3789-2.2891-1.6328z"/>
  <path d="m523.47 285.61c-0.42188-0.37891-0.65234-0.92969-0.62109-1.4961-3.2852-2.4297-6.8008-4.5273-10.5-6.2656-4.375-1.8906-4.4258 1.668-6.7109 4.1211-0.33984 1.7617-0.9375 3.4648-1.7812 5.0469-5.0469 9.3984 4.9336 12.074 10.66 15.207l0.003907 0.003906c1.0977 0.89453 2.5273 1.293 3.9297 1.0859 1.4062-0.20312 2.6641-0.98438 3.4609-2.1602-1.7656-1.8906-2.3945-4.5742-1.6602-7.0508 0.3125-1.6367 4.0938-7.6484 3.2188-8.4922z"/>
  <path d="m306.21 305.19c-2.4844-6.6836-11.426-13.852-15.719-17.352-6.2812-5.8555-13.562-10.539-21.496-13.824-2.8789-0.875-14.301-2.793-14.219 2.6836 0.058593 2.8789 12.156 5.9219 14.727 7.168v-0.003906c4.4375 2.168 8.7617 4.5703 12.949 7.1914 8.7656 6.0039 15.676 14.336 19.945 24.062 3.2539-1.4297 5.0312-4.9727 4.2344-8.4336-0.30859-0.43359-0.45703-0.96094-0.42188-1.4922z"/>
  <path d="m251.16 332.94c-5.3359-4.082-10.953-7.7773-16.812-11.059-2.3125-1.0703-4.5977-2.0039-6.9141-3.0195-2.7344-1.1562-17.801-1.3516-15.797 5.9531 9.875 0.3125 20.594 8.5469 27.504 13.738 7 5.2773 22.289 19.02 27.125 31.094 20.16-4.6172-8.3906-32.332-15.105-36.707z"/>
  <path d="m237 342.2c-5.5469-4.2695-11.59-7.8516-18-10.664-2.7969-1.4961-5.918-2.2812-9.0859-2.2852-2.4531 0.28125-13.008 3.2969-9.1406 8.4922 13.602 1.1289 27.25 12.664 37.723 20.426 8.0898 6.9453 14.207 15.895 17.742 25.953 20.262-7.4375-10.887-36.168-19.238-41.922z"/>
  <path d="m234.01 360.23c-5.8125-4.1719-11.965-7.6992-17.859-11.676v-0.003907c-2.4805-1.7734-5.1055-3.3359-7.8438-4.6758-3.7812-1.7188-19.129-1.832-18.875 6.7734 0.59375 0.023437 1.1875 0.089843 1.7773 0.19531 10.062 1.668 22.656 10.242 29.852 17.352 8.3516 8.2383 21 16.812 24.684 28.664 20.113-2.3203-5.6719-32.281-11.734-36.629z"/>
  <path d="m259.74 318.82c-6.1836-4.0898-38.938-23.418-39.473-5.1055 12.863-0.22656 22.375 9.2227 33.035 15.57 9.4805 5.6172 20.852 16.844 23.672 27.902 15.07-6.0938-9.9844-33.547-17.234-38.367z"/>
  <path d="m268.91 306.6c-8.2109-4.1484-34.562-21.668-37.469-4.6016v-0.003906c12.234 1.75 23.723 6.9336 33.125 14.957 7.8516 7.7266 14.473 16.613 19.633 26.348 10.438-5.4414 2.1445-15.91-2.7383-22.23-3.4961-4.5117-7.3359-11.852-12.551-14.469z"/>
  <path d="m191.46 394.51c-3.3164-2.9219-6.793-5.6523-10.414-8.1875-7.5352-4.375-16.391-0.027344-14.301 8.7188 11.812 0.93359 21.695 14.531 30.219 21.328v0.003906c5.2383 3.4688 9.7539 7.9258 13.285 13.125 13.125-3.7227 4.8125-15.406-0.875-21.641-5.5312-5.0117-11.531-9.4805-17.914-13.348z"/>
  <path d="m218.07 371.04c-3.8672-4.5664-10.863-7.25-15.797-10.637-4.043-3.4375-9.1641-5.3477-14.473-5.3906-7.3672 0.51172-6.0938 11.625-6.0938 11.625-0.015625 0.14844-0.046875 0.29688-0.089844 0.4375 11.172 1.75 20.629 9 28.875 16.391 6.2227 6.4023 12.773 12.477 19.637 18.188 1.8359 1.3047 3.2617 3.1055 4.1172 5.1914 22.227-2.7969-11.012-29.68-16.176-35.805z"/>
  <path d="m210.08 388.79c-5.2305-5.0391-11.004-9.4883-17.211-13.262-2.4453-1.2383-4.9609-2.3398-7.5273-3.3047-4.8828-2.0859-14.559 2.0352-9.793 8.3828 0.058594 0.10938 0.10547 0.22266 0.14062 0.33984 8.8867-0.19531 15.855 8.4062 22.824 12.949 6.2344 4.0352 17.777 13.965 21.98 23.137v-0.003906c0.078125-0.046876 0.16406-0.074219 0.25391-0.085938 11.375-0.73438 10.465-7 2.2539-15.207-4.3477-4.3125-8.3242-8.8281-12.922-12.945z"/>
  <path d="m332.44 223.2c-5.6875-4.8516-9.7617-5.9219-14.438 0.14062-2.9023 2.9258-5.625 6.0273-8.1523 9.2852-6.293 10.75-14.727 20.09-21.242 30.695v-0.003906c-0.097656 0.12109-0.20312 0.23828-0.3125 0.34375 4.9258 3.1758 9.6055 6.7188 14 10.605 2.4023 2.1445 4.8125 4.0078 7.0508 5.9531 4.4805-4.6836 8.3242-9.9375 11.426-15.629 3.6836-5.4883 7.6484-10.781 11.879-15.859 2.4531-3.2148 8.1797-7.6445 8.1797-11.879 0.046875-6.3164-4.043-9.9805-8.3906-13.652z"/>
  <path d="m303.72 215.89c3.3281 2.0039 6.5625 4.0898 9.9062 6.125 1.043-1.2734 2.0625-2.543 3.1016-3.8672h-0.003907c1.6875-2.4609 4.5625-3.8281 7.5352-3.5859-1.6367-1.2109-2.9062-2.1445-3.5586-2.6836-8.8594-7.5859-21.387-10.156-30.582-16.953 0.98828 3.0625 2.5664 6.0625 3.5273 8.6055v0.003906c1.4531 5.3594 5.1133 9.8516 10.074 12.355z"/>
  <path d="m505.13 228.31c3.8789 0.99219 7.8516 1.5703 11.852 1.7188 3.8359-0.62891 7.5859-1.707 11.172-3.2148 5.2617-1.2969 10.188-3.7109 14.438-7.082 5.9219-9.957-15.43-7.0273-17.633-6.8555-3.5 0.28516-6.8867 0.98828-10.355 1.4102v-0.003906c-3.5273 0.49609-6.8359 1.9961-9.5352 4.3203-1.6875 1.75-5.6641 8.4609 0.0625 9.707z"/>
  <path d="m277.48 292.77c-6.7969-4.2344-33.992-18.812-34.309-2.1445v0.003906c10.672 2.832 20.781 7.4805 29.883 13.734 8.5938 7.2539 15.293 16.492 19.52 26.918 0.18359 0.50781 0.34375 1.0273 0.47656 1.5508 1.2539-0.60156 2.4688-1.2812 3.6406-2.0352 13.348-10.742-10.41-32.527-19.211-38.027z"/>
  <path d="m343.9 241.68c2.0938 0.67578 4.2852 0.99219 6.4883 0.92969 1.4648-2.9375-1.7188-7.4766-6.4883-12.188 2.0039 3.4844 2.0039 7.7734 0 11.258z"/>
  <path d="m301.29 279.03c-4.5117-4.0898-35.656-30.949-36.363-10.938 0 0.058594-0.027344 0.082031-0.027344 0.14062 0.14062-0.03125 0.28125-0.03125 0.4375-0.058594 4.9141-0.81641 7.1406 2.7344 11.035 4.9102 5.125 2.8516 9.9961 6.1367 14.562 9.8164 7.2578 5.3711 13.48 12.016 18.375 19.602 4.9102-2.3086 5.1055-5.6875 3.4414-11.258-1.8086-6.0312-7.168-8.3438-11.461-12.215z"/>
  <path d="m569.07 229.04c-1.8633 1.1172-3.9844 1.7305-6.1523 1.7773-1.0742-0.17969-2.1094-0.54297-3.0625-1.0703-0.73828 1.0195-1.3594 2.1172-1.8594 3.2734 1.8086 1.0703 3.9492 1.4297 6.0078 1.0156 4.9375-0.33203 9.4609-2.8867 12.301-6.9414 0.18359-0.37891 0.49219-0.67578 0.875-0.84375 0.64844-1.8633 1.2695-3.7539 1.918-5.6172-4.0469-0.98437-7.0352 6.6875-10.027 8.4062z"/>
  <path d="m95.527 526.06c-2.6562 1.8945-4.3398 4.707-7.1328 6.5273-2.3477 1.5312-0.15625 5.3203 2.1875 3.7773h0.003907c1.3672-0.875 2.6484-1.875 3.8203-2.9922 1.0156-1.2578 2.1211-2.4375 3.3086-3.5312 2.293-1.625 0.10938-5.4219-2.1875-3.7812z"/>
  <path d="m135.55 465.94c0.72656-0.64844 1.6523-1.0312 2.625-1.082 0.58984-0.085938 2.8789-0.75781 3.207-0.18359 0.60938 1.0469 1.9492 1.3984 2.9961 0.78516 1.043-0.60938 1.3945-1.9492 0.78516-2.9922-1.332-1.9688-3.793-2.832-6.0625-2.1289-1.2969 0.10156-2.5859 0.30469-3.8516 0.61328-1.0391 0.44922-1.9844 1.0898-2.7812 1.8945-2.1953 1.7812 0.91797 4.8438 3.082 3.0938z"/>
  <use x="70" y="625.625" xlink:href="#u"/>
  <use x="86.054688" y="625.625" xlink:href="#d"/>
  <use x="96.839844" y="625.625" xlink:href="#a"/>
  <use x="111.679687" y="625.625" xlink:href="#g"/>
  <use x="126.4375" y="625.625" xlink:href="#b"/>
  <use x="136.894531" y="625.625" xlink:href="#a"/>
  <use x="151.730469" y="625.625" xlink:href="#i"/>
  <use x="175.007812" y="625.625" xlink:href="#c"/>
  <use x="190.664062" y="625.625" xlink:href="#f"/>
  <use x="212.539062" y="625.625" xlink:href="#h"/>
  <use x="230.847656" y="625.625" xlink:href="#a"/>
  <use x="245.683594" y="625.625" xlink:href="#f"/>
  <use x="267.558594" y="625.625" xlink:href="#t"/>
  <use x="284.402344" y="625.625" xlink:href="#g"/>
  <use x="299.164062" y="625.625" xlink:href="#c"/>
  <use x="314.824219" y="625.625" xlink:href="#c"/>
  <use x="330.480469" y="625.625" xlink:href="#s"/>
  <use x="337.980469" y="625.625" xlink:href="#b"/>
  <use x="70" y="647.5" xlink:href="#r"/>
  <use x="79.515625" y="647.5" xlink:href="#d"/>
  <use x="90.304688" y="647.5" xlink:href="#e"/>
  <use x="105.332031" y="647.5" xlink:href="#q"/>
  <use x="135.742188" y="647.5" xlink:href="#b"/>
  <use x="146.199219" y="647.5" xlink:href="#p"/>
  <use x="161.773438" y="647.5" xlink:href="#a"/>
  <use x="184.222656" y="647.5" xlink:href="#o"/>
  <use x="202.53125" y="647.5" xlink:href="#e"/>
  <use x="217.558594" y="647.5" xlink:href="#n"/>
  <use x="233.132812" y="647.5" xlink:href="#m"/>
  <use x="256.320312" y="647.5" xlink:href="#l"/>
  <use x="272.355469" y="647.5" xlink:href="#d"/>
  <use x="283.140625" y="647.5" xlink:href="#e"/>
  <use x="298.171875" y="647.5" xlink:href="#k"/>
  <use x="305.667969" y="647.5" xlink:href="#a"/>
  <use x="320.503906" y="647.5" xlink:href="#j"/>
  <use x="333.472656" y="647.5" xlink:href="#b"/>
 </g>
</svg>
