<?xml version="1.0" encoding="UTF-8"?>
<svg width="700pt" height="700pt" version="1.1" viewBox="0 0 700 700" xmlns="http://www.w3.org/2000/svg" xmlns:xlink="http://www.w3.org/1999/xlink">
 <defs>
  <symbol id="u" overflow="visible">
   <path d="m14.656-0.875c-0.76172 0.39844-1.5547 0.69531-2.375 0.89062-0.8125 0.19531-1.6641 0.29688-2.5469 0.29688-2.6562 0-4.7617-0.73828-6.3125-2.2188-1.5547-1.4883-2.3281-3.5039-2.3281-6.0469 0-2.5508 0.77344-4.5664 2.3281-6.0469 1.5508-1.4883 3.6562-2.2344 6.3125-2.2344 0.88281 0 1.7344 0.10156 2.5469 0.29688 0.82031 0.19922 1.6133 0.49609 2.375 0.89062v3.2969c-0.76172-0.51953-1.5117-0.89844-2.25-1.1406-0.74219-0.23828-1.5234-0.35938-2.3438-0.35938-1.4688 0-2.625 0.46875-3.4688 1.4062-0.83594 0.9375-1.25 2.2344-1.25 3.8906 0 1.6484 0.41406 2.9375 1.25 3.875 0.84375 0.9375 2 1.4062 3.4688 1.4062 0.82031 0 1.6016-0.11719 2.3438-0.35938 0.73828-0.23828 1.4883-0.61719 2.25-1.1406z"/>
  </symbol>
  <symbol id="d" overflow="visible">
   <path d="m10.719-8.7031c-0.33594-0.15625-0.66797-0.26953-1-0.34375-0.32422-0.082031-0.65625-0.125-1-0.125-0.98047 0-1.7344 0.32031-2.2656 0.95312-0.53125 0.625-0.79688 1.5273-0.79688 2.7031v5.5156h-3.8125v-11.969h3.8125v1.9688c0.48828-0.78125 1.0508-1.3477 1.6875-1.7031 0.64453-0.36328 1.4102-0.54688 2.2969-0.54688 0.13281 0 0.27344 0.007812 0.42188 0.015625 0.14453 0.011719 0.36328 0.03125 0.65625 0.0625z"/>
  </symbol>
  <symbol id="a" overflow="visible">
   <path d="m13.781-6.0156v1.0938h-8.9375c0.09375 0.89844 0.41406 1.5703 0.96875 2.0156 0.55078 0.44922 1.3281 0.67188 2.3281 0.67188 0.80078 0 1.625-0.11719 2.4688-0.35938 0.84375-0.23828 1.7109-0.59766 2.6094-1.0781v2.9531c-0.90625 0.33594-1.8125 0.58984-2.7188 0.76562s-1.8125 0.26562-2.7188 0.26562c-2.1562 0-3.8398-0.54688-5.0469-1.6406-1.1992-1.1016-1.7969-2.6484-1.7969-4.6406 0-1.9453 0.58594-3.4766 1.7656-4.5938 1.1758-1.125 2.8008-1.6875 4.875-1.6875 1.875 0 3.375 0.57031 4.5 1.7031 1.1328 1.125 1.7031 2.6367 1.7031 4.5312zm-3.9375-1.2656c0-0.72656-0.21484-1.3125-0.64062-1.75-0.41797-0.44531-0.96875-0.67188-1.6562-0.67188-0.74219 0-1.3438 0.21094-1.8125 0.625-0.46094 0.41797-0.74609 1.0156-0.85938 1.7969z"/>
  </symbol>
  <symbol id="g" overflow="visible">
   <path d="m7.2031-5.3906c-0.80469 0-1.4062 0.13672-1.8125 0.40625-0.39844 0.27344-0.59375 0.67188-0.59375 1.2031 0 0.48047 0.16016 0.85938 0.48438 1.1406 0.32031 0.27344 0.77344 0.40625 1.3594 0.40625 0.71875 0 1.3203-0.25391 1.8125-0.76562 0.48828-0.51953 0.73438-1.1719 0.73438-1.9531v-0.4375zm5.8438-1.4375v6.8281h-3.8594v-1.7656c-0.51172 0.71875-1.0898 1.2461-1.7344 1.5781-0.63672 0.33203-1.418 0.5-2.3438 0.5-1.2422 0-2.2461-0.35938-3.0156-1.0781-0.77344-0.72656-1.1562-1.6719-1.1562-2.8281 0-1.3945 0.47656-2.4219 1.4375-3.0781 0.96875-0.65625 2.4883-0.98438 4.5625-0.98438h2.25v-0.29688c0-0.60156-0.24219-1.0469-0.71875-1.3281-0.48047-0.28125-1.2266-0.42188-2.2344-0.42188-0.8125 0-1.5742 0.085937-2.2812 0.25-0.71094 0.15625-1.3672 0.40234-1.9688 0.73438v-2.9219c0.82031-0.19531 1.6445-0.34766 2.4688-0.45312 0.82031-0.10156 1.6484-0.15625 2.4844-0.15625 2.1562 0 3.7109 0.42969 4.6719 1.2812 0.95703 0.84375 1.4375 2.2266 1.4375 4.1406z"/>
  </symbol>
  <symbol id="b" overflow="visible">
   <path d="m6.0156-15.359v3.3906h3.9375v2.7344h-3.9375v5.0781c0 0.55469 0.10938 0.92969 0.32812 1.125 0.21875 0.19922 0.65625 0.29688 1.3125 0.29688h1.9688v2.7344h-3.2812c-1.5117 0-2.5859-0.3125-3.2188-0.9375-0.625-0.63281-0.9375-1.707-0.9375-3.2188v-5.0781h-1.9062v-2.7344h1.9062v-3.3906z"/>
  </symbol>
  <symbol id="i" overflow="visible">
   <path d="m9.9688-10.219v-6.4062h3.8594v16.625h-3.8594v-1.7344c-0.52344 0.71094-1.1016 1.2305-1.7344 1.5625-0.63672 0.32031-1.3711 0.48438-2.2031 0.48438-1.4688 0-2.6797-0.58203-3.625-1.75-0.94922-1.1758-1.4219-2.6875-1.4219-4.5312s0.47266-3.3477 1.4219-4.5156c0.94531-1.1758 2.1562-1.7656 3.625-1.7656 0.83203 0 1.5664 0.16797 2.2031 0.5 0.63281 0.32422 1.2109 0.83594 1.7344 1.5312zm-2.5156 7.75c0.82031 0 1.4453-0.29688 1.875-0.89062 0.42578-0.60156 0.64062-1.4727 0.64062-2.6094 0-1.1445-0.21484-2.0156-0.64062-2.6094-0.42969-0.59375-1.0547-0.89062-1.875-0.89062-0.8125 0-1.4336 0.29688-1.8594 0.89062-0.42969 0.59375-0.64062 1.4648-0.64062 2.6094 0 1.1367 0.21094 2.0078 0.64062 2.6094 0.42578 0.59375 1.0469 0.89062 1.8594 0.89062z"/>
  </symbol>
  <symbol id="c" overflow="visible">
   <path d="m8.2031-2.4688c0.82031 0 1.4453-0.29688 1.875-0.89062 0.42578-0.60156 0.64062-1.4727 0.64062-2.6094 0-1.1445-0.21484-2.0156-0.64062-2.6094-0.42969-0.59375-1.0547-0.89062-1.875-0.89062-0.82422 0-1.4531 0.30469-1.8906 0.90625-0.4375 0.59375-0.65625 1.4609-0.65625 2.5938 0 1.1367 0.21875 2.0078 0.65625 2.6094 0.4375 0.59375 1.0664 0.89062 1.8906 0.89062zm-2.5469-7.75c0.53125-0.69531 1.1133-1.207 1.75-1.5312 0.64453-0.33203 1.3828-0.5 2.2188-0.5 1.4688 0 2.6758 0.58984 3.625 1.7656 0.94531 1.168 1.4219 2.6719 1.4219 4.5156s-0.47656 3.3555-1.4219 4.5312c-0.94922 1.168-2.1562 1.75-3.625 1.75-0.83594 0-1.5742-0.16797-2.2188-0.5-0.63672-0.33203-1.2188-0.84766-1.75-1.5469v1.7344h-3.8125v-16.625h3.8125z"/>
  </symbol>
  <symbol id="f" overflow="visible">
   <path d="m0.26562-11.969h3.8281l3.2188 8.125 2.7344-8.125h3.8125l-5.0312 13.094c-0.5 1.332-1.0898 2.2656-1.7656 2.7969-0.66797 0.53125-1.5547 0.79688-2.6562 0.79688h-2.2188v-2.5h1.2031c0.64453 0 1.1133-0.10547 1.4062-0.3125 0.30078-0.21094 0.53125-0.57812 0.6875-1.1094l0.10938-0.34375z"/>
  </symbol>
  <symbol id="h" overflow="visible">
   <path d="m2.0156-15.953h4.1094v6.0781h6.0625v-6.0781h4.1094v15.953h-4.1094v-6.7656h-6.0625v6.7656h-4.1094z"/>
  </symbol>
  <symbol id="t" overflow="visible">
   <path d="m7.8438-8.875c0.86328 0 1.4844-0.16016 1.8594-0.48438 0.375-0.32031 0.5625-0.84766 0.5625-1.5781 0-0.72656-0.1875-1.25-0.5625-1.5625s-0.99609-0.46875-1.8594-0.46875h-1.7188v4.0938zm-1.7188 2.8438v6.0312h-4.1094v-15.953h6.2656c2.1016 0 3.6445 0.35547 4.625 1.0625 0.97656 0.71094 1.4688 1.8242 1.4688 3.3438 0 1.0547-0.25781 1.918-0.76562 2.5938-0.51172 0.67969-1.2773 1.1797-2.2969 1.5 0.5625 0.125 1.0625 0.41797 1.5 0.875 0.44531 0.44922 0.89844 1.1328 1.3594 2.0469l2.2344 4.5312h-4.375l-1.9531-3.9688c-0.38672-0.78906-0.78125-1.332-1.1875-1.625-0.40625-0.28906-0.94531-0.4375-1.6094-0.4375z"/>
  </symbol>
  <symbol id="s" overflow="visible">
   <path d="m1.8438-11.969h3.8125v11.969h-3.8125zm0-4.6562h3.8125v3.125h-3.8125z"/>
  </symbol>
  <symbol id="r" overflow="visible">
   <path d="m9.7031-16.625v2.5156h-2.1094c-0.54297 0-0.92188 0.10156-1.1406 0.29688-0.21094 0.19922-0.3125 0.53906-0.3125 1.0156v0.82812h3.2656v2.7344h-3.2656v9.2344h-3.8281v-9.2344h-1.8906v-2.7344h1.8906v-0.82812c0-1.3008 0.36328-2.2656 1.0938-2.8906 0.72656-0.625 1.8516-0.9375 3.375-0.9375z"/>
  </symbol>
  <symbol id="e" overflow="visible">
   <path d="m7.5312-9.5156c-0.84375 0-1.4922 0.30859-1.9375 0.92188-0.44922 0.60547-0.67188 1.4805-0.67188 2.625 0 1.1484 0.22266 2.0273 0.67188 2.6406 0.44531 0.60547 1.0938 0.90625 1.9375 0.90625 0.83203 0 1.4688-0.30078 1.9062-0.90625 0.44531-0.61328 0.67188-1.4922 0.67188-2.6406 0-1.1445-0.22656-2.0195-0.67188-2.625-0.4375-0.61328-1.0742-0.92188-1.9062-0.92188zm0-2.7344c2.0508 0 3.6562 0.55859 4.8125 1.6719 1.1641 1.1055 1.75 2.6406 1.75 4.6094s-0.58594 3.5117-1.75 4.625c-1.1562 1.1055-2.7617 1.6562-4.8125 1.6562-2.0625 0-3.6797-0.55078-4.8438-1.6562-1.168-1.1133-1.75-2.6562-1.75-4.625s0.58203-3.5039 1.75-4.6094c1.1641-1.1133 2.7812-1.6719 4.8438-1.6719z"/>
  </symbol>
  <symbol id="q" overflow="visible">
   <path d="m12.922-9.9688c0.48828-0.75 1.0625-1.3164 1.7188-1.7031 0.66406-0.38281 1.3984-0.57812 2.2031-0.57812 1.375 0 2.4219 0.42969 3.1406 1.2812 0.71875 0.84375 1.0781 2.0742 1.0781 3.6875v7.2812h-3.8438v-6.2344c0.007812-0.09375 0.015625-0.1875 0.015625-0.28125v-0.4375c0-0.84375-0.125-1.457-0.375-1.8438-0.25-0.38281-0.65234-0.57812-1.2031-0.57812-0.73047 0-1.293 0.30469-1.6875 0.90625-0.38672 0.59375-0.58984 1.4609-0.60938 2.5938v5.875h-3.8438v-6.2344c0-1.3203-0.11719-2.1758-0.34375-2.5625-0.23047-0.38281-0.63672-0.57812-1.2188-0.57812-0.73047 0-1.2969 0.30469-1.7031 0.90625-0.39844 0.60547-0.59375 1.4648-0.59375 2.5781v5.8906h-3.8438v-11.969h3.8438v1.75c0.46875-0.66406 1.0039-1.1719 1.6094-1.5156 0.61328-0.34375 1.2891-0.51562 2.0312-0.51562 0.82031 0 1.5508 0.19922 2.1875 0.59375 0.63281 0.39844 1.1133 0.96094 1.4375 1.6875z"/>
  </symbol>
  <symbol id="p" overflow="visible">
   <path d="m13.859-7.2812v7.2812h-3.8438v-5.5469c0-1.0508-0.027344-1.7695-0.078125-2.1562-0.042969-0.39453-0.12109-0.6875-0.23438-0.875-0.14844-0.25-0.35156-0.44141-0.60938-0.57812-0.25-0.14453-0.54297-0.21875-0.875-0.21875-0.79297 0-1.418 0.3125-1.875 0.9375-0.46094 0.61719-0.6875 1.4648-0.6875 2.5469v5.8906h-3.8125v-16.625h3.8125v6.4062c0.58203-0.69531 1.1953-1.207 1.8438-1.5312 0.64453-0.33203 1.3594-0.5 2.1406-0.5 1.3828 0 2.4297 0.42969 3.1406 1.2812 0.71875 0.84375 1.0781 2.0742 1.0781 3.6875z"/>
  </symbol>
  <symbol id="o" overflow="visible">
   <path d="m2.0156-15.953h4.5781l5.8125 10.938v-10.938h3.8906v15.953h-4.5938l-5.7969-10.938v10.938h-3.8906z"/>
  </symbol>
  <symbol id="n" overflow="visible">
   <path d="m1.7031-4.6562v-7.3125h3.8438v1.2031c0 0.64844-0.007813 1.4609-0.015625 2.4375v1.9688c0 0.96094 0.023438 1.6523 0.078125 2.0781 0.050781 0.41797 0.13281 0.72656 0.25 0.92188 0.15625 0.25 0.35938 0.44531 0.60938 0.57812 0.25781 0.13672 0.55078 0.20312 0.875 0.20312 0.80078 0 1.4258-0.30469 1.875-0.92188 0.45703-0.61328 0.6875-1.4688 0.6875-2.5625v-5.9062h3.8281v11.969h-3.8281v-1.7344c-0.57422 0.69922-1.1836 1.2148-1.8281 1.5469-0.64844 0.33203-1.3555 0.5-2.125 0.5-1.3867 0-2.4453-0.42188-3.1719-1.2656-0.71875-0.85156-1.0781-2.0859-1.0781-3.7031z"/>
  </symbol>
  <symbol id="m" overflow="visible">
   <path d="m13.859-7.2812v7.2812h-3.8438v-5.5781c0-1.0312-0.027344-1.7383-0.078125-2.125-0.042969-0.39453-0.12109-0.6875-0.23438-0.875-0.14844-0.25-0.35156-0.44141-0.60938-0.57812-0.25-0.14453-0.54297-0.21875-0.875-0.21875-0.79297 0-1.418 0.3125-1.875 0.9375-0.46094 0.61719-0.6875 1.4648-0.6875 2.5469v5.8906h-3.8125v-11.969h3.8125v1.75c0.58203-0.69531 1.1953-1.207 1.8438-1.5312 0.64453-0.33203 1.3594-0.5 2.1406-0.5 1.3828 0 2.4297 0.42969 3.1406 1.2812 0.71875 0.84375 1.0781 2.0742 1.0781 3.6875z"/>
  </symbol>
  <symbol id="l" overflow="visible">
   <path d="m2.0156-15.953h6.8125c2.0312 0 3.5859 0.45312 4.6719 1.3594 1.0938 0.89844 1.6406 2.1797 1.6406 3.8438 0 1.6797-0.54688 2.9688-1.6406 3.875-1.0859 0.89844-2.6406 1.3438-4.6719 1.3438h-2.7031v5.5312h-4.1094zm4.1094 2.9844v4.4531h2.2656c0.80078 0 1.4141-0.19141 1.8438-0.57812 0.4375-0.38281 0.65625-0.9375 0.65625-1.6562 0-0.70703-0.21875-1.2539-0.65625-1.6406-0.42969-0.38281-1.043-0.57812-1.8438-0.57812z"/>
  </symbol>
  <symbol id="k" overflow="visible">
   <path d="m1.8438-11.969h3.8125v11.75c0 1.6016-0.38672 2.8281-1.1562 3.6719-0.76172 0.84375-1.8711 1.2656-3.3281 1.2656h-1.8906v-2.5h0.65625c0.72656 0 1.2266-0.16797 1.5-0.5 0.26953-0.32422 0.40625-0.96875 0.40625-1.9375zm0-4.6562h3.8125v3.125h-3.8125z"/>
  </symbol>
  <symbol id="j" overflow="visible">
   <path d="m11.5-11.594v3.125c-0.52344-0.35156-1.043-0.61328-1.5625-0.78125-0.52344-0.17578-1.0625-0.26562-1.625-0.26562-1.0742 0-1.9062 0.3125-2.5 0.9375s-0.89062 1.4961-0.89062 2.6094c0 1.1172 0.29688 1.9844 0.89062 2.6094s1.4258 0.9375 2.5 0.9375c0.59375 0 1.1562-0.085937 1.6875-0.26562 0.53906-0.17578 1.0391-0.44141 1.5-0.79688v3.125c-0.59375 0.23047-1.1992 0.39453-1.8125 0.5-0.61719 0.11328-1.2344 0.17188-1.8594 0.17188-2.1562 0-3.8438-0.55078-5.0625-1.6562-1.2188-1.1133-1.8281-2.6562-1.8281-4.625s0.60938-3.5039 1.8281-4.6094c1.2188-1.1133 2.9062-1.6719 5.0625-1.6719 0.625 0 1.2383 0.058594 1.8438 0.17188 0.61328 0.10547 1.2227 0.26562 1.8281 0.48438z"/>
  </symbol>
 </defs>
 <g>
  <path d="m296.89 188.46c0.34766 1.957 1.0156 3.8438 1.9844 5.582 1.4688-0.65625 2.9648-1.3125 4.4141-2.0312 1.7773-0.875 3.5508-1.75 5.3555-2.5898-0.10156-0.40234-0.25391-0.80859-0.35547-1.2148-1.1406-4.543-2.918-4.6445-7.5117-2.6641-1.582 0.57422-3.1992 1.0312-4.8477 1.3711 0.027344 0.10156 0.027344 0.20313 0.050781 0.30469 0.5 0.22656 0.84766 0.69922 0.91016 1.2422z"/>
  <path d="m298.22 176.38c-0.15234-2.625-0.12891-5.2539 0.074219-7.875-0.76172 0.4375-1.5234 0.875-2.2305 1.3477-0.875 0.60938 1.1172 4.375 1.3711 4.9492 0.25 0.57031 0.50391 1.0469 0.78516 1.5781z"/>
  <path d="m300.05 204.31c-0.875-1.5469-1.7773-3.0977-2.6641-4.6445 0.17578 1.75 0.37891 3.5 0.65625 5.25 0.66016-0.21094 1.3477-0.41406 2.0078-0.60547z"/>
  <path d="m318.68 197.55c-0.48047-1.3477-0.96875-2.6641-1.3945-4.0391-0.29297-0.83594-0.57031-1.6992-0.83984-2.5859l-2.4375 1.0625c0.8125 2.1367 1.6289 4.2656 2.4141 6.4219 0.76953-0.27734 1.4961-0.57812 2.2578-0.85938z"/>
  <path d="m307.81 224.68c-2.2578-5.7148-3.707-12.059-6.3203-17.617-0.96094 0.28125-1.9023 0.58594-2.8672 0.83984 2.0234 9.9219 6 19.34 11.699 27.715-0.38672-3.7344-1.2305-7.4102-2.5117-10.938z"/>
  <path d="m325.98 230.77c0.60938-1.4219 0-2.5391-0.61328-5.9414-0.875-4.8477-2.3828-9.625-3.0195-14.516h0.003907c-0.45312-3.0898-1.2344-6.1172-2.3359-9.0352-0.75781 0.25391-1.543 0.50781-2.332 0.76172 0.40625 1.168 0.76172 2.3594 1.0898 3.5508 2.3086 8.4023 5 16.777 7.207 25.18z"/>
  <path d="m361.81 182.9c-0.33203-0.78906-0.6875-1.543-0.99219-2.3047-0.68359-1.6289-1.3125-3.3516-1.9297-5.1055-1.3125 0.35937-2.2578 0.63281-2.5391 0.71484v-0.003906c-9.0391 2.5547-17.945 5.5625-26.688 9.0078-3.2227 1.375-6.4453 2.7969-9.668 4.1914 0.63281 2.2852 1.3711 4.5664 2.1289 6.8242 12.059-4.4141 24.441-8.2188 36.547-12.25 1.0195-0.36328 2.0859-0.71484 3.1406-1.0742z"/>
  <path d="m300.81 197.47c0.63281 1.0898 1.2695 2.1875 1.8242 3.2969 0.40625 0.78125 0.73828 1.5703 1.1211 2.3594 2.5625-0.83594 5.1016-1.75 7.6133-2.7656 0.35547-0.15234 0.73437-0.28125 1.1172-0.4375-0.875-2.0312-1.6992-4.1602-2.457-6.2695-3.0781 1.3281-6.1484 2.5977-9.2188 3.8164z"/>
  <path d="m297.71 147.83c0.22266 0.14062 0.41797 0.32031 0.58203 0.53125 2.5078 3.4648 3.8672 7.6289 3.8828 11.906-0.30859 3.8945-0.27344 7.8086 0.10156 11.699-0.066406 2.7539 0.0625 5.5078 0.37891 8.2461 0.33203-0.10156 0.6875-0.20313 1.043-0.27734-0.8125-5.2305-1.1641-10.523-1.043-15.812 0-4.7461-0.25391-15.051-4.0859-19.645-0.30078 1.1133-0.60547 2.2344-0.85937 3.3516z"/>
  <path d="m345.43 110.41c0.09375 0.61328-0.10156 1.2344-0.53516 1.6758 4.5664 1.375 6.2969 7.918 7.2109 14.52v0.003906c0 0.13672-0.007813 0.26953-0.027344 0.40625 0.14453 0.15234 0.25781 0.33203 0.32812 0.52734 0.71484 1.8828 6.8516 3.8867 6.2188-0.10156-0.14844-1.1406-0.32812-2.2852-0.48047-3.4531l-0.003906 0.003907c-0.43359-2.4609-1.2656-4.8359-2.4609-7.0312-1.0156-1.8008-1.875-3.6523-2.8906-5.4297-0.55859-1.0156-1.168-2.0039-1.8008-2.9688-2.4688-3.4023-4.3164-2.7656-5.5586 1.8477z"/>
  <path d="m321.97 231.81c-0.66797-1.5742-1.1602-3.2148-1.4688-4.8984-1.4375-7.9648-3.6055-15.781-6.4766-23.352-0.035156-0.10156-0.078125-0.20703-0.125-0.30469-2.9453 0.96484-5.9141 1.8945-8.9062 2.793 1.2695 3.0234 2.3633 6.0664 3.4531 9.2148 1.4961 4.375 6.5977 14.57 5.9648 21 3.4258-0.49219 9.082-1.3789 7.5586-4.4531z"/>
  <path d="m328.88 62.562c-1.8281 0.78906-1.1406 3.3984 0.10156 4.5156h-0.003907c0.80859 0.66016 1.957 0.71094 2.8203 0.125 0.98047-0.60156 1.5078-1.7266 1.3477-2.8633-0.23438-0.875-0.86328-1.5898-1.6992-1.9375-0.83203-0.34766-1.7812-0.28906-2.5664 0.16016z"/>
  <path d="m362.55 131.02c-0.14844-0.35156-0.47266-0.59766-0.84766-0.65234-0.375-0.050782-0.75391 0.09375-0.99609 0.38281-0.27344 0.34375-0.625 0.61328-1.0273 0.78516l-0.066406 0.027344h0.003906c-0.17188 0.078125-0.34375 0.14453-0.52344 0.19922-0.29297 0.097656-0.53125 0.3125-0.65625 0.59375-0.12109 0.28125-0.12109 0.59766 0 0.875 5.0078 11.199 9.7578 22.883 13.961 33.219-0.625 0.16016-1.25 0.32812-1.8594 0.53516-2.8516 0.96875-5.6094 2.1875-8.3594 3.4141-2.8906 1.2734-0.39062 5.5156 2.4844 4.25v-0.003906c3.1211-1.4609 6.3477-2.6875 9.6523-3.668l0.082031-0.023438c0 0.10938-0.050781 0.21484 0 0.32031l1.5938 3.8906c0.066407 0.17188 0.13672 0.35547 0.21094 0.53516v-0.003906c-3.2969 1.3594-6.5117 2.9102-9.625 4.6367-2.832 1.4219-0.33984 5.6875 2.4844 4.25 3.6055-2.3086 7.543-4.0508 11.676-5.168-0.37109 0.17969-0.875 0.40234-1.6016 0.67188v0.003906c-0.27344 0.097656-0.49219 0.30469-0.61328 0.57031-0.10938 0.27344-0.10938 0.57422 0 0.84766 1.168 2.9883 2.3125 6.0039 3.4414 9.0391l0.003906-0.003906c3.7656 10.641 8.168 21.043 13.18 31.152 0.19141 0.35938 0.56641 0.58594 0.97266 0.58594 0.10547 0 0.21094-0.015625 0.30859-0.042968 0.67969-0.19531 1.3398-0.44922 1.9688-0.76563h0.03125c0.53516-0.23437 0.79297-0.84375 0.58984-1.3867-4.8125-12.91-10.164-26.551-15.93-40.539-0.035157-0.085937-0.14063-0.10547-0.19141-0.17969 0.20703 0 0.4375 0 0.625 0.03125 3.0977 0.51172 4.4336-4.2305 1.3125-4.7461-1.2461-0.1875-2.5156-0.21094-3.7695-0.070312-0.3125-0.75781-0.62109-1.5156-0.94141-2.2656l-1.0625-2.5664c0-0.027344-0.039063-0.035156-0.050782-0.058594v-0.003906c1.0156-0.32031 2.0039-0.73047 2.9531-1.2266 2.7852-1.5156 0.30078-5.7656-2.4844-4.2539h-0.003906c-0.75 0.40234-1.5352 0.73437-2.3477 0.99219v-0.10938c-4.8164-11.398-9.6758-22.754-14.578-34.07z"/>
  <path d="m362.54 125.26c2.2578-0.40234 4.668-0.60938 3.6523-3.6797-0.83203-2.8242-1.8242-5.6016-2.9688-8.3125-1.0078-1.832-1.9141-3.7148-2.7188-5.6445-0.35156-1.3008-0.94531-2.5273-1.75-3.6094-1.7812-1.7227-3.2227-1.4453-4.375 0.875-0.03125 0.29297-0.11719 0.57422-0.25391 0.83594 2.332 3.4336 4.25 7.1289 5.7109 11.016 1.1875 2.7422 2.0938 5.5938 2.7031 8.5195z"/>
  <path d="m326.9 248.72c-1.7266-3.2383-2.8047-6.7812-3.1758-10.434-2.4023 0.83203-4.9023 1.3516-7.4375 1.5469 2.9258 3.6289 6.5312 6.6445 10.613 8.8867z"/>
  <path d="m327.56 238.03c8.6367-1.1602 17.012-3.8125 24.742-7.8398 7.6406-3.9844 16.188-6.3203 23.984-10.062-2.332-5.8828-4.5938-12.156-6.5625-18.172-1.7812-5.3281-4.1133-10.402-6.375-15.504-0.37891 0.10156-0.68359 0.20312-0.83594 0.25391-6.957 2.3086-13.629 5.457-20.609 7.5625-6.2188 1.8516-12.332 3.8789-18.449 5.9102 0.53125 1.5742 1.0625 3.125 1.5703 4.6719 2.625 8.1211 4.1641 17.004 6.4219 25.203 0.98828 3.6055-2.6914 4.2383-4.6445 6.0391 0.28125 0.24609 0.47656 0.57422 0.55859 0.9375 0.066407 0.31641 0.11719 0.64453 0.19922 1z"/>
  <path d="m340.12 69.27c0.35547-5.25-1.2148-15.051-8.1992-15.125-2.625-0.027343-8.0195-0.050781-9.5156 2.8438-1.3047 2.6602-1.875 5.6211-1.6484 8.5742 0.45313 6.2734 5.8242 11.035 12.105 10.738 4.2891-0.17578 5.8125-3.4727 7.2578-7.0312zm-14.977-1.0195c-1.0664-1.7578-1.4297-3.8516-1.0156-5.8672 0.71094-1.832 2.293-3.1875 4.2148-3.6016 1.75-0.57812 3.6641-0.40625 5.2852 0.48438 1.6172 0.88672 2.793 2.4062 3.2461 4.1953 0.023438 0.125 0 0.25391 0.023438 0.35547 0.023437 0.10156 0.027343 0.10156 0.027343 0.15234h-0.003906c0.40234 3.1602-1.5039 6.1562-4.5391 7.1289-2.7852 0.94141-5.8398-0.26172-7.2383-2.8477z"/>
  <path d="m390.2 234.06c7.3359-2.5117 14.438-5.4805 21.703-8.1445-0.058594-0.046875-0.10938-0.097657-0.15234-0.15625-0.98828-1.6484-2.1875-7.875-4.875-6.043v0.003906c-2.2578 1.5273-4.625 2.8867-7.082 4.0625-2.8633 1.1914-5.8086 2.1836-8.8086 2.9648-4.0078 1.2812-2.5352 4.7109-0.78516 7.3125z"/>
  <path d="m359.51 240.37c2.2109 0.49609 4.1172 1.8945 5.25 3.8594 1.3438-0.61328 2.6641-1.2188 4.0078-1.8555-0.085937-0.29688-0.09375-0.61328-0.027343-0.91406 0.53516-2.1055 0.40625-4.3125 0.8125-6.3711-3.2891 1.8555-6.6406 3.6055-10.043 5.2812z"/>
  <path d="m354.44 245.32c-0.55469 1.1055-0.86719 2.3164-0.91406 3.5508 2.5898-0.9375 5.1523-1.9766 7.6914-3.0625-1.5898-1.9609-5.3828-3.0742-6.7773-0.48828z"/>
  <path d="m443.78 306.36c-1.9219 0.80859-3.9062 1.4609-5.9375 1.9531-1.8594 1.1914-3.8203 2.2188-5.8672 3.0625-4.3828 1.3906-8.9141 2.2695-13.5 2.625-0.31641-0.003906-0.63281-0.082031-0.91406-0.23047-6.3164 2.7422-12.434 6.8516-14.234 12.688 4.0352-0.58594 8.0977-2.0547 11.445-2.8438h-0.003906c6.5977-1.5391 13.062-3.5898 19.344-6.125 10.176-4.2383 21-7.5898 30.074-14.062v0.003907c-2.8047-1.5742-5.9961-2.3281-9.2109-2.1719-3.2109 0.15625-6.3164 1.2109-8.957 3.0469-0.003906 0.57422-0.24609 1.125-0.66797 1.5156-0.42578 0.39063-0.99609 0.58594-1.5703 0.53906z"/>
  <path d="m444.5 222.35c1.1875-3.125 2.6758-6.125 4.4453-8.9609 0.125-0.20312 0.28125-0.40625 0.4375-0.63281-0.94141-0.4375-2.0625-0.48047-2.9961-1.0156-0.66016-0.35547-1.4219-0.50781-2.082-0.91406-0.56641-0.33203-1.0898-0.73438-1.5508-1.1953-0.58203 1.043-1.0898 1.9805-1.4688 2.5156-2.1953 2.4414-4.0547 5.1641-5.5352 8.0938 1.2773 0.035157 2.5508 0.16797 3.8047 0.40625 1.7148 0.35156 3.3789 0.92188 4.9453 1.7031z"/>
  <path d="m432.18 306.79c1.6953-1.0273 3.5-1.8594 5.3828-2.4844 1.3281-0.24609 2.6367-0.60156 3.9062-1.0703-6.4648-12.277-11.316-25.336-14.438-38.859-0.37891 0.125-0.78906 0.28125-1.1914 0.40625-7.0586 2.1562-14.141 4.375-21.195 6.5625v0.003906c5.8984 12.543 10.887 25.496 14.922 38.758 4.3984-0.14844 8.7109-1.2812 12.613-3.3164z"/>
  <path d="m377.51 223.79c-15.203 7.5625-32.312 15.633-49.242 17.938 0.70703 2.8945 1.9805 5.1523 5.4805 3.6562 2.7656-1.1953 6.125-1.168 9.0352-2.3086 8.1016-3.3125 16-7.1016 23.656-11.344 3.8594-2.082 7.9453-3.7578 11.73-6.0195-0.027344 0.003906-0.30859-0.88281-0.66016-1.9219z"/>
  <path d="m445.43 207.02c0.25 0.19922 0.51172 0.37891 0.78906 0.53516 0.41406 0.22656 0.85547 0.40234 1.3125 0.52734 1.2695 0.32812 2.5 0.77734 3.6797 1.3477 0.52734-0.91406 0.64062-2.0156 0.30469-3.0195-0.33203-1-1.082-1.8125-2.0547-2.2305-1.7266-0.8125-3.25 0.30469-4.5195 1.957 0.089844 0.18359 0.15234 0.37891 0.17969 0.58203 0.007812-0.15625 0.25781 0.22266 0.30859 0.30078z"/>
  <path d="m329.92 164.55c-7.3945 3.1719-15.203 5.293-23.188 6.2969-0.019531 2.7109 0.19141 5.418 0.63672 8.0938 0.023437 0.050782 0 0.10156 0 0.17969 3.9062-0.20312 10.102-1.4219 11.039 3.6797 0.125 0.71484 0.28125 1.4492 0.4375 2.1562 10.988-4.543 22.312-8.4531 33.477-11.953 1.7031-0.53516 3.4258-1.0938 5.1523-1.6484-1.7734-5.9297-4.1484-11.66-7.082-17.105-6.3086 4.375-13.199 7.8438-20.473 10.301z"/>
  <path d="m347.61 151.51c-5.6875-3.0625-14.695 3.3984-20.637 5.6602-6.6133 2.8867-13.387 5.3984-20.285 7.5117 0.027344 0.78906 0 1.5742 0 2.3594 7.6797-0.86328 15.172-2.9297 22.207-6.125 6.5312-2.5156 12.801-5.668 18.715-9.4062z"/>
  <path d="m319.66 154c-4.4688 1.2695-8.75 3.2461-13.246 4.3398 0.074219 0.80859 0.125 1.625 0.17578 2.4375h-0.003906c8.668-2.7656 17.145-6.0977 25.375-9.9766-2.9648-0.96875-9.7383 2.4805-12.301 3.1992z"/>
  <path d="m332.5 250.21c5.6484 1.25 11.504 1.207 17.133-0.125-0.011718-1.9727 0.34766-3.9258 1.0625-5.7617-3.7031 1.5273-7.5039 2.8164-11.375 3.8555-1.6562 0.45703-4.3477 1.5781-6.8203 2.0312z"/>
  <path d="m338.89 86.895c-0.38281-0.37891-0.98047-0.42188-1.418-0.10938-0.76953 0.5625-1.5469 1.1211-2.3281 1.6758-2.6992 1.8594-5.2969 3.8672-7.7773 6.0078-2.3203 2.0625-4.5469 4.2383-6.625 6.4648v0.003906c-0.29297 0.32031-0.37109 0.78125-0.19531 1.1836 0.17188 0.39844 0.56641 0.65625 1.0039 0.65625 0.21484 0 0.42578-0.066406 0.60547-0.1875 1.0273-0.6875 2.0742-1.3555 3.1211-2.0195 1.5781-1.0078 3.1602-2.0117 4.6719-3.0938 3.6719-2.625 7.5508-5.1406 10.902-7.3125 0.31641-0.20703 0.50391-0.5625 0.49609-0.94141s-0.21094-0.72656-0.53906-0.91797c-0.51172-0.30859-1.0039-0.64453-1.4766-1.0078-0.125-0.10938-0.29297-0.23438-0.44141-0.40234z"/>
  <path d="m302.23 133.41c-0.91406 2.332-1.75 4.668-2.4648 7.0312 2.4023 2.3008 4.0742 5.2578 4.8125 8.5 7.9453-3.5 15.203-8.2461 23.273-11.625 7.0312-2.918 13.352-7.2852 20.457-10.203l0.003906 0.003907c-0.4375-2.5859-1.0977-5.125-1.9805-7.5938-2.1602-6.5234-4.9258-4.0352-8.3125-1.9297-2.5781 1.4805-5.3203 2.6562-8.1719 3.5-9.1797 3.4961-18.148 7.5273-26.852 12.082-0.23828 0.125-0.5 0.20312-0.76562 0.23438z"/>
  <path d="m344.59 87.125 0.30469-0.21875c0.96094-0.51172 1.6719-1.3906 1.9766-2.4336 0.089844-0.70312-0.11719-1.4102-0.57422-1.9531l-0.31641-0.39844 0.003906 0.003906c-0.20312-0.30469-0.55469-0.47266-0.91797-0.4375-0.35938 0.015625-0.6875 0.20703-0.875 0.51172-0.0625 0.097656-0.14453 0.18359-0.23828 0.25391-0.82422 0.53125-1.6953 0.99609-2.5977 1.3789-0.085938 0.039063-0.16406 0.085938-0.23828 0.14062l-0.65625 0.52344v0.003906c-0.26953 0.21094-0.42578 0.53906-0.42188 0.88281 0.007813 0.34375 0.17578 0.66406 0.45313 0.86719 0.80469 0.69531 1.7969 1.1406 2.8516 1.2773 0.44922 0.011718 0.88672-0.13281 1.2461-0.40234z"/>
  <path d="m315.22 186.48c-0.027344-0.17578-0.074218-0.32812-0.10156-0.50781-0.22656-2.0469-2.0625-3.5312-4.1094-3.3242 0.4375 1.7031 0.91406 3.4023 1.4688 5.0547 0.91406-0.41016 1.8281-0.84375 2.7422-1.2227z"/>
  <path d="m295.02 165.95c1.043-0.66016 2.2109-1.1953 3.1992-1.7773 0.10156-0.050781 0.17969-0.050781 0.25391-0.10156 0.11719-2.6953-0.12891-5.3945-0.73828-8.0234-0.55469 0.45703-1.168 0.83203-1.8281 1.1211-0.43359 2.918-0.70703 5.8359-0.88672 8.7812z"/>
  <path d="m378.07 258.12c1.2266 1.043 2.1992 2.3555 2.8438 3.832 1.0156 2.1562 2.3828 4.1641 3.25 6.4492 0.80859 2.1875 2.6641 6.8789 5.4297 4.1875-1.625-5.1992-5.9023-13.445-11.523-14.469z"/>
  <path d="m354.89 265.59c-0.78906 0.30469-1.5742 0.58594-2.3906 0.875 1.3711 5.9648 9.8008 4.3398 13.504 1.5977h0.003907c2.4062-2.2148 3.8047-5.3125 3.8828-8.582-0.023437-0.007813-0.050781-0.007813-0.074219 0-5.1016 1.6211-9.9492 4.2305-14.926 6.1094z"/>
  <path d="m288.07 290.8c3.3477 1.9062 5.8086 5.0547 10.531 4.7734 7.3867-0.4375 8.8867-7.5391 8.832-13.527-2.8711 1.1406-5.7617 2.2305-8.6328 3.3242h0.003906c-3.6758 1.6133-7.2578 3.4258-10.734 5.4297z"/>
  <path d="m450.25 242.22c-0.30469-26.688-26.551-16.852-42.137-10.43-11.09 4.5938-22.895 7.1562-33.859 12.059v-0.003906c-7.6602 3.9922-15.625 7.3711-23.82 10.102-8.3477 1.9297-17.078 1.3203-25.078-1.75-0.91016-0.33984-1.7891-0.76172-2.625-1.2656 3.6289 4.3555 4.6641 10.312 2.7188 15.633-0.60938 1.6758-1.3125 3.7539-2.2109 5.6875 5.9141-2.0078 12.004-3.6562 17.793-5.6602 9.6953-3.3516 19.25-8.8867 29.191-11.348 11.879-2.9414 19.57 4.8125 22.867 15.715 9.5938-2.9688 19.188-5.9922 28.809-8.9375 8.2461-2.582 28.477-8.5039 28.352-19.801zm-19.316-5.5039c0.47266-1.5 1.5234-2.7461 2.9219-3.4609s3.0234-0.84375 4.5156-0.35156c1.8828 0.75391 3.3164 2.3242 3.9023 4.2656 0.58203 1.9414 0.25 4.043-0.90625 5.7109-0.082032 0.15234-0.17578 0.29688-0.27734 0.4375-0.96875 1.1875-2.3711 1.9414-3.8984 2.0898-1.5234 0.14844-3.0469-0.32031-4.2227-1.3047-1.9531-1.9219-2.7266-4.7383-2.0352-7.3867z"/>
  <path d="m226.52 247.73c-4.4883-2.3633-9.9844-1.5977-13.656 1.9023-4.375 5.0273-3.4531 17.539 3.2188 20.711h0.003906c6.1133 2.9102 13.438 0.79688 17.062-4.9219 1.1953-3.2773 1.1953-6.875 0-10.152-1.1016-3.3047-3.4922-6.0273-6.6289-7.5391zm-4.7031 18.633c-1.8906-0.13672-3.6484-1.0312-4.875-2.4766-1.2266-1.4492-1.8203-3.3281-1.6484-5.2148-0.20312-1.8906 0.41797-3.7773 1.7031-5.1797 1.5273-1.2148 3.5078-1.7148 5.4297-1.3711 0.085937 0.003906 0.17188 0.019531 0.25391 0.054687 0.11328-0.042969 0.23438-0.0625 0.35156-0.054687 4.2656 0.35156 7.5156 3.9688 7.4141 8.2461-0.27344 3.9609-5.0664 6.3516-8.6289 5.9961z"/>
  <path d="m223.04 255.94c-0.089843-0.039062-0.18359-0.0625-0.28125-0.074219-0.11719 0.035157-0.23437 0.058594-0.35547 0.074219 0 0-2.4375-0.40625-2.9688 0.48047-0.35156 0.86328-0.41406 1.8164-0.17578 2.7188 0.17578 1.9023 0.875 3.5 3.0625 3.4531 1.4219-0.050782 4.4688-0.70703 4.375-2.625v-0.003906c-0.125-2.0312-1.6484-3.7031-3.6562-4.0234z"/>
  <path d="m442.28 327.25c9.668-4.1875 21.066-8.5781 29.289-15.484-0.4375-0.70703-0.875-1.4219-1.375-2.1289h0.003907c-0.87891-1.375-1.9062-2.6523-3.0625-3.8086-9.2266 5.8594-19.121 10.598-29.469 14.109-8.0664 3.082-16.293 5.7109-24.645 7.875-2.4648 0.6875-7.2344 1.625-10.254 2.1875h-0.003906c0.082031 2.6172 0.80469 5.1719 2.1055 7.4375 0.10547 0.20703 0.20703 0.4375 0.30469 0.63281v0.003907c5.5703-0.67969 11.035-2.043 16.273-4.0586 7.1133-1.6953 14.082-3.957 20.832-6.7656z"/>
  <path d="m294.88 208.97c-16.574 4.5703-32.617 10.734-48.656 16.855-13.648 5.9648-27.605 11.195-41.809 15.676 0.37891 3.3008 0.55469 6.625 0.53125 9.9492 0 7.2109-1.7773 16.07 4.375 21.652 3.8633 3.8047 9.0195 6.0156 14.438 6.1914 2.3633-0.20312 5.0781-1.8516 7.5391-1.8516 3.8867 0 7.4375 3.4531 10.789 4.9727 6.7578 2.8906 13.711 5.3008 20.809 7.2109 13.93 3.9844 22.688-3.7305 34.895-7.918 6.6484-2.2891 19.922-5.4805 22.414-12.645 2.4844-7.2305 2.9453-13.297-3.0195-19.082-11.395-11.117-19.168-25.41-22.305-41.012zm-58.465 58.379c-2.3945 3.8789-6.2539 6.6328-10.703 7.6328-4.4492 1.0039-9.1172 0.17188-12.945-2.3047-7.1094-4.7461-8.1719-17.84-3.6836-24.469 4.5469-6.6992 14.594-6.8984 20.965-2.9922 3.4961 2.3477 6.0547 5.8555 7.2188 9.9062 1.1641 4.0469 0.86328 8.3789-0.85156 12.227z"/>
  <path d="m436.57 241.71c0.70312-0.16797 1.332-0.55859 1.7969-1.1172 0.097656-0.050781 0.19141-0.10938 0.28125-0.17578 0.050781-0.027344 0.078125-0.078125 0.125-0.10547 0.40625-0.30078-0.22656-2.4844-0.48047-2.918-0.5-0.75781-1.4336-1.1094-2.3125-0.875-0.46094 0.066407-0.875 0.30859-1.1562 0.67969-0.28125 0.37109-0.40234 0.83984-0.33984 1.3008-0.046875 1.1523 0.4375 2.2656 1.3125 3.0234 0.23438 0.13281 0.50391 0.19922 0.77344 0.1875z"/>
  <path d="m512.08 444.61c1.2852-0.91797 2.4648-1.9727 3.5234-3.1445-7.8984 4.3945-16.16 8.1016-24.691 11.09-9.8594 4.7539-20.547 7.5547-31.473 8.2461 1.8828 1.1016 4.0312 1.6719 6.2148 1.6484 8.0938-0.52734 16.023-2.5234 23.402-5.8828 8.2109-2.8594 15.965-6.8867 23.023-11.957z"/>
  <path d="m505.79 486.11c-1.6641-5.0508-2.9531-10.215-3.8594-15.457-3.1719 5.25 0.61328 13.199 3.2227 18.125h0.003906c1.7812 2.5156 4.8242 3.8164 7.875 3.375-1.1602-0.67578-2.2578-1.4609-3.2734-2.3359-1.5039-1.3438-3.2344-1.5625-3.9688-3.707z"/>
  <path d="m521.65 533.54c-1.1133-3.0703-2.0352-6.2031-2.7656-9.3867-0.71094-4.0039-0.63672-8.1094 0.22656-12.086 0.63281-3.4609 0.82031-6.9883 0.5625-10.5 0-2.5898 1.1172-5.7891-1.8828-5.7891-5.4297 0-12.918 0.4375-15.938-5.0781-2.2305-4.1328-8.0703-15.125-5.3828-19.688 2.6914-4.5625 8.0977-10.582 7.2109-16.223-5.1523 2.3633-10.207 4.1641-13.605 5.4609-2.4375 0.91406-5 1.875-7.6641 2.7656 0.027344 0.078125 0.078125 0.125 0.078125 0.20312 1.4453 8.707 6.2188 17.184 8.8555 25.586 2.2344 7.1094 3.8047 13.352 9.9492 18.047 3.5508 2.7422 6.125 6.2227 9.8203 8.8594v-0.003906c3.5352 3.3828 5.9453 7.7695 6.9102 12.566 0.14844 0.59766 5.7812 12.297 3.625 5.2656z"/>
  <path d="m517.69 435.39c0.24609-0.17578 0.52344-0.30469 0.81641-0.37891 0.007813-3.7461-0.96094-7.4297-2.8164-10.684-7.875 8.4727-18.887 12.434-29.391 17.062h-0.003906c-11.148 4.2305-22.52 7.8555-34.062 10.863 0.86328 1.7422 1.8984 3.3945 3.0977 4.9258 0.1875-0.074219 0.38281-0.11719 0.58203-0.12891 10.691 0.046874 21.258-2.3125 30.918-6.9023 10.582-4.375 21.801-7.4727 30.859-14.758z"/>
  <path d="m489.62 435.8c8.8086-4.8125 17.387-7.1328 24.238-15 0.027344-0.023437 0.050781-0.023437 0.074219-0.046875-0.35547-0.71484-0.70703-1.4492-1.0625-2.1875-1.8555-3.8867-3.6406-7.8359-5.3555-11.852h-0.003906c-10.633 6.7305-22.035 12.168-33.961 16.188-8.375 2.8906-20.25 8.9609-29.898 8.4805 1.957 4.875 3.9609 9.7422 5.8633 14.645 0.35938 0.91406 0.73828 1.875 1.1445 2.8438 0.046875 0 0.10156-0.027344 0.17578-0.027344v-0.003906c7.4102-0.71875 14.645-2.6953 21.398-5.8359 5.9727-1.9492 11.785-4.3555 17.387-7.2031z"/>
  <path d="m474.87 401.79c8.7812-3.9375 16.953-8.6523 25.531-12.793-1.4688-4.0352-2.918-8.0938-4.2148-12.156-1.1406-3.5273-2.1875-7.0781-3.1992-10.637l0.003907-0.003906c-4.2344 3.1758-8.793 5.8906-13.602 8.1016-6.0781 3.2812-12.32 6.2461-18.703 8.8828-10.453 5.0547-21.75 8.1172-33.324 9.0352 1.4219 3.2461 2.8164 6.5234 4.1875 9.7969 1.5234 3.6328 3.0195 7.2852 4.543 10.938h-0.003906c6.9141-0.59766 13.688-2.2773 20.078-4.9766 6.1133-2.0781 12.832-3.5234 18.703-6.1875z"/>
  <path d="m491.67 362.12c0.050781-0.050781 0.10547-0.050781 0.15234-0.10547-1.0156-3.707-2.0547-7.3594-3.1211-11.039-3.7734 2.2422-7.7109 4.2031-11.777 5.8633-1.75 0.80859-3.2227 1.9766-5 2.7109-2.1562 0.875-4.418 1.5-6.5234 2.5156-0.60938 0.28125-5.7617 2.625-5.1758 0.14844 0.125-0.53125 2.3594-1.4453 2.8672-1.7734v0.003907c0.85938-0.625 1.7578-1.1914 2.6914-1.6992 3.3242-1.6484 6.8281-2.8711 10-4.7461 3.6797-2.1562 7.3125-4.375 11.043-6.4492 0.24609-0.14844 0.52344-0.23438 0.80859-0.25391-1.2695-4.2617-2.6641-8.4727-4.2383-12.641-10.074 6.9805-20.914 12.781-32.309 17.285-11.859 4.5586-24.031 8.2578-36.422 11.066 1.1406 2.668 3.0625 10.535 5.582 11.812 1.5547 0.40625 3.2031 0.27344 4.6719-0.38281 1.5469-0.37891 3.1445-0.55469 4.6953-1.0898v0.003907c3-1.5547 6.2656-2.5273 9.625-2.8711 0.35547 1.3945-3.2969 3.3789-4.418 4.0391-1.9258 1.1172-4.2891 1.5234-6.293 2.5391-2.1602 1.0625-4.7461 1.0352-7 1.9531-0.046875 0.027344-0.125 0.050781-0.17578 0.078125-0.83984 0.4375 4.0352 8.6016 4.375 9.4141v-0.003906c12.324-0.87891 24.355-4.1836 35.395-9.7344 9.332-4.4141 23.566-8.707 30.547-16.645z"/>
  <path d="m459.84 423.47c7-2.2344 13.961-4.4922 20.688-7.3906 8.8477-3.5703 17.375-7.8945 25.484-12.918-1.4727-3.5273-2.8945-7.0781-4.2656-10.633-10.027 4.9492-19.75 11.672-30.586 14.875-9.1602 2.6641-27.789 7.4102-33.688 8.8867 1.5195 3.707 3.0625 7.3867 4.543 11.09 5.4648 0.93359 12.875-2.3125 17.824-3.9102z"/>
  <path d="m482 331.03c-2.3711-5.5586-5.1836-10.918-8.4023-16.031-10.148 8.2266-23.684 13.047-35.438 18.199-6.7539 2.6719-13.703 4.8164-20.789 6.4102-3.4336 1.0312-6.9453 1.7773-10.5 2.2305 1.9023 4.9219 3.2461 10.383 5.2031 15.129l1.1406 2.6641c15.027-0.15234 28.758-7.6406 41.562-13.68 9.6289-3.8906 18.766-8.8984 27.223-14.922z"/>
  <path d="m231 160.56 1.0898 0.15234c3.9609-1.75 7.8164-3.4023 11.879-4.9727 4.7227-1.5195 9.293-3.4727 13.652-5.8398 0.66016-2.4336 1.375-4.8945 2.0547-7.332-2.793 1.2188-5.4023 2.9453-8.2188 4.1406-3.8594 1.625-8.0195 2.9648-11.812 4.7188-2.625 1.2148-5.4297 1.8242-8.1445 2.8906-3.5352 1.3984-5.4453 5.6641-0.5 6.2422z"/>
  <path d="m267.56 21.656c-0.125 0.027344-0.25391 0.027344-0.37891 0.050781-3.6523 0.65625-7.4102 1.4961-8.3516 5.8359l-0.003906 0.003906c-0.42969 1.5156-0.63281 3.0898-0.60547 4.668 1.875-1.4102 3.6562-2.9453 5.3281-4.5938 1.5586-1.832 2.9023-3.832 4.0117-5.9648z"/>
  <path d="m243.17 146.2c1.168-0.48047 2.332-1.0352 3.4727-1.625 0-0.046875-0.046875-0.10156-0.046875-0.14844-0.40625-2.0547-0.53516-3.5586-3.2734-2.5156-2.1094 0.8125-4.0391 1.9023-6.125 2.7422v0.003906c-2.0664 0.77734-4.0547 1.7578-5.9375 2.918-1.6016 0.98828-1.5469 1.7227-1.2422 2.8906 4.1914-1.7773 9.1133-2.5625 13.152-4.2656z"/>
  <path d="m250.73 185.27c-4.6953 1.6289-9.2539 3.6289-13.633 5.9883-2.2852 1.3945-6.8242 2.1875-6.5234 5.6367 0.027343 0 0.050781-0.027344 0.078125-0.046875l0.003906-0.003906c2.9062-1.6992 6.0547-2.9414 9.3398-3.6836 1.6484-0.37891 3.1211-1.1406 4.7422-1.5742 1.5-0.25391 2.9531-0.72656 4.3164-1.3945 0.30469-0.19531 0.65625-0.29297 1.0156-0.27734 0.25391-1.5508 0.45703-3.0977 0.66016-4.6445z"/>
  <path d="m277 41.809c-0.17969 0.33203-1.4492 3.1992-1.4688 3.1992l-0.003906-0.003906c0.43359 0.085938 0.875 0.125 1.3125 0.12891 0.23047 0.027344 0.40625 0.074219 0.58594 0.10156 0.48047-0.96094 1.2148-1.6992 1.7227-2.7656h0.003906c0.51172-1.082 1.1797-2.082 1.9805-2.9727 1.0625-1.2148 2.9648-1.8516 2.3594-3.707-0.125-0.4375-0.25391-0.91406-0.35547-1.3711v0.003906c-2.6484 1.8945-4.7617 4.4375-6.1367 7.3867z"/>
  <path d="m341.09 80.938c4.0938-3.1758 6.625-7.9531 6.9492-13.125 0.078126-8.5-3.0625-18.656-13.961-18.578-5.9531-0.63281-11.902 1.2422-16.418 5.1758-0.8125 0.875-1.6758 1.7773-2.5117 2.6641-1.3945 7.9727-1.5 16.523 5.1484 22.262 6.1758 4.1289 14.059 4.7383 20.793 1.6016zm-24.219-17.062c-0.40625-9.9766 7.0586-14.266 16.219-13.453 8.4805 0.76172 11.297 11.812 10.836 18.781 0.089844 0.32031 0.0625 0.66016-0.074219 0.96484-2.6641 6.4219-5.7617 10.5-13.199 9.7734-4.2578-0.62109-8.1445-2.7656-10.938-6.043-2.1992-2.8516-3.2188-6.4414-2.8438-10.023z"/>
  <path d="m281.46 45.613c4.2695 2.1094 8.293 4.6797 12.004 7.6641 4.0312 2.8984 8.1016 5.6133 11.906 8.8477 1.5742-1.9023 3.1992-3.7539 4.875-5.4805-8.2266-4.8125-14.949-13.707-24.164-16.473-1.0508 0.86328-2.0195 1.8242-2.8906 2.8711-0.48828 0.66797-1.168 1.6328-1.7305 2.5703z"/>
  <path d="m260.5 35.285c0.82422 0.46484 1.5352 1.1055 2.082 1.8789 2.4062 3.2109 5.668 5.6758 9.418 7.1055 0.14844-0.96094 0.44141-1.8906 0.875-2.7656 1.8164-4.3594 4.9102-8.0664 8.875-10.633-2.625-2.2266-5.3711-4.3047-8.2266-6.2227-0.875-0.60938-1.5469-1.2891-2.2578-1.875-1.2266 2.4961-2.7461 4.8359-4.5234 6.9766-1.8281 2.082-4.2109 3.6328-6.2422 5.5352z"/>
  <path d="m232.56 200.14c-0.37891 0.23828-0.83203 0.32031-1.2695 0.22656 0.35938 1.3164 0.82031 2.6055 1.3672 3.8594 7.1562 0.80859 14.898-1.6758 16.598-9.7461l0.003906-0.003907c-0.007812-0.042968 0-0.089843 0.023438-0.125-2.0547 0.78906-4.1562 1.4492-6.293 1.9766-3.6367 0.78906-7.1445 2.0703-10.43 3.8125z"/>
  <path d="m255.4 217.78c12.621-5.0469 25.648-9.0117 38.938-11.855-0.30078-1.875-0.58203-3.7812-0.76172-5.6875-2.0312 0.73438-4.0586 1.4688-6.0898 2.1562-16.75 5.5547-33.176 11.777-49.621 18.121-7.5391 2.8906-14.996 5.8359-22.562 8.6797-3.6055 1.3477-8.0234 3.6328-12.285 4.8984 0.32812 1.1953 0.58203 2.4102 0.8125 3.6328 8.1445-2.2891 16.367-5.8125 24.109-8.707 9.2148-3.4727 18.5-7.1016 27.461-11.238z"/>
  <path d="m180.83 175.26c5.1094-2.625 10.402-4.8711 15.836-6.7227-0.15234-2.1367-0.50391-5.9648-2.9414-5.3281-2.3086 0.58203-4.6719 0.63281-7 1.2695-2.918 0.78125-8.2734 1.543-7.2305 5.2773 0.44531 1.5469 0.14453 4.2344 1.3359 5.5039z"/>
  <path d="m208.02 172.91c-1.5469-3.5-7-1.3125-10.816-0.17969-5.5156 1.8711-10.844 4.2617-15.914 7.1289-5.0273 2.375-10.195 4.4414-15.473 6.1953-1.6484 3.1719-1.1406 3.957 1.5234 2.3594 0.17969 0 0.33203-0.046875 0.50781-0.074218 3.0312 0.21484 6.0742-0.21094 8.9336-1.2461 0.027344-0.046875 0.074218-0.097656 0.125-0.17578 1.9023-5.1523 11.93-8.0469 16.32-10.062 4.625-2.2656 9.6523-3.6055 14.793-3.9453z"/>
  <path d="m211.75 226.48c4.0625-1.5234 8.3789-2.4375 12.391-4.1094 8.75-3.6836 17.562-7.1328 26.348-10.762 13.93-5.7617 28.805-9.5664 42.816-15.176-0.050782-1.0156-0.078126-2.0078-0.10547-3.0234-2.332-12.105-2.6992-24.508-1.0898-36.727-0.21094-0.61719-0.11719-1.293 0.25391-1.8242 3.0156-24.102 14.773-46.258 33.043-62.262 2.2852-1.9297 5.1289-3.8047 8.0234-5.8125l0.003906-0.003906c-5.7188 0.71484-11.469-1.0352-15.816-4.8125-5.2617-5.3477-7.7852-12.812-6.8516-20.254-12.391 13.367-25.16 28.41-32.27 44.438-5.1602 10.125-9.5508 20.629-13.125 31.418-1.1914 4.3125-2.7188 8.75-4.1875 13.25v0.003907c0.25 0.41016 0.30859 0.90625 0.15625 1.3633-0.15234 0.45312-0.5 0.81641-0.94531 0.99609h-0.10156 0.003906c-2.3555 6.4844-3.8555 13.25-4.4688 20.125 0 0.046875-0.40625 0.10156-0.40625 0.14844v0.027344c0 9.875-0.48047 29.57-12.25 33.504v-0.003906c-3.9258 1.332-8.1328 1.5781-12.184 0.71094-0.13281-0.019531-0.25781-0.054687-0.38281-0.10156-4.1523-0.85547-7.9883-2.8398-11.09-5.7344-3.0977-2.8945-5.3398-6.5859-6.4805-10.672-1.0625-3.9609-2.5117-7.793-3.707-11.73-1.2422-4.2344-5.4023-2.4844-9.2891-0.73438-3.5 1.6016-7.1562 2.4375-10.637 4.293-1.5234 0.80859-8.3477 3.1992-8.9609 5.2031h0.003906c-0.039062 0.097656-0.085937 0.19141-0.14844 0.27734 1.3125 7.4375 2.1523 14.723 7.2812 20.711 3.4844 3.4375 6.6602 7.1719 9.4922 11.168 1.8711 3.0625 3.4375 6.3008 4.6758 9.6719 0.68359-0.25391 1.3711-0.48047 2.082-0.71484 2.6719-0.89453 5.2969-1.8594 7.9219-2.8516z"/>
  <path d="m254.19 162.7c0.63281-2.4336 1.3125-4.9219 1.957-7.3867-7.7383 3.8594-15.508 8.0977-23.43 12.008-0.21094 2.6992 0.003906 5.4102 0.63281 8.043 0.48828 1.3906 1.1172 2.7266 1.8828 3.9844 0.65625 1.2188 0.50781 0.61328 1.5703 0.17969 2.9961-1.2422 5.9414-2.918 8.8867-4.293 2.2734-0.89062 4.4922-1.9102 6.6484-3.0625 0.45312-3.1875 1.0703-6.3516 1.8516-9.4727z"/>
  <path d="m251.72 176.96c-2.4102 1.1953-5 2.1289-7.4883 3.1992 0.03125 0.070313 0.046875 0.14844 0.050781 0.22656 0.078125 1.1016 0.34766 2.1836 0.78906 3.1992 2.0547-0.83594 4.1328-1.7031 6.1914-2.625 0.15234-1.3359 0.30078-2.6562 0.45703-4z"/>
  <path d="m214.16 175.82c5.2109-1.3906 10.344-3.0508 15.379-4.9727 2.9297-1.1172 1.6562-5.875-1.3125-4.7422-5.0352 1.9141-10.168 3.5664-15.375 4.9531-1.3125 0.35938-2.0859 1.7188-1.7266 3.0352 0.36328 1.3125 1.7227 2.0859 3.0352 1.7266z"/>
  <use x="70" y="625.625" xlink:href="#u"/>
  <use x="86.054688" y="625.625" xlink:href="#d"/>
  <use x="96.839844" y="625.625" xlink:href="#a"/>
  <use x="111.679687" y="625.625" xlink:href="#g"/>
  <use x="126.4375" y="625.625" xlink:href="#b"/>
  <use x="136.894531" y="625.625" xlink:href="#a"/>
  <use x="151.730469" y="625.625" xlink:href="#i"/>
  <use x="175.007812" y="625.625" xlink:href="#c"/>
  <use x="190.664062" y="625.625" xlink:href="#f"/>
  <use x="212.539062" y="625.625" xlink:href="#h"/>
  <use x="230.847656" y="625.625" xlink:href="#a"/>
  <use x="245.683594" y="625.625" xlink:href="#f"/>
  <use x="267.558594" y="625.625" xlink:href="#t"/>
  <use x="284.402344" y="625.625" xlink:href="#g"/>
  <use x="299.164062" y="625.625" xlink:href="#c"/>
  <use x="314.824219" y="625.625" xlink:href="#c"/>
  <use x="330.480469" y="625.625" xlink:href="#s"/>
  <use x="337.980469" y="625.625" xlink:href="#b"/>
  <use x="70" y="647.5" xlink:href="#r"/>
  <use x="79.515625" y="647.5" xlink:href="#d"/>
  <use x="90.304688" y="647.5" xlink:href="#e"/>
  <use x="105.332031" y="647.5" xlink:href="#q"/>
  <use x="135.742188" y="647.5" xlink:href="#b"/>
  <use x="146.199219" y="647.5" xlink:href="#p"/>
  <use x="161.773438" y="647.5" xlink:href="#a"/>
  <use x="184.222656" y="647.5" xlink:href="#o"/>
  <use x="202.53125" y="647.5" xlink:href="#e"/>
  <use x="217.558594" y="647.5" xlink:href="#n"/>
  <use x="233.132812" y="647.5" xlink:href="#m"/>
  <use x="256.320312" y="647.5" xlink:href="#l"/>
  <use x="272.355469" y="647.5" xlink:href="#d"/>
  <use x="283.140625" y="647.5" xlink:href="#e"/>
  <use x="298.171875" y="647.5" xlink:href="#k"/>
  <use x="305.667969" y="647.5" xlink:href="#a"/>
  <use x="320.503906" y="647.5" xlink:href="#j"/>
  <use x="333.472656" y="647.5" xlink:href="#b"/>
 </g>
</svg>
