<?xml version="1.0" encoding="UTF-8"?>
<svg width="700pt" height="700pt" version="1.1" viewBox="0 0 700 700" xmlns="http://www.w3.org/2000/svg" xmlns:xlink="http://www.w3.org/1999/xlink">
 <defs>
  <symbol id="w" overflow="visible">
   <path d="m18.766-1.125c-0.96875 0.5-1.9805 0.875-3.0312 1.125-1.043 0.25781-2.1367 0.39062-3.2812 0.39062-3.3984 0-6.0898-0.94531-8.0781-2.8438-1.9922-1.9062-2.9844-4.4844-2.9844-7.7344 0-3.2578 0.99219-5.8359 2.9844-7.7344 1.9883-1.9062 4.6797-2.8594 8.0781-2.8594 1.1445 0 2.2383 0.13281 3.2812 0.39062 1.0508 0.25 2.0625 0.625 3.0312 1.125v4.2188c-0.98047-0.65625-1.9453-1.1406-2.8906-1.4531-0.94922-0.3125-1.9492-0.46875-3-0.46875-1.875 0-3.3516 0.60547-4.4219 1.8125-1.0742 1.1992-1.6094 2.8555-1.6094 4.9688 0 2.1055 0.53516 3.7617 1.6094 4.9688 1.0703 1.1992 2.5469 1.7969 4.4219 1.7969 1.0508 0 2.0508-0.14844 3-0.45312 0.94531-0.3125 1.9102-0.80078 2.8906-1.4688z"/>
  </symbol>
  <symbol id="b" overflow="visible">
   <path d="m13.734-11.141c-0.4375-0.19531-0.87109-0.34375-1.2969-0.4375-0.41797-0.10156-0.83984-0.15625-1.2656-0.15625-1.2617 0-2.2305 0.40625-2.9062 1.2188-0.67969 0.80469-1.0156 1.9531-1.0156 3.4531v7.0625h-4.8906v-15.312h4.8906v2.5156c0.625-1 1.3438-1.7266 2.1562-2.1875 0.82031-0.46875 1.8008-0.70312 2.9375-0.70312 0.16406 0 0.34375 0.011719 0.53125 0.03125 0.19531 0.011719 0.47656 0.039062 0.84375 0.078125z"/>
  </symbol>
  <symbol id="a" overflow="visible">
   <path d="m17.641-7.7031v1.4062h-11.453c0.125 1.1484 0.53906 2.0078 1.25 2.5781 0.70703 0.57422 1.7031 0.85938 2.9844 0.85938 1.0312 0 2.082-0.14844 3.1562-0.45312 1.082-0.3125 2.1914-0.77344 3.3281-1.3906v3.7656c-1.1562 0.4375-2.3125 0.76562-3.4688 0.98438-1.1562 0.22656-2.3125 0.34375-3.4688 0.34375-2.7734 0-4.9297-0.70312-6.4688-2.1094-1.5312-1.4062-2.2969-3.3789-2.2969-5.9219 0-2.5 0.75391-4.4609 2.2656-5.8906 1.5078-1.4375 3.582-2.1562 6.2188-2.1562 2.4062 0 4.332 0.73047 5.7812 2.1875 1.4453 1.4492 2.1719 3.3828 2.1719 5.7969zm-5.0312-1.625c0-0.92578-0.27344-1.6719-0.8125-2.2344-0.54297-0.57031-1.25-0.85938-2.125-0.85938-0.94922 0-1.7188 0.26562-2.3125 0.79688s-0.96484 1.2969-1.1094 2.2969z"/>
  </symbol>
  <symbol id="l" overflow="visible">
   <path d="m9.2188-6.8906c-1.0234 0-1.793 0.17188-2.3125 0.51562-0.51172 0.34375-0.76562 0.85547-0.76562 1.5312 0 0.625 0.20703 1.1172 0.625 1.4688 0.41406 0.34375 0.98828 0.51562 1.7188 0.51562 0.92578 0 1.7031-0.32812 2.3281-0.98438 0.63281-0.66406 0.95312-1.4922 0.95312-2.4844v-0.5625zm7.4688-1.8438v8.7344h-4.9219v-2.2656c-0.65625 0.92969-1.3984 1.6055-2.2188 2.0312-0.82422 0.41406-1.8242 0.625-3 0.625-1.5859 0-2.8711-0.45703-3.8594-1.375-0.99219-0.92578-1.4844-2.1289-1.4844-3.6094 0-1.7891 0.61328-3.1016 1.8438-3.9375 1.2383-0.84375 3.1797-1.2656 5.8281-1.2656h2.8906v-0.39062c0-0.76953-0.30859-1.332-0.92188-1.6875-0.61719-0.36328-1.5703-0.54688-2.8594-0.54688-1.0547 0-2.0312 0.10547-2.9375 0.3125-0.89844 0.21094-1.7305 0.52344-2.5 0.9375v-3.7344c1.0391-0.25 2.0859-0.44141 3.1406-0.57812 1.0625-0.13281 2.125-0.20312 3.1875-0.20312 2.7578 0 4.75 0.54688 5.9688 1.6406 1.2266 1.0859 1.8438 2.8555 1.8438 5.3125z"/>
  </symbol>
  <symbol id="c" overflow="visible">
   <path d="m7.7031-19.656v4.3438h5.0469v3.5h-5.0469v6.5c0 0.71094 0.14062 1.1875 0.42188 1.4375s0.83594 0.375 1.6719 0.375h2.5156v3.5h-4.1875c-1.9375 0-3.3125-0.39844-4.125-1.2031-0.80469-0.8125-1.2031-2.1797-1.2031-4.1094v-6.5h-2.4219v-3.5h2.4219v-4.3438z"/>
  </symbol>
  <symbol id="k" overflow="visible">
   <path d="m12.766-13.078v-8.2031h4.9219v21.281h-4.9219v-2.2188c-0.66797 0.90625-1.4062 1.5703-2.2188 1.9844s-1.7578 0.625-2.8281 0.625c-1.8867 0-3.4336-0.75-4.6406-2.25-1.2109-1.5-1.8125-3.4258-1.8125-5.7812 0-2.3633 0.60156-4.2969 1.8125-5.7969 1.207-1.5 2.7539-2.25 4.6406-2.25 1.0625 0 2 0.21484 2.8125 0.64062 0.82031 0.42969 1.5664 1.0859 2.2344 1.9688zm-3.2188 9.9219c1.0391 0 1.8359-0.37891 2.3906-1.1406 0.55078-0.76953 0.82812-1.8828 0.82812-3.3438 0-1.457-0.27734-2.5664-0.82812-3.3281-0.55469-0.76953-1.3516-1.1562-2.3906-1.1562-1.043 0-1.8398 0.38672-2.3906 1.1562-0.55469 0.76172-0.82812 1.8711-0.82812 3.3281 0 1.4609 0.27344 2.5742 0.82812 3.3438 0.55078 0.76172 1.3477 1.1406 2.3906 1.1406z"/>
  </symbol>
  <symbol id="j" overflow="visible">
   <path d="m10.5-3.1562c1.0508 0 1.8516-0.37891 2.4062-1.1406 0.55078-0.76953 0.82812-1.8828 0.82812-3.3438 0-1.457-0.27734-2.5664-0.82812-3.3281-0.55469-0.76953-1.3555-1.1562-2.4062-1.1562-1.0547 0-1.8594 0.38672-2.4219 1.1562-0.55469 0.77344-0.82812 1.8828-0.82812 3.3281 0 1.4492 0.27344 2.5586 0.82812 3.3281 0.5625 0.77344 1.3672 1.1562 2.4219 1.1562zm-3.25-9.9219c0.67578-0.88281 1.4219-1.5391 2.2344-1.9688 0.82031-0.42578 1.7656-0.64062 2.8281-0.64062 1.8945 0 3.4453 0.75 4.6562 2.25 1.207 1.5 1.8125 3.4336 1.8125 5.7969 0 2.3555-0.60547 4.2812-1.8125 5.7812-1.2109 1.5-2.7617 2.25-4.6562 2.25-1.0625 0-2.0078-0.21094-2.8281-0.625-0.8125-0.42578-1.5586-1.0859-2.2344-1.9844v2.2188h-4.8906v-21.281h4.8906z"/>
  </symbol>
  <symbol id="i" overflow="visible">
   <path d="m0.34375-15.312h4.8906l4.125 10.391 3.5-10.391h4.8906l-6.4375 16.766c-0.64844 1.6953-1.4023 2.8828-2.2656 3.5625-0.86719 0.6875-2 1.0312-3.4062 1.0312h-2.8438v-3.2188h1.5312c0.83203 0 1.4375-0.13672 1.8125-0.40625 0.38281-0.26172 0.67969-0.73047 0.89062-1.4062l0.14062-0.42188z"/>
  </symbol>
  <symbol id="h" overflow="visible">
   <path d="m20.922-1.5156c-1.3125 0.63672-2.6797 1.1172-4.0938 1.4375-1.4062 0.3125-2.8672 0.46875-4.375 0.46875-3.3984 0-6.0898-0.94531-8.0781-2.8438-1.9922-1.9062-2.9844-4.4844-2.9844-7.7344 0-3.2891 1.0078-5.8789 3.0312-7.7656 2.0312-1.8828 4.8047-2.8281 8.3281-2.8281 1.3516 0 2.6484 0.13281 3.8906 0.39062 1.25 0.25 2.4258 0.625 3.5312 1.125v4.2188c-1.1484-0.64453-2.2812-1.125-3.4062-1.4375-1.125-0.32031-2.25-0.48438-3.375-0.48438-2.1055 0-3.7266 0.58984-4.8594 1.7656-1.125 1.168-1.6875 2.8398-1.6875 5.0156 0 2.1562 0.54688 3.8242 1.6406 5 1.0938 1.1797 2.6445 1.7656 4.6562 1.7656 0.53906 0 1.0469-0.03125 1.5156-0.09375 0.47656-0.070313 0.89844-0.17969 1.2656-0.32812v-3.9688h-3.2031v-3.5156h8.2031z"/>
  </symbol>
  <symbol id="g" overflow="visible">
   <path d="m12.766-2.5938c-0.66797 0.88672-1.4062 1.543-2.2188 1.9688-0.8125 0.41797-1.7578 0.625-2.8281 0.625-1.8672 0-3.4062-0.73438-4.625-2.2031-1.2188-1.4766-1.8281-3.3516-1.8281-5.625 0-2.2891 0.60938-4.1641 1.8281-5.625 1.2188-1.4688 2.7578-2.2031 4.625-2.2031 1.0703 0 2.0156 0.21484 2.8281 0.64062 0.8125 0.41797 1.5508 1.0742 2.2188 1.9688v-2.2656h4.9219v13.766c0 2.457-0.77734 4.3359-2.3281 5.6406-1.5547 1.3008-3.8086 1.9531-6.7656 1.9531-0.94922 0-1.8711-0.074219-2.7656-0.21875-0.89844-0.14844-1.7969-0.37109-2.7031-0.67188v-3.8125c0.86328 0.48828 1.7031 0.85156 2.5156 1.0938 0.82031 0.23828 1.6484 0.35938 2.4844 0.35938 1.6016 0 2.7734-0.35156 3.5156-1.0469 0.75-0.69922 1.125-1.7969 1.125-3.2969zm-3.2188-9.5312c-1.0117 0-1.8047 0.375-2.375 1.125-0.5625 0.74219-0.84375 1.7969-0.84375 3.1719 0 1.3984 0.26953 2.4609 0.8125 3.1875 0.55078 0.71875 1.3516 1.0781 2.4062 1.0781 1.0195 0 1.8125-0.36719 2.375-1.1094 0.5625-0.75 0.84375-1.8008 0.84375-3.1562 0-1.375-0.28125-2.4297-0.84375-3.1719-0.5625-0.75-1.3555-1.125-2.375-1.125z"/>
  </symbol>
  <symbol id="v" overflow="visible">
   <path d="m2.5781-20.406h14.203v3.9688h-8.9531v3.7969h8.4219v3.9844h-8.4219v4.6719h9.25v3.9844h-14.5z"/>
  </symbol>
  <symbol id="f" overflow="visible">
   <path d="m2.3594-21.281h4.8906v21.281h-4.8906z"/>
  </symbol>
  <symbol id="u" overflow="visible">
   <path d="m2.3594-15.312h4.8906v15.312h-4.8906zm0-5.9688h4.8906v4h-4.8906z"/>
  </symbol>
  <symbol id="e" overflow="visible">
   <path d="m17.75-9.3281v9.3281h-4.9219v-7.1406c0-1.3203-0.03125-2.2344-0.09375-2.7344s-0.16797-0.86719-0.3125-1.1094c-0.1875-0.3125-0.44922-0.55469-0.78125-0.73438-0.32422-0.17578-0.69531-0.26562-1.1094-0.26562-1.0234 0-1.8242 0.39844-2.4062 1.1875-0.58594 0.78125-0.875 1.8711-0.875 3.2656v7.5312h-4.8906v-15.312h4.8906v2.2344c0.73828-0.88281 1.5195-1.5391 2.3438-1.9688 0.83203-0.42578 1.75-0.64062 2.75-0.64062 1.7695 0 3.1133 0.54688 4.0312 1.6406 0.91406 1.0859 1.375 2.6562 1.375 4.7188z"/>
  </symbol>
  <symbol id="t" overflow="visible">
   <path d="m12.422-21.281v3.2188h-2.7031c-0.6875 0-1.1719 0.125-1.4531 0.375-0.27344 0.25-0.40625 0.6875-0.40625 1.3125v1.0625h4.1875v3.5h-4.1875v11.812h-4.8906v-11.812h-2.4375v-3.5h2.4375v-1.0625c0-1.6641 0.46094-2.8984 1.3906-3.7031 0.92578-0.80078 2.3672-1.2031 4.3281-1.2031z"/>
  </symbol>
  <symbol id="d" overflow="visible">
   <path d="m9.6406-12.188c-1.0859 0-1.9141 0.39062-2.4844 1.1719-0.57422 0.78125-0.85938 1.9062-0.85938 3.375s0.28516 2.5938 0.85938 3.375c0.57031 0.77344 1.3984 1.1562 2.4844 1.1562 1.0625 0 1.875-0.38281 2.4375-1.1562 0.57031-0.78125 0.85938-1.9062 0.85938-3.375s-0.28906-2.5938-0.85938-3.375c-0.5625-0.78125-1.375-1.1719-2.4375-1.1719zm0-3.5c2.6328 0 4.6914 0.71484 6.1719 2.1406 1.4766 1.418 2.2188 3.3867 2.2188 5.9062 0 2.5117-0.74219 4.4805-2.2188 5.9062-1.4805 1.418-3.5391 2.125-6.1719 2.125-2.6484 0-4.7148-0.70703-6.2031-2.125-1.4922-1.4258-2.2344-3.3945-2.2344-5.9062 0-2.5195 0.74219-4.4883 2.2344-5.9062 1.4883-1.4258 3.5547-2.1406 6.2031-2.1406z"/>
  </symbol>
  <symbol id="s" overflow="visible">
   <path d="m16.547-12.766c0.61328-0.94531 1.3477-1.6719 2.2031-2.1719 0.85156-0.5 1.7891-0.75 2.8125-0.75 1.7578 0 3.0977 0.54688 4.0156 1.6406 0.92578 1.0859 1.3906 2.6562 1.3906 4.7188v9.3281h-4.9219v-7.9844-0.35938c0.007813-0.13281 0.015625-0.32031 0.015625-0.5625 0-1.082-0.16406-1.8633-0.48438-2.3438-0.3125-0.48828-0.82422-0.73438-1.5312-0.73438-0.92969 0-1.6484 0.38672-2.1562 1.1562-0.51172 0.76172-0.77344 1.8672-0.78125 3.3125v7.5156h-4.9219v-7.9844c0-1.6953-0.14844-2.7852-0.4375-3.2656-0.29297-0.48828-0.8125-0.73438-1.5625-0.73438-0.9375 0-1.6641 0.38672-2.1719 1.1562-0.51172 0.76172-0.76562 1.8594-0.76562 3.2969v7.5312h-4.9219v-15.312h4.9219v2.2344c0.60156-0.86328 1.2891-1.5156 2.0625-1.9531 0.78125-0.4375 1.6406-0.65625 2.5781-0.65625 1.0625 0 2 0.25781 2.8125 0.76562 0.8125 0.51172 1.4258 1.2305 1.8438 2.1562z"/>
  </symbol>
  <symbol id="r" overflow="visible">
   <path d="m17.75-9.3281v9.3281h-4.9219v-7.1094c0-1.3438-0.03125-2.2656-0.09375-2.7656s-0.16797-0.86719-0.3125-1.1094c-0.1875-0.3125-0.44922-0.55469-0.78125-0.73438-0.32422-0.17578-0.69531-0.26562-1.1094-0.26562-1.0234 0-1.8242 0.39844-2.4062 1.1875-0.58594 0.78125-0.875 1.8711-0.875 3.2656v7.5312h-4.8906v-21.281h4.8906v8.2031c0.73828-0.88281 1.5195-1.5391 2.3438-1.9688 0.83203-0.42578 1.75-0.64062 2.75-0.64062 1.7695 0 3.1133 0.54688 4.0312 1.6406 0.91406 1.0859 1.375 2.6562 1.375 4.7188z"/>
  </symbol>
  <symbol id="q" overflow="visible">
   <path d="m2.5781-20.406h5.875l7.4219 14v-14h4.9844v20.406h-5.875l-7.4219-14v14h-4.9844z"/>
  </symbol>
  <symbol id="p" overflow="visible">
   <path d="m2.1875-5.9688v-9.3438h4.9219v1.5312c0 0.83594-0.007813 1.875-0.015625 3.125-0.011719 1.25-0.015625 2.0859-0.015625 2.5 0 1.2422 0.03125 2.1328 0.09375 2.6719 0.070313 0.54297 0.17969 0.93359 0.32812 1.1719 0.20703 0.32422 0.47266 0.57422 0.79688 0.75 0.32031 0.16797 0.69141 0.25 1.1094 0.25 1.0195 0 1.8203-0.39062 2.4062-1.1719 0.58203-0.78125 0.875-1.8672 0.875-3.2656v-7.5625h4.8906v15.312h-4.8906v-2.2188c-0.74219 0.89844-1.5234 1.5586-2.3438 1.9844-0.82422 0.41406-1.7344 0.625-2.7344 0.625-1.7617 0-3.1055-0.53906-4.0312-1.625-0.92969-1.082-1.3906-2.6602-1.3906-4.7344z"/>
  </symbol>
  <symbol id="o" overflow="visible">
   <path d="m2.5781-20.406h8.7344c2.5938 0 4.582 0.57812 5.9688 1.7344 1.3945 1.1484 2.0938 2.7891 2.0938 4.9219 0 2.1367-0.69922 3.7812-2.0938 4.9375-1.3867 1.1562-3.375 1.7344-5.9688 1.7344h-3.4844v7.0781h-5.25zm5.25 3.8125v5.7031h2.9219c1.0195 0 1.8047-0.25 2.3594-0.75 0.5625-0.5 0.84375-1.2031 0.84375-2.1094 0-0.91406-0.28125-1.6172-0.84375-2.1094-0.55469-0.48828-1.3398-0.73438-2.3594-0.73438z"/>
  </symbol>
  <symbol id="n" overflow="visible">
   <path d="m2.3594-15.312h4.8906v15.031c0 2.0508-0.49609 3.6172-1.4844 4.7031-0.98047 1.082-2.4062 1.625-4.2812 1.625h-2.4219v-3.2188h0.85938c0.92578 0 1.5625-0.21094 1.9062-0.625 0.35156-0.41797 0.53125-1.2461 0.53125-2.4844zm0-5.9688h4.8906v4h-4.8906z"/>
  </symbol>
  <symbol id="m" overflow="visible">
   <path d="m14.719-14.828v3.9844c-0.65625-0.45703-1.3242-0.79688-2-1.0156-0.66797-0.21875-1.3594-0.32812-2.0781-0.32812-1.3672 0-2.4336 0.40234-3.2031 1.2031-0.76172 0.79297-1.1406 1.9062-1.1406 3.3438 0 1.4297 0.37891 2.543 1.1406 3.3438 0.76953 0.79297 1.8359 1.1875 3.2031 1.1875 0.75781 0 1.4844-0.10938 2.1719-0.32812 0.6875-0.22656 1.3203-0.56641 1.9062-1.0156v4c-0.76172 0.28125-1.5391 0.48828-2.3281 0.625-0.78125 0.14453-1.5742 0.21875-2.375 0.21875-2.7617 0-4.9219-0.70703-6.4844-2.125-1.5547-1.4141-2.3281-3.3828-2.3281-5.9062 0-2.5312 0.77344-4.5039 2.3281-5.9219 1.5625-1.4141 3.7227-2.125 6.4844-2.125 0.80078 0 1.5938 0.074219 2.375 0.21875 0.78125 0.13672 1.5547 0.35156 2.3281 0.64062z"/>
  </symbol>
 </defs>
 <g>
  <path d="m296.43 271.04c2.9414 1.707 3.9414 5.4766 2.2344 8.4219-1.707 2.9414-5.4766 3.9414-8.4219 2.2305-2.9414-1.707-3.9414-5.4766-2.2344-8.418 1.7109-2.9414 5.4805-3.9414 8.4219-2.2344"/>
  <path d="m557.93 245.05c-0.13672-0.63281-0.38672-1.2383-0.73047-1.7891v-0.39062-0.003906c-0.42969-0.625-0.98047-1.1602-1.625-1.5664-42.699-27.398-83.18-58.105-121.07-91.84l13.273 0.44922v-0.003906c1.0547 0.050782 2.1055-0.20312 3.0234-0.72656l52.473-29.176c1.2969-0.71875 2.2578-1.9258 2.668-3.3555 0.41016-1.4297 0.23438-2.9609-0.48438-4.2617l-11.93-21.504c-0.71875-1.2969-1.9258-2.2578-3.3555-2.668s-2.9609-0.23438-4.2617 0.48438l-52.473 29.176h0.003906c-0.89062 0.50391-1.6289 1.2383-2.1289 2.1289l-10.023 17.473c-19.375-17.527-33.602-31.473-38.641-37.574v-0.003906c-2.0117-2.3477-5.5469-2.625-7.8945-0.61328-2.3516 2.0078-2.6289 5.543-0.61719 7.8945 26.914 28.02 55.668 54.211 86.07 78.402l-72.07-41.328c-1.4883-6-5.6836-10.969-11.352-13.438-5.668-2.4727-12.16-2.1641-17.57 0.82813-5.4062 2.9922-9.1172 8.332-10.035 14.445-0.91406 6.1133 1.0625 12.305 5.3555 16.754l-22.398 37.238-0.83984-0.39063c-7.0547-2.9844-15.211 0.12891-18.48 7.0586-2.7227 6.2344-0.54297 13.523 5.1523 17.246l-19.543 32.703-21.227-12.32c-1.2852-0.75-2.8125-0.96094-4.2539-0.58203-1.4375 0.375-2.668 1.3125-3.418 2.5977l-13.887 23.91v0.003906c-0.75 1.2891-0.94922 2.8281-0.5625 4.2656 0.39062 1.4414 1.3359 2.668 2.6328 3.4062l10.191 5.6016-4.0312 6.8867-9.4648-5.6016c-3.6094-2.1055-7.9102-2.7031-11.961-1.6523-4.0469 1.0469-7.5195 3.6562-9.6523 7.2539l-1.5117 2.5742c-1.9336 3.3984-2.5312 7.3906-1.6797 11.199-3.7969 1.1523-7.0156 3.6914-9.0156 7.1133l-1.5117 2.5742-0.003907 0.003906c-1.9492 3.3867-2.5664 7.3789-1.7344 11.199-3.793 1.1484-7.0156 3.6914-9.0156 7.1094l-1.5117 2.5742v0.003907c-1.9492 3.3867-2.5703 7.3789-1.7383 11.199-3.793 1.1445-7.0156 3.6875-9.0156 7.1133l-1.5117 2.5742c-1.9531 3.3867-2.5742 7.3828-1.7344 11.199-3.8984 1.4922-7.043 4.4727-8.7383 8.2891l-1.5117 2.5742v0.003906c-1.9492 3.3867-2.5664 7.3789-1.7344 11.199-3.7969 1.1445-7.0195 3.6875-9.0156 7.1133l-1.5117 2.5742c-2.1094 3.6133-2.7031 7.9141-1.6562 11.961 1.0508 4.0508 3.6602 7.5195 7.2539 9.6562l7.8398 4.5352-5.6016 9.2383h0.003907c-0.75391 1.2852-0.96484 2.8164-0.58594 4.2539 0.37891 1.4414 1.3164 2.6719 2.6016 3.418 2.9883 1.7383 4.6406 5.1055 4.1875 8.5312-0.45312 3.4297-2.9219 6.25-6.2617 7.1484-2.1953 0.57812-4.5352 0.25391-6.4922-0.89453-1.6094-0.92969-3.5703-1-5.2422-0.19531-1.6719 0.80859-2.832 2.3906-3.1055 4.2266l-5.3203 36.512h0.003906c-0.3125 2.2539 0.76562 4.4688 2.7305 5.6094 1.9648 1.1445 4.4258 0.98438 6.2266-0.39844l29.121-22.68c0.56641-0.44922 1.043-1 1.3984-1.625l19.602-33.602 7.8398 4.5352c3.6133 2.1094 7.9141 2.7031 11.961 1.6562 4.0508-1.0508 7.5195-3.6562 9.6562-7.2539l1.5117-2.5742v-0.003906c1.9531-3.3867 2.5742-7.3789 1.7344-11.199 3.7969-1.1445 7.0195-3.6875 9.0156-7.1133l1.6797-2.9102c1.957-3.3867 2.5742-7.3828 1.7383-11.199 3.9805-1.0703 7.3828-3.668 9.4648-7.2266l1.5117-2.5742c1.9492-3.3867 2.5664-7.3789 1.7344-11.199 3.7969-1.1445 7.0195-3.6875 9.0156-7.1133l1.5117-2.5742c1.9297-3.3984 2.5312-7.3906 1.6797-11.203 3.7969-1.1445 7.0195-3.6836 9.0156-7.1094l1.5117-2.5742 0.003907-0.003906c1.9531-3.3867 2.5703-7.3789 1.7344-11.199 3.7852-1.1367 7.0039-3.6562 9.0156-7.0547l1.5117-2.5742v-0.003906c2.1094-3.6133 2.7031-7.9102 1.6523-11.961-1.0469-4.0469-3.6562-7.5195-7.2539-9.6523l-10.246-6.2734 4.1992-7.2812 9.8008 5.6016c1.4023 0.78516 3.0742 0.92578 4.5938 0.39063 3.9648-1.3945 8.3438-0.98438 11.98 1.1211l112 65.91c-0.66016 8.5781 2.7578 16.969 9.2266 22.641 6.4688 5.6758 15.227 7.9727 23.648 6.2031h0.55859c7.6055-1.6289 14.176-6.3867 18.09-13.105 3.1328-5.4531 4.3008-11.82 3.3008-18.031 3.6758-21.105 10.332-41.582 19.77-60.816l4.3672 1.9609c1.7617 0.79688 3.668 1.2148 5.6016 1.2305 6.5742-0.066407 12.215-4.6992 13.562-11.133 1.3438-6.4336-1.9688-12.941-7.9648-15.637l-1.0625-0.50391c9.2891-12.922 19.449-25.195 30.406-36.734 0.20703-0.21094 0.39453-0.43359 0.5625-0.67188 0.11328-0.25391 0.20703-0.51562 0.28125-0.78516 0.36719-0.74609 0.52344-1.5781 0.44531-2.4062 0.011718-0.20703 0.011718-0.41016 0-0.61719zm-117.99-118.1 46.258-25.703 6.4961 11.703-46.258 25.703-12.992-0.44922zm57.848 147.05-4.3672-1.9609c2.4648-0.78516 4.7617-1.3984 6.832-1.9023-0.84375 1.2305-1.625 2.5742-2.4648 3.8633zm-136.59-129.08c1.2266-2.0664 3.2539-3.5273 5.6016-4.0352 0.73047-0.1875 1.4844-0.28125 2.2383-0.27734 3.8984 0.14844 7.2148 2.8789 8.1133 6.6758 0.89844 3.7969-0.84766 7.7227-4.2656 9.6016-3.418 1.8789-7.668 1.25-10.391-1.5391-2.7266-2.793-3.2539-7.0547-1.2969-10.426zm2.6875 23.633v-0.003906c1.5586 0.40234 3.1562 0.60938 4.7617 0.61719h2.4062c-1.8477 1.5977-3.418 3.4883-4.6484 5.6016l-18.758 32.422-5.0391-2.2383zm-35.727 60.367 5.0391 2.293-2.2969 3.9766c-1.9336 3.4141-2.9375 7.2773-2.9102 11.199-2.4375-0.8125-5.1133 0.13281-6.4961 2.2969l-9.4648 15.625-3.9219-2.2969zm10.641 37.125 24.473 14.223 1.7344 0.83984 35.785 20.887v0.003906c0.37109 0.21094 0.76562 0.38281 1.1758 0.50391 0.99219 0.85938 2.0625 1.625 3.1914 2.2969l24.695 14.391c5.1328 2.9688 11.234 3.7852 16.969 2.2617 5.7305-1.5234 10.625-5.2539 13.609-10.383l10.641-18.199 12.656 5.6016c-5.6016 11.199-9.5742 21.336-11.703 26.992h-0.003906c-13.625-1.7461-27.328 2.5508-37.52 11.758l-112.89-66.695 6.5508-10.809zm58.465 8.3438c-1.9375 3.4141-2.9414 7.2773-2.9141 11.203l-8.3984-4.8711v-0.003907c3.3594-1.9375 6.1562-4.7188 8.1172-8.0625l6.4414-11.199 3.4727 1.5664zm-208.55 197.07-17.246 13.441 2.3516-16.184v-0.003906c2.5273 0.31641 5.0938 0.14453 7.5586-0.50391 6.7266-1.793 12.008-6.9922 13.914-13.684 1.9062-6.6953 0.15234-13.895-4.6172-18.965l2.9688-5.0977 14.113 8.1758zm50.008-36.566-1.5117 2.5742c-1.2891 2.2031-4.1133 2.9531-6.3281 1.6797l-36.512-21.168-12.375-7.3906c-2.2031-1.293-2.9531-4.1172-1.6797-6.3281l1.5117-2.5742v-0.003906c0.60938-1.0703 1.6211-1.8477 2.8125-2.1641 1.1875-0.31641 2.457-0.14063 3.5156 0.48437l49.223 28.559c2.1289 1.3672 2.7578 4.1953 1.4023 6.3281zm12.207-21.055-1.5117 2.5742 0.003906-0.003907c-0.60938 1.0703-1.625 1.8516-2.8125 2.168-1.1914 0.31641-2.457 0.14062-3.5156-0.48438l-49.223-28.559-0.003906-0.003906c-2.2031-1.2891-2.9531-4.1133-1.6797-6.3281l1.5703-2.4062c0.60938-1.0703 1.6211-1.8516 2.8086-2.168 1.1914-0.31641 2.457-0.14062 3.5195 0.48828l49.109 28.445c1.0898 0.58984 1.8945 1.5977 2.2305 2.7891 0.33984 1.1914 0.17969 2.4688-0.4375 3.5391zm12.207-21.055-1.5117 2.5742 0.003906-0.003906c-0.60937 1.0703-1.625 1.8516-2.8125 2.168-1.1914 0.3125-2.457 0.14062-3.5156-0.48828l-49.223-28.559h-0.003906c-1.0664-0.60938-1.8477-1.6211-2.1641-2.8125-0.31641-1.1914-0.14062-2.457 0.48438-3.5156l1.5117-2.5742v-0.003906c0.61719-1.0508 1.625-1.8164 2.8008-2.125h1.1758c0.80859-0.003907 1.6016 0.21094 2.2969 0.61328l49.336 28.336c1.0898 0.62109 1.8828 1.6562 2.1992 2.8672s0.12891 2.5-0.51953 3.5742zm12.207-21-1.5117 2.5742 0.003906-0.003906c-0.60938 1.0703-1.6211 1.8516-2.8125 2.168-1.1875 0.3125-2.457 0.14062-3.5156-0.48828l-49.223-28.559c-2.2031-1.2891-2.9531-4.1172-1.6797-6.3281l1.5117-2.5742v-0.003906c0.83594-1.4258 2.375-2.3008 4.0312-2.293 0.80469-0.003906 1.5977 0.20703 2.2969 0.61328l49.223 28.559v0.003906c1.082 0.60938 1.875 1.6289 2.2031 2.8281 0.32422 1.1992 0.15625 2.4805-0.46875 3.5547zm12.207-21-1.5117 2.5742 0.003906-0.003906c-0.60938 1.0703-1.6211 1.8516-2.8125 2.168-1.1875 0.3125-2.4531 0.14062-3.5156-0.48828l-49.223-28.559c-2.2031-1.2891-2.9531-4.1172-1.6797-6.3281l1.5117-2.5742v-0.003906c0.83984-1.4258 2.375-2.3008 4.0312-2.293 0.80859-0.003906 1.6016 0.20703 2.2969 0.61328l49.223 28.559v0.003906c1.082 0.59766 1.8711 1.6094 2.1992 2.7969 0.32812 1.1914 0.16016 2.4648-0.46094 3.5312zm10.527-27.328 0.007813-0.003907c1.0664 0.60938 1.8477 1.6211 2.1641 2.8125 0.31641 1.1875 0.14062 2.4531-0.48438 3.5156l-1.5117 2.5742c-1.293 2.2031-4.1172 2.9531-6.3281 1.6797l-49.223-28.559h-0.003906c-1.0703-0.60938-1.8477-1.6211-2.1641-2.8125-0.31641-1.1914-0.14062-2.457 0.48438-3.5156l1.625-2.3516c0.60937-1.0703 1.6211-1.8516 2.8125-2.168 1.1875-0.31641 2.457-0.14062 3.5156 0.48828zm-24.473-27.16 4.0898-7 11.199 6.1602-4.3633 6.9375zm182.45 93.629c-4.918-2.9141-7.9688-8.1758-8.0469-13.891-0.082031-5.7188 2.8203-11.062 7.6562-14.109l6.3281 30.07c-2.0938-0.30469-4.1094-1.0078-5.9375-2.0703zm22.398-5.9922h0.003906c-1.3789 2.2969-3.3047 4.2188-5.6016 5.5977l-6.3828-30.184c2.1055 0.25781 4.1406 0.92578 5.9922 1.9609 3.8008 2.1953 6.5938 5.793 7.7734 10.023 1.1836 4.2266 0.66406 8.75-1.4453 12.602zm4.9844-28h0.003907c-1.6875-1.6133-3.5664-3.0039-5.6016-4.1445-5.7695-3.3359-12.562-4.4492-19.094-3.1367h-1.457c-7.0938 1.8789-13.145 6.5156-16.801 12.879 0 0.33594-0.28125 0.72656-0.50391 1.0625l-109.54-64.23c-5.6641-3.3047-12.379-4.3086-18.762-2.8008l-33.098-18.703-10.137-5.6016 8.2305-14.168 155.91 91.844c2.3008 1.3359 5.2266 0.87109 7-1.1211 4.0898-4.5938 18.312-15.457 34.441-10.527h-0.003907c2.9062 0.88281 5.9844-0.70703 6.9453-3.5859 3.7617-10.496 8.1367-20.762 13.105-30.742l7.1094 3.1914c-7.9258 15.773-13.832 32.48-17.582 49.727zm40.434-54.824c-0.65625 1.3789-2.2852 1.9961-3.6953 1.3984l-196-87.414c-1.4062-0.63672-2.0312-2.2891-1.3984-3.6992 0.44531-1.0234 1.457-1.6836 2.5742-1.6797 0.37109-0.074219 0.75-0.074219 1.1211 0l196 87.414v0.003907c0.76172 0.26562 1.375 0.85156 1.6758 1.6016 0.30078 0.75391 0.26172 1.5977-0.10938 2.3164zm-8.2891-19.039-7.6172-3.4141 0.003906-0.003906c2.9062-4.3594 6.0859-8.5273 9.5195-12.488 1.4492-1.6719 1.7812-4.043 0.83984-6.0469-0.93359-2.0234-2.9805-3.3008-5.207-3.25-8.0781 0.54297-16.059 2.1055-23.746 4.6484l6.7773-11.535c2.9883-5.1406 3.8086-11.254 2.2891-17-1.5234-5.7461-5.2695-10.648-10.41-13.633l-24.359-14.223c-5.1367-2.9883-11.254-3.8125-17-2.2891-5.7422 1.5234-10.648 5.2695-13.633 10.406l-14.84 25.258-3.4727-1.5664 15.062-25.703 0.003906-0.003906c2.9883-5.1367 3.8086-11.25 2.2852-16.996-1.5234-5.7461-5.2656-10.652-10.406-13.633l-24.473-14.223v-0.003906c-4.5078-2.5781-9.7734-3.5078-14.895-2.6328 1.4688-1.3164 2.7344-2.8438 3.75-4.5352 0.46875-0.77344 0.87891-1.5781 1.2344-2.4062l156.3 90.719c-10.031 10.871-19.328 22.398-27.832 34.496z"/>
  <use x="70" y="644" xlink:href="#w"/>
  <use x="90.550781" y="644" xlink:href="#b"/>
  <use x="104.359375" y="644" xlink:href="#a"/>
  <use x="123.347656" y="644" xlink:href="#l"/>
  <use x="142.242188" y="644" xlink:href="#c"/>
  <use x="155.628906" y="644" xlink:href="#a"/>
  <use x="174.617188" y="644" xlink:href="#k"/>
  <use x="204.410156" y="644" xlink:href="#j"/>
  <use x="224.453125" y="644" xlink:href="#i"/>
  <use x="252.453125" y="644" xlink:href="#h"/>
  <use x="275.433594" y="644" xlink:href="#b"/>
  <use x="289.242188" y="644" xlink:href="#a"/>
  <use x="308.234375" y="644" xlink:href="#g"/>
  <use x="338.023438" y="644" xlink:href="#v"/>
  <use x="357.148438" y="644" xlink:href="#f"/>
  <use x="366.75" y="644" xlink:href="#f"/>
  <use x="376.34375" y="644" xlink:href="#u"/>
  <use x="385.945312" y="644" xlink:href="#e"/>
  <use x="405.875" y="644" xlink:href="#g"/>
  <use x="425.921875" y="644" xlink:href="#a"/>
  <use x="444.910156" y="644" xlink:href="#b"/>
  <use x="70" y="672" xlink:href="#t"/>
  <use x="82.183594" y="672" xlink:href="#b"/>
  <use x="95.992188" y="672" xlink:href="#d"/>
  <use x="115.226562" y="672" xlink:href="#s"/>
  <use x="154.152344" y="672" xlink:href="#c"/>
  <use x="167.535156" y="672" xlink:href="#r"/>
  <use x="187.46875" y="672" xlink:href="#a"/>
  <use x="216.207031" y="672" xlink:href="#q"/>
  <use x="239.640625" y="672" xlink:href="#d"/>
  <use x="258.878906" y="672" xlink:href="#p"/>
  <use x="278.8125" y="672" xlink:href="#e"/>
  <use x="308.492188" y="672" xlink:href="#o"/>
  <use x="329.015625" y="672" xlink:href="#b"/>
  <use x="342.820312" y="672" xlink:href="#d"/>
  <use x="362.058594" y="672" xlink:href="#n"/>
  <use x="371.65625" y="672" xlink:href="#a"/>
  <use x="390.648438" y="672" xlink:href="#m"/>
  <use x="407.242188" y="672" xlink:href="#c"/>
 </g>
</svg>
