<?xml version="1.0" encoding="UTF-8"?>
<svg width="700pt" height="700pt" version="1.1" viewBox="0 0 700 700" xmlns="http://www.w3.org/2000/svg" xmlns:xlink="http://www.w3.org/1999/xlink">
 <defs>
  <symbol id="u" overflow="visible">
   <path d="m3.125-0.1875c-0.15625 0.085938-0.32422 0.14844-0.5 0.1875-0.17969 0.039062-0.35938 0.0625-0.54688 0.0625-0.5625 0-1.0117-0.15625-1.3438-0.46875-0.33594-0.32031-0.5-0.75391-0.5-1.2969 0-0.53906 0.16406-0.96875 0.5-1.2812 0.33203-0.32031 0.78125-0.48438 1.3438-0.48438 0.1875 0 0.36719 0.023438 0.54688 0.0625 0.17578 0.042969 0.34375 0.10547 0.5 0.1875v0.70312c-0.15625-0.10156-0.32031-0.17969-0.48438-0.23438-0.15625-0.050781-0.32031-0.078125-0.48438-0.078125-0.32422 0-0.57422 0.10156-0.75 0.29688-0.17969 0.19922-0.26562 0.47656-0.26562 0.82812 0 0.35547 0.085937 0.63672 0.26562 0.84375 0.17578 0.19922 0.42578 0.29688 0.75 0.29688 0.16406 0 0.32812-0.023438 0.48438-0.078125 0.16406-0.050781 0.32812-0.13281 0.48438-0.25z"/>
  </symbol>
  <symbol id="b" overflow="visible">
   <path d="m2.2969-1.8594c-0.074219-0.03125-0.14844-0.050781-0.21875-0.0625-0.074219-0.019531-0.14844-0.03125-0.21875-0.03125-0.21094 0-0.37109 0.070313-0.48438 0.20312-0.11719 0.13672-0.17188 0.32812-0.17188 0.57812v1.1719h-0.8125v-2.5625h0.8125v0.42188c0.10156-0.16406 0.22266-0.28516 0.35938-0.35938 0.14453-0.070312 0.3125-0.10938 0.5-0.10938h0.078125c0.039063 0 0.085937 0.007813 0.14062 0.015625z"/>
  </symbol>
  <symbol id="a" overflow="visible">
   <path d="m2.9375-1.2812v0.23438h-1.9062c0.019531 0.1875 0.085938 0.32812 0.20312 0.42188 0.125 0.09375 0.28906 0.14062 0.5 0.14062 0.17578 0 0.35156-0.019531 0.53125-0.0625 0.17578-0.050781 0.36328-0.12891 0.5625-0.23438v0.625c-0.19922 0.074219-0.39844 0.125-0.59375 0.15625-0.1875 0.039062-0.38281 0.0625-0.57812 0.0625-0.46094 0-0.82031-0.11328-1.0781-0.34375-0.25-0.23828-0.375-0.57031-0.375-1 0-0.41406 0.125-0.73828 0.375-0.96875 0.25-0.23828 0.59766-0.35938 1.0469-0.35938 0.39453 0 0.71094 0.12109 0.95312 0.35938 0.23828 0.24219 0.35938 0.5625 0.35938 0.96875zm-0.82812-0.28125c0-0.14453-0.046875-0.26562-0.14062-0.35938-0.09375-0.10156-0.21484-0.15625-0.35938-0.15625-0.15625 0-0.28906 0.046875-0.39062 0.14062-0.09375 0.085938-0.15234 0.21094-0.17188 0.375z"/>
  </symbol>
  <symbol id="g" overflow="visible">
   <path d="m1.5312-1.1562c-0.16797 0-0.29297 0.03125-0.375 0.09375-0.085938 0.0625-0.125 0.14844-0.125 0.25 0 0.10547 0.03125 0.1875 0.09375 0.25 0.070312 0.054688 0.17188 0.078125 0.29688 0.078125 0.14453 0 0.26953-0.050781 0.375-0.15625 0.11328-0.11328 0.17188-0.25391 0.17188-0.42188v-0.09375zm1.25-0.29688v1.4531h-0.8125v-0.375c-0.11719 0.15625-0.24219 0.27344-0.375 0.34375-0.13672 0.0625-0.30469 0.09375-0.5 0.09375-0.26172 0-0.47656-0.070312-0.64062-0.21875-0.16797-0.15625-0.25-0.35938-0.25-0.60938 0-0.30078 0.097656-0.51953 0.29688-0.65625 0.20703-0.14453 0.53516-0.21875 0.98438-0.21875h0.48438v-0.0625c0-0.125-0.054688-0.21875-0.15625-0.28125-0.10547-0.0625-0.26562-0.09375-0.48438-0.09375-0.17969 0-0.33984 0.023437-0.48438 0.0625-0.14844 0.03125-0.28906 0.085937-0.42188 0.15625v-0.625c0.17578-0.039063 0.35156-0.070313 0.53125-0.09375 0.17578-0.019531 0.35156-0.03125 0.53125-0.03125 0.45703 0 0.78516 0.089844 0.98438 0.26562 0.20703 0.17969 0.3125 0.47656 0.3125 0.89062z"/>
  </symbol>
  <symbol id="d" overflow="visible">
   <path d="m1.2812-3.2812v0.71875h0.84375v0.59375h-0.84375v1.0781c0 0.125 0.019531 0.21094 0.0625 0.25 0.050781 0.042969 0.14844 0.0625 0.29688 0.0625h0.42188v0.57812h-0.70312c-0.32422 0-0.55469-0.066406-0.6875-0.20312-0.13672-0.13281-0.20312-0.36328-0.20312-0.6875v-1.0781h-0.40625v-0.59375h0.40625v-0.71875z"/>
  </symbol>
  <symbol id="n" overflow="visible">
   <path d="m2.125-2.1875v-1.3594h0.82812v3.5469h-0.82812v-0.375c-0.10547 0.15625-0.22656 0.27344-0.35938 0.34375-0.13672 0.0625-0.29688 0.09375-0.48438 0.09375-0.3125 0-0.57422-0.125-0.78125-0.375-0.19922-0.25-0.29688-0.57031-0.29688-0.96875 0-0.38281 0.097656-0.70312 0.29688-0.95312 0.20703-0.25 0.46875-0.375 0.78125-0.375 0.17578 0 0.33203 0.039063 0.46875 0.10938 0.14453 0.0625 0.26953 0.16797 0.375 0.3125zm-0.53125 1.6562c0.17578 0 0.30469-0.0625 0.39062-0.1875 0.09375-0.125 0.14062-0.3125 0.14062-0.5625 0-0.23828-0.046875-0.42188-0.14062-0.54688-0.085937-0.125-0.21484-0.1875-0.39062-0.1875-0.17969 0-0.3125 0.0625-0.40625 0.1875-0.085938 0.125-0.125 0.30859-0.125 0.54688 0 0.25 0.039062 0.4375 0.125 0.5625 0.09375 0.125 0.22656 0.1875 0.40625 0.1875z"/>
  </symbol>
  <symbol id="f" overflow="visible">
   <path d="m1.75-0.53125c0.17578 0 0.3125-0.0625 0.40625-0.1875s0.14062-0.3125 0.14062-0.5625c0-0.23828-0.046875-0.42188-0.14062-0.54688s-0.23047-0.1875-0.40625-0.1875c-0.17969 0-0.3125 0.0625-0.40625 0.1875s-0.14062 0.30859-0.14062 0.54688c0 0.25 0.046875 0.4375 0.14062 0.5625s0.22656 0.1875 0.40625 0.1875zm-0.54688-1.6562c0.11328-0.14453 0.23828-0.25 0.375-0.3125 0.13281-0.070312 0.29688-0.10938 0.48438-0.10938 0.3125 0 0.56641 0.125 0.76562 0.375 0.20703 0.25 0.3125 0.57031 0.3125 0.95312 0 0.39844-0.10547 0.71875-0.3125 0.96875-0.19922 0.25-0.45312 0.375-0.76562 0.375-0.1875 0-0.35156-0.03125-0.48438-0.09375-0.13672-0.070312-0.26172-0.1875-0.375-0.34375v0.375h-0.8125v-3.5469h0.8125z"/>
  </symbol>
  <symbol id="m" overflow="visible">
   <path d="m0.0625-2.5625h0.8125l0.6875 1.7344 0.57812-1.7344h0.82812l-1.0781 2.7969c-0.11719 0.28906-0.24609 0.49219-0.39062 0.60938-0.13672 0.11328-0.32422 0.17188-0.5625 0.17188h-0.46875v-0.54688h0.25c0.14453 0 0.25-0.023438 0.3125-0.0625 0.0625-0.042969 0.10938-0.12109 0.14062-0.23438l0.03125-0.078125z"/>
  </symbol>
  <symbol id="e" overflow="visible">
   <path d="m2.7969-3.2969v0.71875c-0.1875-0.082031-0.37109-0.14453-0.54688-0.1875-0.17969-0.039063-0.34375-0.0625-0.5-0.0625-0.21094 0-0.36719 0.03125-0.46875 0.09375-0.10547 0.054687-0.15625 0.14062-0.15625 0.26562 0 0.085938 0.03125 0.15234 0.09375 0.20312 0.070312 0.054687 0.19531 0.10156 0.375 0.14062l0.375 0.0625c0.38281 0.085938 0.65625 0.20312 0.8125 0.35938s0.23438 0.375 0.23438 0.65625c0 0.375-0.10938 0.65625-0.32812 0.84375-0.21875 0.17969-0.55859 0.26562-1.0156 0.26562-0.21875 0-0.4375-0.023438-0.65625-0.0625s-0.4375-0.097656-0.65625-0.17188v-0.75c0.21875 0.11719 0.42578 0.20312 0.625 0.26562 0.20703 0.0625 0.40625 0.09375 0.59375 0.09375 0.19531 0 0.34375-0.03125 0.4375-0.09375 0.10156-0.070312 0.15625-0.16406 0.15625-0.28125 0-0.10156-0.039063-0.17969-0.10938-0.23438-0.0625-0.0625-0.19922-0.11719-0.40625-0.17188l-0.34375-0.078125c-0.33594-0.070313-0.58594-0.1875-0.75-0.34375-0.15625-0.15625-0.23438-0.36719-0.23438-0.64062 0-0.34375 0.10938-0.60156 0.32812-0.78125 0.22656-0.1875 0.54688-0.28125 0.95312-0.28125 0.1875 0 0.37891 0.015625 0.57812 0.046875 0.19531 0.023437 0.39844 0.0625 0.60938 0.125z"/>
  </symbol>
  <symbol id="l" overflow="visible">
   <path d="m2.7656-2.125c0.10156-0.16406 0.22266-0.28516 0.35938-0.35938 0.14453-0.082031 0.30078-0.125 0.46875-0.125 0.28906 0 0.51562 0.089844 0.67188 0.26562 0.15625 0.17969 0.23438 0.4375 0.23438 0.78125v1.5625h-0.82812v-1.3281-0.0625c0.007813-0.019531 0.015625-0.050781 0.015625-0.09375 0-0.17578-0.03125-0.30469-0.09375-0.39062-0.054688-0.082031-0.13672-0.125-0.25-0.125-0.15625 0-0.27734 0.0625-0.35938 0.1875-0.085937 0.125-0.125 0.3125-0.125 0.5625v1.25h-0.82812v-1.3281c0-0.28125-0.027344-0.46094-0.078125-0.54688-0.042969-0.082031-0.125-0.125-0.25-0.125-0.15625 0-0.28125 0.070312-0.375 0.20312-0.085937 0.125-0.125 0.30859-0.125 0.54688v1.25h-0.8125v-2.5625h0.8125v0.375c0.10156-0.13281 0.21875-0.23828 0.34375-0.3125 0.13281-0.070312 0.28125-0.10938 0.4375-0.10938 0.17578 0 0.33203 0.042969 0.46875 0.125 0.13281 0.085937 0.23828 0.20312 0.3125 0.35938z"/>
  </symbol>
  <symbol id="k" overflow="visible">
   <path d="m0.35938-1v-1.5625h0.82812v0.26562 0.51562 0.42188c0 0.21094 0.003906 0.35938 0.015625 0.45312 0.007813 0.085938 0.023437 0.14844 0.046875 0.1875 0.03125 0.054688 0.070312 0.09375 0.125 0.125 0.0625 0.03125 0.125 0.046875 0.1875 0.046875 0.17578 0 0.3125-0.0625 0.40625-0.1875 0.09375-0.13281 0.14062-0.32031 0.14062-0.5625v-1.2656h0.82812v2.5625h-0.82812v-0.375c-0.11719 0.15625-0.24609 0.27344-0.39062 0.34375-0.13672 0.0625-0.28906 0.09375-0.45312 0.09375-0.29297 0-0.51562-0.085938-0.67188-0.26562-0.15625-0.1875-0.23438-0.45312-0.23438-0.79688z"/>
  </symbol>
  <symbol id="t" overflow="visible">
   <path d="m0.39062-3.5469h0.8125v3.5469h-0.8125z"/>
  </symbol>
  <symbol id="j" overflow="visible">
   <path d="m2.4531-2.4688v0.65625c-0.10547-0.070312-0.21484-0.125-0.32812-0.15625-0.11719-0.039062-0.23047-0.0625-0.34375-0.0625-0.23047 0-0.41406 0.070312-0.54688 0.20312-0.125 0.125-0.1875 0.30859-0.1875 0.54688 0 0.24219 0.0625 0.42969 0.1875 0.5625 0.13281 0.13672 0.31641 0.20312 0.54688 0.20312 0.125 0 0.24219-0.015625 0.35938-0.046875 0.11328-0.039062 0.21875-0.10156 0.3125-0.1875v0.67188c-0.125 0.054688-0.25781 0.085938-0.39062 0.10938-0.125 0.019531-0.25781 0.03125-0.39062 0.03125-0.46094 0-0.82031-0.11328-1.0781-0.34375-0.26172-0.23828-0.39062-0.57031-0.39062-1 0-0.41406 0.12891-0.73828 0.39062-0.96875 0.25781-0.23828 0.61719-0.35938 1.0781-0.35938 0.13281 0 0.26562 0.011719 0.39062 0.03125 0.13281 0.023437 0.26562 0.058594 0.39062 0.10938z"/>
  </symbol>
  <symbol id="i" overflow="visible">
   <path d="m2.9688-1.5625v1.5625h-0.82812v-1.1875c0-0.21875-0.007813-0.36719-0.015625-0.45312-0.011719-0.082031-0.027344-0.14453-0.046875-0.1875-0.03125-0.050781-0.078125-0.09375-0.14062-0.125-0.054688-0.03125-0.11719-0.046875-0.1875-0.046875-0.16797 0-0.30469 0.070312-0.40625 0.20312-0.09375 0.125-0.14062 0.30859-0.14062 0.54688v1.25h-0.8125v-3.5469h0.8125v1.3594c0.125-0.14453 0.25391-0.25 0.39062-0.3125 0.14453-0.070312 0.30078-0.10938 0.46875-0.10938 0.28906 0 0.51562 0.089844 0.67188 0.26562 0.15625 0.17969 0.23438 0.4375 0.23438 0.78125z"/>
  </symbol>
  <symbol id="c" overflow="visible">
   <path d="m1.6094-2.0312c-0.17969 0-0.32031 0.070312-0.42188 0.20312-0.09375 0.125-0.14062 0.30859-0.14062 0.54688 0 0.25 0.046875 0.44531 0.14062 0.57812 0.10156 0.125 0.24219 0.1875 0.42188 0.1875 0.17578 0 0.3125-0.0625 0.40625-0.1875 0.09375-0.13281 0.14062-0.32812 0.14062-0.57812 0-0.23828-0.046875-0.42188-0.14062-0.54688-0.09375-0.13281-0.23047-0.20312-0.40625-0.20312zm0-0.57812c0.4375 0 0.78125 0.12109 1.0312 0.35938 0.25 0.23047 0.375 0.55469 0.375 0.96875 0 0.42969-0.125 0.76172-0.375 1-0.25 0.23047-0.59375 0.34375-1.0312 0.34375s-0.78125-0.11328-1.0312-0.34375c-0.25-0.23828-0.375-0.57031-0.375-1 0-0.41406 0.125-0.73828 0.375-0.96875 0.25-0.23828 0.59375-0.35938 1.0312-0.35938z"/>
  </symbol>
  <symbol id="h" overflow="visible">
   <path d="m2.9688-1.5625v1.5625h-0.82812v-1.1875c0-0.21875-0.007813-0.36719-0.015625-0.45312-0.011719-0.082031-0.027344-0.14453-0.046875-0.1875-0.03125-0.050781-0.078125-0.09375-0.14062-0.125-0.054688-0.03125-0.11719-0.046875-0.1875-0.046875-0.16797 0-0.30469 0.070312-0.40625 0.20312-0.09375 0.125-0.14062 0.30859-0.14062 0.54688v1.25h-0.8125v-2.5625h0.8125v0.375c0.125-0.14453 0.25391-0.25 0.39062-0.3125 0.14453-0.070312 0.30078-0.10938 0.46875-0.10938 0.28906 0 0.51562 0.089844 0.67188 0.26562 0.15625 0.17969 0.23438 0.4375 0.23438 0.78125z"/>
  </symbol>
  <symbol id="s" overflow="visible">
   <path d="m2.125-0.4375c-0.10547 0.15625-0.22656 0.27344-0.35938 0.34375-0.13672 0.0625-0.29688 0.09375-0.48438 0.09375-0.30469 0-0.55859-0.11719-0.76562-0.35938-0.21094-0.25-0.3125-0.56641-0.3125-0.95312 0-0.375 0.10156-0.67969 0.3125-0.92188 0.20703-0.25 0.46094-0.375 0.76562-0.375 0.1875 0 0.34766 0.039063 0.48438 0.10938 0.13281 0.0625 0.25391 0.17188 0.35938 0.32812v-0.39062h0.82812v2.3125c0 0.40625-0.13281 0.71875-0.39062 0.9375-0.26172 0.21875-0.63672 0.32812-1.125 0.32812-0.15625 0-0.3125-0.015625-0.46875-0.046875-0.14844-0.023438-0.29688-0.058594-0.45312-0.10938v-0.64062c0.14453 0.082031 0.28516 0.14453 0.42188 0.1875 0.13281 0.039062 0.27344 0.0625 0.42188 0.0625 0.25781 0 0.45312-0.0625 0.57812-0.1875 0.125-0.11719 0.1875-0.28906 0.1875-0.53125zm-0.53125-1.5781c-0.16797 0-0.29688 0.0625-0.39062 0.1875-0.09375 0.11719-0.14062 0.28906-0.14062 0.51562 0 0.24219 0.039062 0.42188 0.125 0.54688 0.09375 0.11719 0.22656 0.17188 0.40625 0.17188 0.16406 0 0.29688-0.0625 0.39062-0.1875s0.14062-0.30078 0.14062-0.53125c0-0.22656-0.046875-0.39844-0.14062-0.51562-0.09375-0.125-0.22656-0.1875-0.39062-0.1875z"/>
  </symbol>
  <symbol id="r" overflow="visible">
   <path d="m2.0781-3.5469v0.53125h-0.45312c-0.11719 0-0.19922 0.023437-0.25 0.0625-0.042969 0.042969-0.0625 0.11719-0.0625 0.21875v0.17188h0.70312v0.59375h-0.70312v1.9688h-0.8125v-1.9688h-0.40625v-0.59375h0.40625v-0.17188c0-0.28125 0.070312-0.48438 0.21875-0.60938 0.15625-0.13281 0.39844-0.20312 0.73438-0.20312z"/>
  </symbol>
  <symbol id="q" overflow="visible">
   <path d="m0.42188-3.4062h0.98438l1.25 2.3438v-2.3438h0.82812v3.4062h-0.98438l-1.2344-2.3438v2.3438h-0.84375z"/>
  </symbol>
  <symbol id="p" overflow="visible">
   <path d="m0.42188-3.4062h1.4688c0.42578 0 0.75391 0.10156 0.98438 0.29688 0.23828 0.1875 0.35938 0.46094 0.35938 0.8125 0 0.35547-0.12109 0.63281-0.35938 0.82812-0.23047 0.1875-0.55859 0.28125-0.98438 0.28125h-0.57812v1.1875h-0.89062zm0.89062 0.64062v0.95312h0.48438c0.16406 0 0.29688-0.039062 0.39062-0.125 0.09375-0.082031 0.14062-0.20312 0.14062-0.35938 0-0.14453-0.046875-0.25781-0.14062-0.34375-0.09375-0.082031-0.22656-0.125-0.39062-0.125z"/>
  </symbol>
  <symbol id="o" overflow="visible">
   <path d="m0.39062-2.5625h0.8125v2.5156c0 0.34375-0.085937 0.60156-0.25 0.78125-0.15625 0.1875-0.39062 0.28125-0.70312 0.28125h-0.40625v-0.54688h0.14062c0.15625 0 0.25781-0.039062 0.3125-0.10938 0.0625-0.0625 0.09375-0.19922 0.09375-0.40625zm0-0.98438h0.8125v0.65625h-0.8125z"/>
  </symbol>
 </defs>
 <g>
  <path d="m506.12 246.7 11.883-11.883-79.07-79.082c-1.5781-1.5781-3.7148-2.4648-5.9453-2.4648s-4.3711 0.88672-5.9453 2.4648l-66.828 66.836-11.48-11.488c-3.1055-3.0938-7.0977-5.1484-11.422-5.8828-4.3242-0.73438-8.7695-0.10938-12.723 1.7852l-8.5586-8.5508 10.77-10.77-14.848-14.848-33.414 33.449 14.848 14.859 10.77-10.77 8.5156 8.5117c-1.8789 3.8906-2.5195 8.2656-1.832 12.531 0.68359 4.2656 2.6641 8.2188 5.668 11.324l-21.719 21.719c-4.6992-1.5469-9.7344-1.7617-14.551-0.61719-4.8125 1.1406-9.2109 3.5977-12.715 7.0938l-50.566 50.559c-3.4922 3.5039-5.9453 7.9102-7.0859 12.723-1.1445 4.8125-0.92969 9.8516 0.61719 14.551l-17.492 17.48v17.586l-10.992 10.984 11.883 11.883 10.93-10.922 17.324-0.75781 17.324-17.324-0.003907 0.003906c4.7031 1.5469 9.7422 1.7617 14.559 0.61719s9.2188-3.6055 12.723-7.1055l50.594-50.52c3.4961-3.5039 5.9531-7.9062 7.0977-12.723 1.1406-4.8125 0.92969-9.8516-0.61719-14.551l21.719-21.719c3.9961 3.8477 9.3398 5.9766 14.887 5.9258 5.5469-0.046875 10.855-2.2695 14.781-6.1875l1.9688-1.9805v0.003906c1.0547-1.0391 1.9922-2.1836 2.8008-3.418l60.508 60.5c1.5742 1.5742 3.7148 2.4609 5.9414 2.4609 2.2266 0 4.3672-0.88672 5.9414-2.4609l49.242-49.328-11.891-11.883-43.363 43.371-15.652-15.621 6.0391-6.0312v0.003906c2.8594 2.2109 6.4297 3.3047 10.035 3.0742 3.6094-0.22656 7.0117-1.7656 9.5664-4.3281l25.742-25.742-0.003906 0.003906c2.5625-2.5547 4.1016-5.957 4.332-9.5664 0.22656-3.6094-0.87109-7.1797-3.0898-10.035l8.2695-8.2695zm-99.613-13.477 23.023-23.023 2.8828 2.8945 3.5859 3.5859-23.016 23.023-3.5938-3.5703zm26.48-59.621 13.535 13.535-8.3164 8.3164-0.003906-0.003906c-2.8555-2.0742-6.3555-3.0625-9.8711-2.793-3.5195 0.27344-6.8242 1.7891-9.3281 4.2773l-25.73 25.758c-2.5 2.4961-4.0273 5.8008-4.3125 9.3203-0.28125 3.5195 0.69531 7.0273 2.7617 9.8906l-6.0859 6.0859-8.4922-8.4844-5.0391-5.0391zm-67.73 84-1.9688 1.9805-0.003906-0.003906c-1.7109 1.7109-4.4844 1.7109-6.1953 0l-28.41-28.41h-0.003906c-1.707-1.7109-1.707-4.4844 0-6.1992l1.9688-1.9688h0.003906c1.7109-1.7031 4.4805-1.7031 6.1953 0l17.426 17.426 10.977 10.984c1.7109 1.707 1.7148 4.4766 0.007812 6.1914zm-155.43 121.16v-5.6016l10.164-10.09 5.1992 5.1992-10.312 10.312zm38.016-16.5-0.003906-0.003906c-2.6406 0.011719-5.1758-1.043-7.0352-2.9219l-11.957-11.945c-3.8633-3.8867-3.8633-10.16 0-14.047l9.6875-9.6875 25.992 25.992-9.668 9.6875c-1.8555 1.875-4.3828 2.9258-7.0195 2.9219zm28.59-24.473-25.992-25.992 8.168-8.168 25.992 25.992zm28.988-28.988-8.9414 8.9414-25.996-25.996 8.9492-8.9414c3.875-3.8438 10.125-3.8438 14 0l11.945 11.945h0.003906c3.8828 3.8711 3.8984 10.156 0.035156 14.047zm9.6211-30.418-5.1719-5.2031 17.816-17.816 5.1992 5.1992zm88.461-24.512c2.8555 2.3516 6.4883 3.5586 10.184 3.3867 3.6992-0.17188 7.1992-1.7109 9.8242-4.3203l25.73-25.73h0.003907c2.6055-2.6289 4.1406-6.1289 4.3164-9.8242 0.17188-3.6953-1.0352-7.3203-3.3828-10.18l8.2148-8.2227 21.344 21.289-8.2695 8.2695c-2.8594-2.2109-6.4258-3.3086-10.035-3.0781-3.6094 0.22656-7.0078 1.7656-9.5664 4.3203l-25.742 25.742c-2.5547 2.5547-4.0938 5.9531-4.3242 9.5625s0.86328 7.1758 3.0742 10.035l-6.0312 6.0312-21.297-21.297zm35.84 12.133 23.016-23.016 6.4766 6.4766-23.016 23.074-3.2383-3.2383z"/>
  <use x="70" y="574" xlink:href="#u"/>
  <use x="73.425781" y="574" xlink:href="#b"/>
  <use x="75.726562" y="574" xlink:href="#a"/>
  <use x="78.890625" y="574" xlink:href="#g"/>
  <use x="82.039062" y="574" xlink:href="#d"/>
  <use x="84.269531" y="574" xlink:href="#a"/>
  <use x="87.4375" y="574" xlink:href="#n"/>
  <use x="92.402344" y="574" xlink:href="#f"/>
  <use x="95.742188" y="574" xlink:href="#m"/>
  <use x="100.410156" y="574" xlink:href="#e"/>
  <use x="103.769531" y="574" xlink:href="#g"/>
  <use x="106.917969" y="574" xlink:href="#l"/>
  <use x="111.78125" y="574" xlink:href="#k"/>
  <use x="115.101562" y="574" xlink:href="#a"/>
  <use x="118.269531" y="574" xlink:href="#t"/>
  <use x="121.492188" y="574" xlink:href="#e"/>
  <use x="124.855469" y="574" xlink:href="#j"/>
  <use x="127.621094" y="574" xlink:href="#i"/>
  <use x="130.941406" y="574" xlink:href="#c"/>
  <use x="134.148438" y="574" xlink:href="#a"/>
  <use x="137.3125" y="574" xlink:href="#h"/>
  <use x="140.636719" y="574" xlink:href="#f"/>
  <use x="143.976562" y="574" xlink:href="#a"/>
  <use x="147.140625" y="574" xlink:href="#b"/>
  <use x="149.441406" y="574" xlink:href="#s"/>
  <use x="152.78125" y="574" xlink:href="#a"/>
  <use x="155.949219" y="574" xlink:href="#b"/>
  <use x="70" y="578.667969" xlink:href="#r"/>
  <use x="72.03125" y="578.667969" xlink:href="#b"/>
  <use x="74.332031" y="578.667969" xlink:href="#c"/>
  <use x="77.539062" y="578.667969" xlink:href="#l"/>
  <use x="84.023438" y="578.667969" xlink:href="#d"/>
  <use x="86.257812" y="578.667969" xlink:href="#i"/>
  <use x="89.578125" y="578.667969" xlink:href="#a"/>
  <use x="94.367188" y="578.667969" xlink:href="#q"/>
  <use x="98.273438" y="578.667969" xlink:href="#c"/>
  <use x="101.480469" y="578.667969" xlink:href="#k"/>
  <use x="104.800781" y="578.667969" xlink:href="#h"/>
  <use x="109.75" y="578.667969" xlink:href="#p"/>
  <use x="113.167969" y="578.667969" xlink:href="#b"/>
  <use x="115.46875" y="578.667969" xlink:href="#c"/>
  <use x="118.675781" y="578.667969" xlink:href="#o"/>
  <use x="120.277344" y="578.667969" xlink:href="#a"/>
  <use x="123.441406" y="578.667969" xlink:href="#j"/>
  <use x="126.207031" y="578.667969" xlink:href="#d"/>
 </g>
</svg>
