<?xml version="1.0" encoding="UTF-8"?>
<svg width="700pt" height="700pt" version="1.1" viewBox="0 0 700 700" xmlns="http://www.w3.org/2000/svg" xmlns:xlink="http://www.w3.org/1999/xlink">
 <defs>
  <symbol id="u" overflow="visible">
   <path d="m14.656-0.875c-0.76172 0.39844-1.5547 0.69531-2.375 0.89062-0.8125 0.19531-1.6641 0.29688-2.5469 0.29688-2.6562 0-4.7617-0.73828-6.3125-2.2188-1.5547-1.4883-2.3281-3.5039-2.3281-6.0469 0-2.5508 0.77344-4.5664 2.3281-6.0469 1.5508-1.4883 3.6562-2.2344 6.3125-2.2344 0.88281 0 1.7344 0.10156 2.5469 0.29688 0.82031 0.19922 1.6133 0.49609 2.375 0.89062v3.2969c-0.76172-0.51953-1.5117-0.89844-2.25-1.1406-0.74219-0.23828-1.5234-0.35938-2.3438-0.35938-1.4688 0-2.625 0.46875-3.4688 1.4062-0.83594 0.9375-1.25 2.2344-1.25 3.8906 0 1.6484 0.41406 2.9375 1.25 3.875 0.84375 0.9375 2 1.4062 3.4688 1.4062 0.82031 0 1.6016-0.11719 2.3438-0.35938 0.73828-0.23828 1.4883-0.61719 2.25-1.1406z"/>
  </symbol>
  <symbol id="d" overflow="visible">
   <path d="m10.719-8.7031c-0.33594-0.15625-0.66797-0.26953-1-0.34375-0.32422-0.082031-0.65625-0.125-1-0.125-0.98047 0-1.7344 0.32031-2.2656 0.95312-0.53125 0.625-0.79688 1.5273-0.79688 2.7031v5.5156h-3.8125v-11.969h3.8125v1.9688c0.48828-0.78125 1.0508-1.3477 1.6875-1.7031 0.64453-0.36328 1.4102-0.54688 2.2969-0.54688 0.13281 0 0.27344 0.007812 0.42188 0.015625 0.14453 0.011719 0.36328 0.03125 0.65625 0.0625z"/>
  </symbol>
  <symbol id="a" overflow="visible">
   <path d="m13.781-6.0156v1.0938h-8.9375c0.09375 0.89844 0.41406 1.5703 0.96875 2.0156 0.55078 0.44922 1.3281 0.67188 2.3281 0.67188 0.80078 0 1.625-0.11719 2.4688-0.35938 0.84375-0.23828 1.7109-0.59766 2.6094-1.0781v2.9531c-0.90625 0.33594-1.8125 0.58984-2.7188 0.76562s-1.8125 0.26562-2.7188 0.26562c-2.1562 0-3.8398-0.54688-5.0469-1.6406-1.1992-1.1016-1.7969-2.6484-1.7969-4.6406 0-1.9453 0.58594-3.4766 1.7656-4.5938 1.1758-1.125 2.8008-1.6875 4.875-1.6875 1.875 0 3.375 0.57031 4.5 1.7031 1.1328 1.125 1.7031 2.6367 1.7031 4.5312zm-3.9375-1.2656c0-0.72656-0.21484-1.3125-0.64062-1.75-0.41797-0.44531-0.96875-0.67188-1.6562-0.67188-0.74219 0-1.3438 0.21094-1.8125 0.625-0.46094 0.41797-0.74609 1.0156-0.85938 1.7969z"/>
  </symbol>
  <symbol id="g" overflow="visible">
   <path d="m7.2031-5.3906c-0.80469 0-1.4062 0.13672-1.8125 0.40625-0.39844 0.27344-0.59375 0.67188-0.59375 1.2031 0 0.48047 0.16016 0.85938 0.48438 1.1406 0.32031 0.27344 0.77344 0.40625 1.3594 0.40625 0.71875 0 1.3203-0.25391 1.8125-0.76562 0.48828-0.51953 0.73438-1.1719 0.73438-1.9531v-0.4375zm5.8438-1.4375v6.8281h-3.8594v-1.7656c-0.51172 0.71875-1.0898 1.2461-1.7344 1.5781-0.63672 0.33203-1.418 0.5-2.3438 0.5-1.2422 0-2.2461-0.35938-3.0156-1.0781-0.77344-0.72656-1.1562-1.6719-1.1562-2.8281 0-1.3945 0.47656-2.4219 1.4375-3.0781 0.96875-0.65625 2.4883-0.98438 4.5625-0.98438h2.25v-0.29688c0-0.60156-0.24219-1.0469-0.71875-1.3281-0.48047-0.28125-1.2266-0.42188-2.2344-0.42188-0.8125 0-1.5742 0.085937-2.2812 0.25-0.71094 0.15625-1.3672 0.40234-1.9688 0.73438v-2.9219c0.82031-0.19531 1.6445-0.34766 2.4688-0.45312 0.82031-0.10156 1.6484-0.15625 2.4844-0.15625 2.1562 0 3.7109 0.42969 4.6719 1.2812 0.95703 0.84375 1.4375 2.2266 1.4375 4.1406z"/>
  </symbol>
  <symbol id="b" overflow="visible">
   <path d="m6.0156-15.359v3.3906h3.9375v2.7344h-3.9375v5.0781c0 0.55469 0.10938 0.92969 0.32812 1.125 0.21875 0.19922 0.65625 0.29688 1.3125 0.29688h1.9688v2.7344h-3.2812c-1.5117 0-2.5859-0.3125-3.2188-0.9375-0.625-0.63281-0.9375-1.707-0.9375-3.2188v-5.0781h-1.9062v-2.7344h1.9062v-3.3906z"/>
  </symbol>
  <symbol id="i" overflow="visible">
   <path d="m9.9688-10.219v-6.4062h3.8594v16.625h-3.8594v-1.7344c-0.52344 0.71094-1.1016 1.2305-1.7344 1.5625-0.63672 0.32031-1.3711 0.48438-2.2031 0.48438-1.4688 0-2.6797-0.58203-3.625-1.75-0.94922-1.1758-1.4219-2.6875-1.4219-4.5312s0.47266-3.3477 1.4219-4.5156c0.94531-1.1758 2.1562-1.7656 3.625-1.7656 0.83203 0 1.5664 0.16797 2.2031 0.5 0.63281 0.32422 1.2109 0.83594 1.7344 1.5312zm-2.5156 7.75c0.82031 0 1.4453-0.29688 1.875-0.89062 0.42578-0.60156 0.64062-1.4727 0.64062-2.6094 0-1.1445-0.21484-2.0156-0.64062-2.6094-0.42969-0.59375-1.0547-0.89062-1.875-0.89062-0.8125 0-1.4336 0.29688-1.8594 0.89062-0.42969 0.59375-0.64062 1.4648-0.64062 2.6094 0 1.1367 0.21094 2.0078 0.64062 2.6094 0.42578 0.59375 1.0469 0.89062 1.8594 0.89062z"/>
  </symbol>
  <symbol id="c" overflow="visible">
   <path d="m8.2031-2.4688c0.82031 0 1.4453-0.29688 1.875-0.89062 0.42578-0.60156 0.64062-1.4727 0.64062-2.6094 0-1.1445-0.21484-2.0156-0.64062-2.6094-0.42969-0.59375-1.0547-0.89062-1.875-0.89062-0.82422 0-1.4531 0.30469-1.8906 0.90625-0.4375 0.59375-0.65625 1.4609-0.65625 2.5938 0 1.1367 0.21875 2.0078 0.65625 2.6094 0.4375 0.59375 1.0664 0.89062 1.8906 0.89062zm-2.5469-7.75c0.53125-0.69531 1.1133-1.207 1.75-1.5312 0.64453-0.33203 1.3828-0.5 2.2188-0.5 1.4688 0 2.6758 0.58984 3.625 1.7656 0.94531 1.168 1.4219 2.6719 1.4219 4.5156s-0.47656 3.3555-1.4219 4.5312c-0.94922 1.168-2.1562 1.75-3.625 1.75-0.83594 0-1.5742-0.16797-2.2188-0.5-0.63672-0.33203-1.2188-0.84766-1.75-1.5469v1.7344h-3.8125v-16.625h3.8125z"/>
  </symbol>
  <symbol id="f" overflow="visible">
   <path d="m0.26562-11.969h3.8281l3.2188 8.125 2.7344-8.125h3.8125l-5.0312 13.094c-0.5 1.332-1.0898 2.2656-1.7656 2.7969-0.66797 0.53125-1.5547 0.79688-2.6562 0.79688h-2.2188v-2.5h1.2031c0.64453 0 1.1133-0.10547 1.4062-0.3125 0.30078-0.21094 0.53125-0.57812 0.6875-1.1094l0.10938-0.34375z"/>
  </symbol>
  <symbol id="h" overflow="visible">
   <path d="m2.0156-15.953h4.1094v6.0781h6.0625v-6.0781h4.1094v15.953h-4.1094v-6.7656h-6.0625v6.7656h-4.1094z"/>
  </symbol>
  <symbol id="t" overflow="visible">
   <path d="m7.8438-8.875c0.86328 0 1.4844-0.16016 1.8594-0.48438 0.375-0.32031 0.5625-0.84766 0.5625-1.5781 0-0.72656-0.1875-1.25-0.5625-1.5625s-0.99609-0.46875-1.8594-0.46875h-1.7188v4.0938zm-1.7188 2.8438v6.0312h-4.1094v-15.953h6.2656c2.1016 0 3.6445 0.35547 4.625 1.0625 0.97656 0.71094 1.4688 1.8242 1.4688 3.3438 0 1.0547-0.25781 1.918-0.76562 2.5938-0.51172 0.67969-1.2773 1.1797-2.2969 1.5 0.5625 0.125 1.0625 0.41797 1.5 0.875 0.44531 0.44922 0.89844 1.1328 1.3594 2.0469l2.2344 4.5312h-4.375l-1.9531-3.9688c-0.38672-0.78906-0.78125-1.332-1.1875-1.625-0.40625-0.28906-0.94531-0.4375-1.6094-0.4375z"/>
  </symbol>
  <symbol id="s" overflow="visible">
   <path d="m1.8438-11.969h3.8125v11.969h-3.8125zm0-4.6562h3.8125v3.125h-3.8125z"/>
  </symbol>
  <symbol id="r" overflow="visible">
   <path d="m9.7031-16.625v2.5156h-2.1094c-0.54297 0-0.92188 0.10156-1.1406 0.29688-0.21094 0.19922-0.3125 0.53906-0.3125 1.0156v0.82812h3.2656v2.7344h-3.2656v9.2344h-3.8281v-9.2344h-1.8906v-2.7344h1.8906v-0.82812c0-1.3008 0.36328-2.2656 1.0938-2.8906 0.72656-0.625 1.8516-0.9375 3.375-0.9375z"/>
  </symbol>
  <symbol id="e" overflow="visible">
   <path d="m7.5312-9.5156c-0.84375 0-1.4922 0.30859-1.9375 0.92188-0.44922 0.60547-0.67188 1.4805-0.67188 2.625 0 1.1484 0.22266 2.0273 0.67188 2.6406 0.44531 0.60547 1.0938 0.90625 1.9375 0.90625 0.83203 0 1.4688-0.30078 1.9062-0.90625 0.44531-0.61328 0.67188-1.4922 0.67188-2.6406 0-1.1445-0.22656-2.0195-0.67188-2.625-0.4375-0.61328-1.0742-0.92188-1.9062-0.92188zm0-2.7344c2.0508 0 3.6562 0.55859 4.8125 1.6719 1.1641 1.1055 1.75 2.6406 1.75 4.6094s-0.58594 3.5117-1.75 4.625c-1.1562 1.1055-2.7617 1.6562-4.8125 1.6562-2.0625 0-3.6797-0.55078-4.8438-1.6562-1.168-1.1133-1.75-2.6562-1.75-4.625s0.58203-3.5039 1.75-4.6094c1.1641-1.1133 2.7812-1.6719 4.8438-1.6719z"/>
  </symbol>
  <symbol id="q" overflow="visible">
   <path d="m12.922-9.9688c0.48828-0.75 1.0625-1.3164 1.7188-1.7031 0.66406-0.38281 1.3984-0.57812 2.2031-0.57812 1.375 0 2.4219 0.42969 3.1406 1.2812 0.71875 0.84375 1.0781 2.0742 1.0781 3.6875v7.2812h-3.8438v-6.2344c0.007812-0.09375 0.015625-0.1875 0.015625-0.28125v-0.4375c0-0.84375-0.125-1.457-0.375-1.8438-0.25-0.38281-0.65234-0.57812-1.2031-0.57812-0.73047 0-1.293 0.30469-1.6875 0.90625-0.38672 0.59375-0.58984 1.4609-0.60938 2.5938v5.875h-3.8438v-6.2344c0-1.3203-0.11719-2.1758-0.34375-2.5625-0.23047-0.38281-0.63672-0.57812-1.2188-0.57812-0.73047 0-1.2969 0.30469-1.7031 0.90625-0.39844 0.60547-0.59375 1.4648-0.59375 2.5781v5.8906h-3.8438v-11.969h3.8438v1.75c0.46875-0.66406 1.0039-1.1719 1.6094-1.5156 0.61328-0.34375 1.2891-0.51562 2.0312-0.51562 0.82031 0 1.5508 0.19922 2.1875 0.59375 0.63281 0.39844 1.1133 0.96094 1.4375 1.6875z"/>
  </symbol>
  <symbol id="p" overflow="visible">
   <path d="m13.859-7.2812v7.2812h-3.8438v-5.5469c0-1.0508-0.027344-1.7695-0.078125-2.1562-0.042969-0.39453-0.12109-0.6875-0.23438-0.875-0.14844-0.25-0.35156-0.44141-0.60938-0.57812-0.25-0.14453-0.54297-0.21875-0.875-0.21875-0.79297 0-1.418 0.3125-1.875 0.9375-0.46094 0.61719-0.6875 1.4648-0.6875 2.5469v5.8906h-3.8125v-16.625h3.8125v6.4062c0.58203-0.69531 1.1953-1.207 1.8438-1.5312 0.64453-0.33203 1.3594-0.5 2.1406-0.5 1.3828 0 2.4297 0.42969 3.1406 1.2812 0.71875 0.84375 1.0781 2.0742 1.0781 3.6875z"/>
  </symbol>
  <symbol id="o" overflow="visible">
   <path d="m2.0156-15.953h4.5781l5.8125 10.938v-10.938h3.8906v15.953h-4.5938l-5.7969-10.938v10.938h-3.8906z"/>
  </symbol>
  <symbol id="n" overflow="visible">
   <path d="m1.7031-4.6562v-7.3125h3.8438v1.2031c0 0.64844-0.007813 1.4609-0.015625 2.4375v1.9688c0 0.96094 0.023438 1.6523 0.078125 2.0781 0.050781 0.41797 0.13281 0.72656 0.25 0.92188 0.15625 0.25 0.35938 0.44531 0.60938 0.57812 0.25781 0.13672 0.55078 0.20312 0.875 0.20312 0.80078 0 1.4258-0.30469 1.875-0.92188 0.45703-0.61328 0.6875-1.4688 0.6875-2.5625v-5.9062h3.8281v11.969h-3.8281v-1.7344c-0.57422 0.69922-1.1836 1.2148-1.8281 1.5469-0.64844 0.33203-1.3555 0.5-2.125 0.5-1.3867 0-2.4453-0.42188-3.1719-1.2656-0.71875-0.85156-1.0781-2.0859-1.0781-3.7031z"/>
  </symbol>
  <symbol id="m" overflow="visible">
   <path d="m13.859-7.2812v7.2812h-3.8438v-5.5781c0-1.0312-0.027344-1.7383-0.078125-2.125-0.042969-0.39453-0.12109-0.6875-0.23438-0.875-0.14844-0.25-0.35156-0.44141-0.60938-0.57812-0.25-0.14453-0.54297-0.21875-0.875-0.21875-0.79297 0-1.418 0.3125-1.875 0.9375-0.46094 0.61719-0.6875 1.4648-0.6875 2.5469v5.8906h-3.8125v-11.969h3.8125v1.75c0.58203-0.69531 1.1953-1.207 1.8438-1.5312 0.64453-0.33203 1.3594-0.5 2.1406-0.5 1.3828 0 2.4297 0.42969 3.1406 1.2812 0.71875 0.84375 1.0781 2.0742 1.0781 3.6875z"/>
  </symbol>
  <symbol id="l" overflow="visible">
   <path d="m2.0156-15.953h6.8125c2.0312 0 3.5859 0.45312 4.6719 1.3594 1.0938 0.89844 1.6406 2.1797 1.6406 3.8438 0 1.6797-0.54688 2.9688-1.6406 3.875-1.0859 0.89844-2.6406 1.3438-4.6719 1.3438h-2.7031v5.5312h-4.1094zm4.1094 2.9844v4.4531h2.2656c0.80078 0 1.4141-0.19141 1.8438-0.57812 0.4375-0.38281 0.65625-0.9375 0.65625-1.6562 0-0.70703-0.21875-1.2539-0.65625-1.6406-0.42969-0.38281-1.043-0.57812-1.8438-0.57812z"/>
  </symbol>
  <symbol id="k" overflow="visible">
   <path d="m1.8438-11.969h3.8125v11.75c0 1.6016-0.38672 2.8281-1.1562 3.6719-0.76172 0.84375-1.8711 1.2656-3.3281 1.2656h-1.8906v-2.5h0.65625c0.72656 0 1.2266-0.16797 1.5-0.5 0.26953-0.32422 0.40625-0.96875 0.40625-1.9375zm0-4.6562h3.8125v3.125h-3.8125z"/>
  </symbol>
  <symbol id="j" overflow="visible">
   <path d="m11.5-11.594v3.125c-0.52344-0.35156-1.043-0.61328-1.5625-0.78125-0.52344-0.17578-1.0625-0.26562-1.625-0.26562-1.0742 0-1.9062 0.3125-2.5 0.9375s-0.89062 1.4961-0.89062 2.6094c0 1.1172 0.29688 1.9844 0.89062 2.6094s1.4258 0.9375 2.5 0.9375c0.59375 0 1.1562-0.085937 1.6875-0.26562 0.53906-0.17578 1.0391-0.44141 1.5-0.79688v3.125c-0.59375 0.23047-1.1992 0.39453-1.8125 0.5-0.61719 0.11328-1.2344 0.17188-1.8594 0.17188-2.1562 0-3.8438-0.55078-5.0625-1.6562-1.2188-1.1133-1.8281-2.6562-1.8281-4.625s0.60938-3.5039 1.8281-4.6094c1.2188-1.1133 2.9062-1.6719 5.0625-1.6719 0.625 0 1.2383 0.058594 1.8438 0.17188 0.61328 0.10547 1.2227 0.26562 1.8281 0.48438z"/>
  </symbol>
 </defs>
 <g>
  <path d="m177.55 176.88c2.332-0.035156 4.6953-0.035156 7.0273 0 0.76562-16.855 0.38281-33.742-1.1523-50.547l-8.75-0.20703c0.20312 16.965 5.0312 34.207 2.875 50.754z"/>
  <path d="m165.94 174.9c0 3.7891 0.3125 2.3633 3.9375 2.1875 0.83594-0.039063 1.6367-0.039063 2.4727-0.070313v-0.10547c2.0156-15.125-1.9844-45.188-2.7812-50.891-0.875-0.035156-1.75-0.035156-2.625-0.070312-3.4414 3.9375-1.6328 28.574-1.4922 32.152 0.21094 5.6055 0.48828 11.168 0.48828 16.797z"/>
  <path d="m206.02 177.37c0.10547-0.75781 0.55469-1.4258 1.2148-1.8086 1.9414-1.25-0.14062-16.441-0.14062-19.188 0-9.9766-0.69531-19.848-0.58984-29.859-2.1875 0-4.375 0-6.5625-0.035157 0.125 0.30078 0.19531 0.61719 0.20703 0.94141 0.035156 16.336 2.1562 32.258 1.75 48.664-0.023438 0.39844-0.12891 0.78906-0.3125 1.1445 1.4766 0.070313 2.9727 0.10547 4.4336 0.14063z"/>
  <path d="m173.93 456.29c-6.1875-1.1445-12.477-1.25-18.699-2.0156-2.7461-0.34375-7.0938-2.293-10.016-2.3281-0.070312 11.715 0.035156 23.43 0.51953 35.109 0.69531 16.75-7.1562 41.156 15.371 45.605 12.148 1.8672 24.418 2.8281 36.707 2.8828 14.039 0.625 48.523 6.0859 58.625-6.7773 6.4258-8.2031 3.6484-22.035 4.0625-31.84 0.34375-8.3438 0.625-16.684 0.76562-25.059 0.14062-7.1953 0.24219-14.391 0.3125-21.586-16.371 4.8984-34.449 5.5273-51.305 6.4609-12.094 1.1914-24.285 1.0391-36.344-0.45312z"/>
  <path d="m196.84 177.09c-0.12891-0.32031-0.19141-0.66406-0.17578-1.0078 0.4375-16.406-1.7031-32.328-1.75-48.664 0-0.33203 0.058594-0.66406 0.17578-0.97656-2.1875 0-4.3477-0.035156-6.5352-0.070312 0.14062 16.688 2.918 33.859 1.2188 50.543 2.3398 0.066407 4.7031 0.10547 7.0664 0.17578z"/>
  <path d="m219.78 177.68c-0.10547-16.375-1.1094-32.781-1.1094-49.152v-0.003906c-0.035156-0.76172 0.28906-1.4922 0.875-1.9805-2.6016 0-5.2109 0-7.8164-0.035156-0.14062 11.746 0.41406 23.395 0.76172 35.109 0.10547 3.6484 1.3594 11.469-0.65625 15.922 2.625 0.082031 5.3047 0.082031 7.9453 0.14062z"/>
  <path d="m150.16 291.38c-0.52344 8.6523-1.2852 17.309-1.5312 25.719-0.4375 13.902-0.73047 27.809-1.0781 41.715 0.13672 0.13672 0.27734 0.17188 0.4375 0.3125 11.438 14.078 34.934 17.348 51.758 18.008 22.379 0.71484 44.375-5.9453 62.605-18.949 0.24609-21.516 0.41406-42.996 0.625-64.48-14.113-9.2812-34.062-13.383-50.613-15.816v0.003907c-21.68-3.0977-43.754 1.6875-62.203 13.488z"/>
  <path d="m211.86 256.34c-12.789 0-25.93 0.73047-38.719-0.21094-4.1055-0.28125-10.328-0.90234-15.504-1.4258-5.1758-0.52344-9.3477-1.043-9.3477-1.043 0.4375 3.4727 1.3516 8.5898 1.8008 13.383v0.003906c0.53125 6.0195 0.66016 12.07 0.38281 18.105 19.688-11.191 36.711-13.242 59.965-12.758 8.75 0.17578 18.559 3.9648 27.184 5.6875l-0.003907 0.003906c8.957 1.7227 17.551 4.9688 25.41 9.5938 0.14062-11.227 0.27734-22.453 0.48828-33.688-16.199 5.1602-34.969 2.3477-51.656 2.3477z"/>
  <path d="m196.07 382.28c-15.605-1.0117-36.496-4.6953-48.699-16.188l-0.21094 7.8242c-0.51953 24.266-1.5977 48.594-1.9102 72.891 3.4414 0.10547 5.6289 1.8438 9.9805 2.2266 5.0391 0.41406 10.062 0.90234 15.051 1.2852v0.003907c11.738 1.2539 23.547 1.7266 35.348 1.4219 18.316-1.0078 38.379-1.3555 56-6.918 0.28125-26.73 0.35156-53.461 0.625-80.16-19.57 12.887-42.797 19.07-66.184 17.613z"/>
  <path d="m241.33 182.79c-3.8906 0.070313-8.0977-0.66016-11.676-0.66016-4.375 0-8.7969-0.17188-13.207-0.17188-9.2148-0.035156-18.426-0.035156-27.637 0.10156-1.2188 0-16.477-0.37891-16.652 0.94141v-0.003906c-0.41016 2.9883-1.793 5.7578-3.9375 7.875-8.3438 9.6992-17.691 13.312-17.207 28.363-0.33984 3.082-0.98047 6.1211-1.9102 9.0742-0.65625 5.7734-1.0156 11.574-1.0781 17.383-0.070313 0.875-0.070313 1.75-0.070313 2.5664 0.10156-0.035156 0.20703-0.058593 0.31641-0.070312 7.3203 0.15234 14.617 0.85938 21.828 2.125 12.266 1.2109 24.609 1.4648 36.914 0.76562 17.559 0 39.812 3.7891 56.59-2.5742 0.48828-16.094 2.7109-34.828-9.5586-47.445-5.9844-6.2461-12.398-9.3008-12.715-18.27z"/>
  <path d="m206.06 102.95c7.2266-0.34375 17.102-1.5664 24.609 0.97266v-0.003907c0.47656-1.8594 0.73438-3.7656 0.76562-5.6875-9.1719 0.63672-18.25 2.25-27.082 4.8125 0.54688-0.058593 1.1367-0.058593 1.707-0.09375z"/>
  <path d="m228.23 90.461c-14.359-0.078126-28.633 2.1719-42.27 6.6641 0.14062 2.3633 0.21094 4.8984 0.24609 7.1953h-0.003906c14.25-6.2344 29.488-9.9141 45.016-10.867-0.019531-1.0664-0.16016-2.125-0.41406-3.1602h-1.0117c-0.38281 0-0.90234 0.16797-1.5625 0.16797z"/>
  <path d="m237.41 176.46c1.5664-0.070313 3.1289 0.38672 4.6953 0.24609h-0.003906c-0.15625-0.44922-0.23828-0.91797-0.24219-1.3906-0.73047-16.512-1.5977-32.883-3.4727-50.266h-2.2969c0.24219 17.383 3.9609 34.863 1.3203 51.41z"/>
  <path d="m223.02 126.55c0.58594 0.48828 0.91016 1.2188 0.875 1.9805 0 14.32 0.80078 40.461 1.0703 49.184 2.4023 0 4.7656-0.03125 7.168-0.10156 3.125-16.441-0.97656-34.207-1.2539-51.066z"/>
  <path d="m247.07 144.38c0.29297-5.082 0.32813-10.176 0.10547-15.262-0.17578-2.2969-1.5664-2.8516-5.0391-2.8867 3.4727 14.949 3.1289 30.105 3.7891 45.223l-0.003906 0.003906c0.89062-9 1.2734-18.039 1.1484-27.078z"/>
  <path d="m203.32 25.812c1.9453-0.16406 3.9062-0.15234 5.8516 0.039062h0.1875c0.58203 0 1.1367-0.23047 1.5469-0.64062 0.41016-0.41016 0.64062-0.96484 0.64062-1.5469v-0.039062c0.19141-0.75-0.027344-1.543-0.57031-2.0859-0.54688-0.54687-1.3398-0.76562-2.0898-0.57422-0.46484-0.003906-0.92969-0.042969-1.3906-0.10938l-0.58984-0.11328c-1.2852-0.35156-2.6406-0.37109-3.9375-0.046876-1.0391 0.38672-1.793 1.2969-1.9805 2.3906-0.17969 0.69531-0.011719 1.4336 0.45703 1.9766 0.46484 0.54297 1.168 0.82422 1.8828 0.75z"/>
  <path d="m221.7 56.438c0-0.35156 0.085938-0.69531 0.24219-1.0078 0.625-1.3906-2.8516-7.6484-3.6523-8.8281-1.6211-1.8125-2.6406-4.082-2.918-6.5-0.21094-2.5391-0.76563-5.1797-0.76563-7.7188 0-3.6836-2.3281-3.1641-5.2852-3.1641-3.6836 0-9.3125-1.1445-9.8711 3.7539-0.31641 2.9219-0.48437 5.7695-1.0117 8.6523l0.003906 0.003906c-0.15234 3.2188-0.59375 6.418-1.3125 9.5586-0.48438 1.3906-1.0117 2.8516-1.4961 4.2773 6.0859 0.4375 12.723 2.1172 15.227 2.1172 2.3945-0.003906 6.9102-0.90234 10.84-1.1445z"/>
  <path d="m227.81 84.379c0.38672-0.34375 0.90625-1.043 1.5664-1.043h0.4375c-0.24609 0-0.4375-1.6016-0.69531-2.625-0.28125 0.070312-0.55469 0.34375-0.90234 0.34375v0.003906c-14.469-0.6875-28.941 1.2383-42.723 5.6875 0.035156 1.6328 0.10547 3.1641 0.17188 4.8125 13.582-4.5898 27.805-7.0117 42.145-7.1797z"/>
  <path d="m227.06 73.43c-0.82422-2.9844-1.4727-6.0117-1.9414-9.0703-0.4375-2.6758 1.3867-2.625-3.0234-1.9102-3.7344 0.49609-7.5078 0.61328-11.266 0.34375-5.4609-0.28125-10.844-1.4219-16.23-1.75-5.6016-0.31641-5.9453 3.1992-7.3359 7.957l-0.003906 0.003906c-1.0898 4.0586-1.6758 8.2422-1.75 12.445 13.691-4.1875 28-5.9883 42.301-5.3242-0.24609-0.91797-0.51953-1.8594-0.75-2.6953z"/>
  <path d="m230.73 109.65c-7.0273-1.9844-14.375-2.5508-21.621-1.668-6.8125 0.34375-16.188-0.58984-22.527 2.1875-5.9805 2.625-6.9531 2.0117-7.2969 10.84 17.723 0.35156 35.438 0.31641 53.219 0.31641-0.19531-3.75 0.13281-10.91-1.7734-11.676z"/>
  <path d="m316.45 456.29c-6.1914-1.1445-12.477-1.25-18.703-2.0156-2.7422-0.34375-7.0938-2.293-10.012-2.3281-0.070312 11.715 0.035157 23.43 0.51953 35.109 0.69531 16.75-7.1602 41.156 15.363 45.605h0.003906c12.148 1.8672 24.418 2.8281 36.707 2.8828 14.043 0.625 48.527 6.0859 58.625-6.7773 6.4297-8.2031 3.6523-22.035 4.0703-31.84 0.34375-8.3438 0.625-16.684 0.76562-25.059 0.13672-7.1953 0.24219-14.391 0.3125-21.586-16.371 4.8984-34.449 5.5273-51.305 6.4609h-0.003906c-12.094 1.1914-24.285 1.0391-36.344-0.45312z"/>
  <path d="m389.59 144.38c0.29297-5.082 0.32812-10.176 0.10547-15.262-0.17578-2.2969-1.5664-2.8516-5.0391-2.8867 3.4727 14.949 3.1289 30.105 3.7891 45.223l-0.003906 0.003906c0.88672-9 1.2695-18.039 1.1484-27.078z"/>
  <path d="m339.36 177.09c-0.13281-0.31641-0.19531-0.66406-0.17578-1.0078 0.4375-16.406-1.7031-32.328-1.75-48.664 0-0.33203 0.058594-0.66406 0.17188-0.97656-2.1875 0-4.3438-0.035156-6.5312-0.070312 0.14062 16.688 2.918 33.859 1.2148 50.543 2.3477 0.066407 4.707 0.10547 7.0703 0.17578z"/>
  <path d="m292.69 291.38c-0.51953 8.6523-1.2852 17.309-1.5312 25.719-0.41016 13.902-0.72656 27.809-1.0781 41.715 0.14062 0.13672 0.28125 0.17188 0.4375 0.3125 11.438 14.078 34.934 17.348 51.758 18.008 22.379 0.71484 44.375-5.9414 62.602-18.949 0.24609-21.516 0.45312-43.008 0.62891-64.48-14.113-9.2812-34.062-13.383-50.613-15.816v0.003907c-21.68-3.0977-43.754 1.6875-62.203 13.488z"/>
  <path d="m320.07 176.88c2.3281-0.035156 4.6914-0.035156 7.0273 0 0.76562-16.855 0.37891-33.742-1.1562-50.547l-8.75-0.20703c0.20703 16.965 5.0352 34.207 2.8789 50.754z"/>
  <path d="m354.38 256.34c-12.789 0-25.93 0.73047-38.723-0.21094-4.1055-0.28125-10.324-0.90234-15.5-1.4258-5.1758-0.52344-9.3555-1.043-9.3555-1.043 0.4375 3.4727 1.3555 8.5898 1.8086 13.383v0.003906c0.53125 6.0195 0.66016 12.07 0.38281 18.105 19.688-11.191 36.707-13.242 59.961-12.758 8.75 0.17578 18.562 3.9648 27.188 5.6875v0.003906c8.9609 1.7266 17.559 4.9766 25.426 9.6055 0.13672-11.227 0.27734-22.453 0.48438-33.688-16.211 5.1484-34.984 2.3359-51.672 2.3359z"/>
  <path d="m308.46 174.9c0 3.7891 0.3125 2.3633 3.9375 2.1875 0.83594-0.039063 1.6328-0.039063 2.4688-0.070313v-0.10547c2.0156-15.125-1.9805-45.188-2.7773-50.891-0.875-0.035156-1.75-0.035156-2.625-0.070312-3.4414 3.9375-1.6328 28.574-1.4922 32.152 0.20703 5.6055 0.48828 11.168 0.48828 16.797z"/>
  <path d="m348.57 102.95c7.2266-0.34375 17.102-1.5664 24.609 0.97266v-0.003907c0.47656-1.8594 0.73047-3.7656 0.76172-5.6875-9.1719 0.63672-18.25 2.25-27.078 4.8125 0.55469-0.058593 1.1484-0.058593 1.707-0.09375z"/>
  <path d="m383.86 182.79c-3.8945 0.070313-8.0977-0.66016-11.68-0.66016-4.375 0-8.793-0.17188-13.207-0.17188-9.2148-0.035156-18.422-0.035156-27.633 0.10156-1.2188 0-16.48-0.37891-16.652 0.94141l-0.003906-0.003906c-0.41016 2.9883-1.793 5.7539-3.9375 7.875-8.3438 9.6992-17.691 13.312-17.207 28.363-0.33984 3.082-0.98047 6.1211-1.9102 9.0742-0.65234 5.7734-1.0156 11.574-1.082 17.383-0.066407 0.875-0.066407 1.75-0.066407 2.5664 0.10156-0.035156 0.20703-0.058593 0.3125-0.070312 7.3203 0.15234 14.617 0.85938 21.832 2.125 12.266 1.2109 24.609 1.4648 36.914 0.76562 17.551 0 39.812 3.7891 56.59-2.5742 0.48438-16.094 2.7109-34.828-9.5586-47.445-6.0039-6.2461-12.398-9.3008-12.711-18.27z"/>
  <path d="m379.93 176.46c1.5664-0.070313 3.1289 0.38672 4.6953 0.24609-0.16016-0.44922-0.24219-0.91797-0.24609-1.3906-0.73047-16.512-1.5977-32.883-3.5-50.266h-2.293c0.26562 17.383 3.9844 34.863 1.3438 51.41z"/>
  <path d="m364.21 56.438c0-0.35156 0.082031-0.69531 0.24609-1.0078 0.625-1.3906-2.8516-7.6484-3.6523-8.8281h-0.003906c-1.6289-1.8086-2.6523-4.082-2.9297-6.5039-0.21094-2.5391-0.76562-5.1797-0.76562-7.7188 0-3.6836-2.3281-3.1641-5.2852-3.1641-3.6836 0-9.3125-1.1445-9.8711 3.7539-0.31641 2.9219-0.48438 5.7695-1.0117 8.6523l0.003906 0.003906c-0.15234 3.2188-0.59375 6.418-1.3125 9.5586-0.48437 1.3906-1.0078 2.8516-1.4922 4.2773 6.082 0.4375 12.723 2.1172 15.227 2.1172 2.3984 0 6.918-0.89844 10.848-1.1406z"/>
  <path d="m348.54 177.37c0.10547-0.75781 0.55078-1.4219 1.2109-1.8086 1.9453-1.25-0.13672-16.441-0.13672-19.188 0-9.9766-0.69531-19.848-0.58984-29.859-2.1875 0-4.375 0-6.5625-0.035157 0.12891 0.29688 0.19922 0.61719 0.21094 0.94141 0.03125 16.336 2.1523 32.258 1.75 48.664-0.019531 0.39844-0.12891 0.78906-0.31641 1.1445 1.4766 0.070313 2.9727 0.10547 4.4336 0.14063z"/>
  <path d="m369.6 73.43c-0.82812-2.9805-1.4766-6.0117-1.9453-9.0703-0.4375-2.6758 1.3867-2.625-3.0273-1.9102-3.7305 0.49609-7.5039 0.61328-11.262 0.34375-5.4609-0.28125-10.844-1.4219-16.234-1.75-5.5938-0.31641-5.9414 3.1992-7.332 7.957v0.003906c-1.0898 4.0586-1.6797 8.2422-1.75 12.445 13.684-4.1836 27.984-5.9844 42.281-5.3242-0.24609-0.91797-0.52344-1.8594-0.73047-2.6953z"/>
  <path d="m345.84 25.812c1.9453-0.16797 3.9062-0.15625 5.8516 0.039062h0.1875c0.58203 0 1.1367-0.23047 1.5469-0.64062 0.41016-0.41016 0.64062-0.96484 0.64062-1.5469v-0.039062c0.19141-0.75-0.023438-1.543-0.57031-2.0859-0.54688-0.54687-1.3398-0.76562-2.0859-0.57422-0.47266-0.011719-0.94141-0.050782-1.4062-0.125l-0.58984-0.11328v-0.003906c-1.2891-0.35156-2.6445-0.36719-3.9375-0.046875-1.0508 0.38672-1.8086 1.3125-1.9844 2.4141-0.17188 0.69141 0.003907 1.4219 0.46875 1.9609 0.46875 0.53906 1.168 0.82422 1.8789 0.76172z"/>
  <path d="m370.33 84.379c0.38672-0.34375 0.90234-1.043 1.5664-1.043h0.4375c-0.24609 0-0.4375-1.6016-0.69531-2.625-0.28125 0.070312-0.55469 0.34375-0.90234 0.34375v0.003906c-14.469-0.6875-28.941 1.2383-42.723 5.6875 0.03125 1.6328 0.10547 3.1641 0.17188 4.8125 13.582-4.5898 27.805-7.0117 42.145-7.1797z"/>
  <path d="m362.3 177.68c-0.10547-16.375-1.1094-32.781-1.1094-49.152v-0.003906c-0.035156-0.76172 0.28906-1.4922 0.875-1.9805-2.625 0-5.2148 0-7.8164-0.035156-0.14062 11.746 0.41406 23.395 0.76172 35.109 0.10547 3.6484 1.3555 11.469-0.66016 15.922 2.6484 0.082031 5.3086 0.082031 7.9492 0.14062z"/>
  <path d="m365.54 126.55c0.58594 0.48828 0.91016 1.2188 0.875 1.9805 0 14.32 0.80078 40.461 1.0781 49.184 2.4023 0 4.7656-0.03125 7.168-0.10156 3.125-16.441-0.97656-34.207-1.2539-51.066z"/>
  <path d="m373.25 109.65c-7.0234-1.9844-14.375-2.5508-21.617-1.668-6.8164 0.34375-16.188-0.58984-22.527 2.1875-5.9805 2.625-6.9531 2.0117-7.3008 10.84 17.727 0.35156 35.438 0.31641 53.223 0.31641-0.17578-3.75 0.13281-10.91-1.7773-11.676z"/>
  <path d="m370.75 90.461c-14.355-0.078126-28.633 2.1719-42.27 6.6641 0.14062 2.3633 0.21094 4.8984 0.24609 7.1953h-0.003906c14.25-6.2422 29.488-9.9258 45.016-10.879-0.019531-1.0664-0.16016-2.1289-0.41406-3.1641h-1.0117c-0.37891 0.015625-0.90234 0.18359-1.5625 0.18359z"/>
  <path d="m338.59 382.28c-15.609-1.0117-36.496-4.6953-48.699-16.188l-0.21094 7.8242c-0.51953 24.266-1.6016 48.594-1.9102 72.891 3.4414 0.10547 5.6289 1.8438 9.9766 2.2266 5.043 0.41406 10.062 0.90234 15.055 1.2852v0.003907c11.738 1.2539 23.547 1.7266 35.348 1.4219 18.316-1.0078 38.379-1.3555 56-6.918 0.28125-26.73 0.34375-53.461 0.625-80.16h0.003906c-19.574 12.887-42.801 19.066-66.188 17.613z"/>
  <path d="m485.36 177.09c-0.13281-0.32031-0.19141-0.66406-0.17578-1.0078 0.4375-16.406-1.7031-32.328-1.75-48.664-0.003907-0.33203 0.054687-0.66406 0.17578-0.97656-2.1875 0-4.3438-0.035156-6.5352-0.070312 0.14063 16.688 2.918 33.859 1.2188 50.543 2.3398 0.066407 4.7109 0.10547 7.0664 0.17578z"/>
  <path d="m494.53 177.37c0.10547-0.75781 0.55469-1.4258 1.2188-1.8086 1.9414-1.25-0.14062-16.441-0.14062-19.188 0-9.9766-0.69531-19.848-0.58984-29.859-2.1875 0-4.375 0-6.5625-0.035157 0.12109 0.30078 0.19141 0.61719 0.20312 0.94141 0.035156 16.336 2.1562 32.258 1.75 48.664-0.019531 0.39844-0.125 0.78906-0.30859 1.1445 1.4727 0.070313 2.9609 0.10547 4.4297 0.14063z"/>
  <path d="m542.57 201.04c-6.0117-6.2266-12.406-9.2852-12.723-18.254-3.8906 0.070313-8.0977-0.66016-11.676-0.66016-4.375 0-8.7969-0.17188-13.207-0.17188-9.2148-0.035156-18.426-0.035156-27.637 0.10156-1.2188 0-16.477-0.37891-16.652 0.94141-0.41016 2.9883-1.793 5.7578-3.9375 7.875-8.3438 9.6992-17.691 13.312-17.207 28.363-0.33984 3.082-0.98047 6.1211-1.9141 9.0742-0.65234 5.7734-1.0117 11.574-1.0742 17.383-0.070313 0.875-0.070313 1.75-0.070313 2.5664 0.10156-0.035156 0.20703-0.058593 0.3125-0.070312 7.3203 0.15234 14.617 0.85938 21.828 2.125 12.266 1.2109 24.609 1.4648 36.918 0.76562 17.559 0 39.812 3.7891 56.59-2.5742 0.5-16.113 2.7227-34.848-9.5508-47.465z"/>
  <path d="m466.06 176.88c2.3281-0.035156 4.6914-0.035156 7.0234 0 0.76953-16.855 0.38281-33.742-1.1445-50.547l-8.75-0.20703c0.19531 16.965 5.0273 34.207 2.8711 50.754z"/>
  <path d="m511.53 126.55c0.58594 0.48828 0.90625 1.2188 0.875 1.9805 0 14.32 0.80078 40.461 1.0781 49.184 2.3984 0 4.7617-0.03125 7.1602-0.10156 3.125-16.441-0.97656-34.207-1.2539-51.066z"/>
  <path d="m494.57 102.95c7.2266-0.34375 17.102-1.5664 24.609 0.97266v-0.003907c0.47656-1.8594 0.73438-3.7656 0.76562-5.6875-9.1719 0.63672-18.25 2.25-27.082 4.8125 0.5625-0.058593 1.1523-0.058593 1.707-0.09375z"/>
  <path d="m491.83 25.812c1.9492-0.16406 3.9102-0.15234 5.8555 0.039062h0.1875c0.57812 0 1.1367-0.23047 1.5469-0.64062 0.41016-0.41016 0.64062-0.96484 0.64062-1.5469v-0.039062c0.19141-0.75-0.027344-1.543-0.57422-2.0859-0.54688-0.54687-1.3398-0.76562-2.0859-0.57422-0.46484-0.003906-0.92969-0.042969-1.3906-0.10938l-0.58984-0.11328c-1.2891-0.35156-2.6445-0.37109-3.9375-0.046876-1.0391 0.38672-1.793 1.2969-1.9805 2.3906-0.17969 0.69531-0.007812 1.4297 0.46094 1.9727 0.46484 0.53516 1.1602 0.81641 1.8672 0.75391z"/>
  <path d="m519.25 109.65c-7.0234-1.9844-14.375-2.5508-21.621-1.668-6.8125 0.34375-16.188-0.58984-22.527 2.1875-5.9766 2.625-6.9531 2.0117-7.2969 10.84 17.727 0.35156 35.438 0.31641 53.219 0.31641-0.17578-3.75 0.14062-10.91-1.7734-11.676z"/>
  <path d="m516.32 84.379c0.38672-0.34375 0.90625-1.043 1.5664-1.043h0.4375c-0.24609 0-0.4375-1.6016-0.69531-2.625-0.27734 0.070312-0.55469 0.34375-0.90234 0.34375v0.003906c-14.465-0.6875-28.938 1.2383-42.723 5.6875 0.035157 1.6328 0.10547 3.1641 0.17578 4.8125 13.582-4.5898 27.805-7.0117 42.141-7.1797z"/>
  <path d="m535.58 144.38c0.29688-5.082 0.33203-10.176 0.10547-15.262-0.17188-2.2969-1.5625-2.8516-5.0391-2.8867 3.5 14.949 3.1289 30.105 3.7891 45.223v0.003906c0.89062-9 1.2734-18.039 1.1445-27.078z"/>
  <path d="m516.75 90.461c-14.359-0.078126-28.637 2.1719-42.273 6.6641 0.14062 2.3633 0.21094 4.8984 0.24609 7.1953 14.254-6.2383 29.5-9.918 45.031-10.867-0.027344-1.0664-0.17188-2.1289-0.4375-3.1602h-1.0117c-0.375 0-0.89453 0.16797-1.5547 0.16797z"/>
  <path d="m500.38 256.34c-12.793 0-25.934 0.73047-38.723-0.21094-4.1055-0.28125-10.328-0.90234-15.504-1.4258-5.1758-0.52344-9.3477-1.043-9.3477-1.043 0.4375 3.4727 1.3516 8.5898 1.8008 13.383l-0.003906 0.003906c0.53125 6.0195 0.66016 12.07 0.38672 18.105 19.688-11.191 36.711-13.242 59.965-12.758 8.75 0.17578 18.559 3.9648 27.184 5.6875l-0.003906 0.003906c8.9531 1.7227 17.551 4.9688 25.41 9.5938 0.14063-11.227 0.28125-22.453 0.48828-33.688-16.199 5.1602-34.973 2.3477-51.652 2.3477z"/>
  <path d="m438.67 291.38c-0.52344 8.6523-1.2852 17.309-1.5312 25.719-0.4375 13.902-0.73047 27.809-1.0781 41.715 0.14062 0.13672 0.27734 0.17188 0.41406 0.3125 11.438 14.078 34.934 17.348 51.762 18.008h0.003907c22.379 0.71484 44.371-5.9453 62.602-18.949 0.24609-21.516 0.41406-42.996 0.625-64.48-14.113-9.2812-34.062-13.383-50.609-15.816v0.003907c-21.676-3.0938-43.742 1.6914-62.188 13.488z"/>
  <path d="m508.3 177.68c-0.10547-16.375-1.1094-32.781-1.1094-49.152l-0.003906-0.003906c-0.035156-0.76172 0.28906-1.4961 0.875-1.9805-2.625 0-5.2148 0-7.8242-0.035156-0.14062 11.746 0.41406 23.395 0.76172 35.109 0.10547 3.6484 1.3594 11.469-0.65625 15.922 2.6406 0.082031 5.3125 0.082031 7.957 0.14062z"/>
  <path d="m454.45 174.9c0 3.7891 0.3125 2.3633 3.9375 2.1875 0.83203-0.039063 1.6328-0.039063 2.4688-0.070313v-0.10547c2.0156-15.125-1.9805-45.188-2.7812-50.891-0.875-0.035156-1.75-0.035156-2.625-0.070312-3.4375 3.9375-1.6328 28.574-1.4922 32.152 0.21094 5.6055 0.49219 11.168 0.49219 16.797z"/>
  <path d="m462.44 456.29c-6.1875-1.1445-12.477-1.25-18.699-2.0156-2.7461-0.34375-7.0938-2.293-10.012-2.3281-0.074218 11.715 0.03125 23.43 0.51563 35.109 0.69531 16.75-7.1562 41.156 15.371 45.605 12.148 1.8672 24.418 2.8281 36.707 2.8828 14.043 0.625 48.523 6.0859 58.625-6.7773 6.4258-8.2031 3.6484-22.035 4.0625-31.84 0.34375-8.3438 0.625-16.684 0.76563-25.059 0.14062-7.1953 0.24219-14.391 0.3125-21.586-16.371 4.8984-34.449 5.5273-51.305 6.4609-12.094 1.1914-24.285 1.0391-36.344-0.45312z"/>
  <path d="m525.92 176.46c1.5664-0.070313 3.1328 0.38672 4.6953 0.24609-0.15625-0.44922-0.24219-0.91797-0.24609-1.3906-0.73047-16.512-1.5977-32.883-3.4727-50.266h-2.2969c0.24609 17.383 3.9688 34.863 1.3203 51.41z"/>
  <path d="m515.6 73.43c-0.82422-2.9805-1.4766-6.0117-1.9453-9.0703-0.4375-2.6758 1.3867-2.625-3.0234-1.9102-3.7344 0.49609-7.5078 0.61328-11.266 0.34375-5.4609-0.28125-10.844-1.4219-16.23-1.75-5.6016-0.31641-5.9453 3.1992-7.3359 7.957l-0.003906 0.003906c-1.0859 4.0625-1.6758 8.2422-1.75 12.445 13.684-4.1797 27.98-5.9805 42.27-5.3203-0.23438-0.92188-0.5-1.8633-0.71484-2.6992z"/>
  <path d="m484.59 382.28c-15.605-1.0117-36.496-4.6953-48.699-16.188l-0.21094 7.8242c-0.51953 24.266-1.5977 48.594-1.9102 72.891 3.4414 0.10547 5.6367 1.8438 9.9805 2.2266 5.0391 0.41406 10.062 0.90234 15.051 1.2852l-0.003906 0.003907c11.738 1.2539 23.547 1.7266 35.352 1.4219 18.316-1.0078 38.379-1.3555 56-6.918 0.27734-26.73 0.34375-53.461 0.62109-80.16-19.57 12.887-42.797 19.066-66.18 17.613z"/>
  <path d="m510.21 56.438c0.003907-0.35156 0.085938-0.69531 0.24609-1.0078 0.625-1.3906-2.8516-7.6484-3.6523-8.8281-1.6211-1.8125-2.6406-4.082-2.918-6.5-0.20703-2.543-0.75781-5.1836-0.75781-7.7266 0-3.6836-2.3281-3.1641-5.2852-3.1641-3.6836 0-9.3125-1.1445-9.8711 3.7539-0.31641 2.9219-0.48438 5.7695-1.0117 8.6523l0.003907 0.003906c-0.16016 3.2227-0.60547 6.4219-1.3359 9.5664-0.48438 1.3906-1.0117 2.8516-1.4961 4.2773 6.0859 0.4375 12.723 2.1172 15.227 2.1172 2.4102-0.003906 6.9258-0.90234 10.852-1.1445z"/>
  <use x="70" y="625.625" xlink:href="#u"/>
  <use x="86.054688" y="625.625" xlink:href="#d"/>
  <use x="96.839844" y="625.625" xlink:href="#a"/>
  <use x="111.679687" y="625.625" xlink:href="#g"/>
  <use x="126.4375" y="625.625" xlink:href="#b"/>
  <use x="136.894531" y="625.625" xlink:href="#a"/>
  <use x="151.730469" y="625.625" xlink:href="#i"/>
  <use x="175.007812" y="625.625" xlink:href="#c"/>
  <use x="190.664062" y="625.625" xlink:href="#f"/>
  <use x="212.539062" y="625.625" xlink:href="#h"/>
  <use x="230.847656" y="625.625" xlink:href="#a"/>
  <use x="245.683594" y="625.625" xlink:href="#f"/>
  <use x="267.558594" y="625.625" xlink:href="#t"/>
  <use x="284.402344" y="625.625" xlink:href="#g"/>
  <use x="299.164062" y="625.625" xlink:href="#c"/>
  <use x="314.824219" y="625.625" xlink:href="#c"/>
  <use x="330.480469" y="625.625" xlink:href="#s"/>
  <use x="337.980469" y="625.625" xlink:href="#b"/>
  <use x="70" y="647.5" xlink:href="#r"/>
  <use x="79.515625" y="647.5" xlink:href="#d"/>
  <use x="90.304688" y="647.5" xlink:href="#e"/>
  <use x="105.332031" y="647.5" xlink:href="#q"/>
  <use x="135.742188" y="647.5" xlink:href="#b"/>
  <use x="146.199219" y="647.5" xlink:href="#p"/>
  <use x="161.773438" y="647.5" xlink:href="#a"/>
  <use x="184.222656" y="647.5" xlink:href="#o"/>
  <use x="202.53125" y="647.5" xlink:href="#e"/>
  <use x="217.558594" y="647.5" xlink:href="#n"/>
  <use x="233.132812" y="647.5" xlink:href="#m"/>
  <use x="256.320312" y="647.5" xlink:href="#l"/>
  <use x="272.355469" y="647.5" xlink:href="#d"/>
  <use x="283.140625" y="647.5" xlink:href="#e"/>
  <use x="298.171875" y="647.5" xlink:href="#k"/>
  <use x="305.667969" y="647.5" xlink:href="#a"/>
  <use x="320.503906" y="647.5" xlink:href="#j"/>
  <use x="333.472656" y="647.5" xlink:href="#b"/>
 </g>
</svg>
